<svg width="497" height="865" viewBox="0 0 497 865" fill="none" xmlns="http://www.w3.org/2000/svg">
<g id="Group 6">
<g id="aeroplane">
<g id="Group">
<path id="Vector" opacity="0.1" d="M476.468 814.344C477.068 813.854 477.068 812.934 476.468 812.434C473.918 810.344 467.458 805.704 461.658 806.894C457.248 807.794 446.098 811.534 437.778 814.414C426.288 792.114 404.178 759.124 382.958 729.084C387.788 725.734 392.498 722.424 397.068 719.184C400.668 721.444 405.448 721.404 409.038 718.714C412.488 716.124 413.888 711.784 412.958 707.814C419.418 703.144 425.508 698.674 431.188 694.464C434.318 696.534 438.548 696.554 441.708 694.184C444.858 691.824 446.028 687.774 444.918 684.204C458.928 673.624 469.158 665.594 474.248 661.554C476.188 660.014 476.728 657.784 475.348 656.934C469.518 653.344 454.388 645.834 437.728 652.054C434.648 653.204 430.368 654.994 425.308 657.204C422.288 653.234 416.578 652.434 412.588 655.434C409.718 657.594 408.498 661.154 409.138 664.474C402.508 667.514 395.418 670.824 388.378 674.144C384.708 671.094 379.268 670.824 375.298 673.814C372.528 675.894 371.088 679.104 371.108 682.344C365.188 685.174 359.648 687.834 354.858 690.144C342.778 673.704 333.588 661.564 330.898 657.984C319.958 643.424 303.388 635.304 295.128 641.514C286.868 647.714 290.048 665.894 300.988 680.454C303.678 684.034 312.818 696.204 325.288 712.344C321.728 716.304 317.618 720.894 313.248 725.804C310.148 724.884 306.658 725.374 303.888 727.454C299.918 730.434 298.658 735.734 300.568 740.114C295.418 745.954 290.268 751.834 285.498 757.354C282.488 755.814 278.728 755.994 275.858 758.154C271.868 761.154 271.048 766.854 274.018 770.864C270.488 775.104 267.578 778.724 265.618 781.364C255.008 795.634 258.008 812.254 259.828 818.854C260.258 820.414 262.548 820.514 264.568 819.084C269.868 815.324 280.428 807.734 294.488 797.224C297.608 799.274 301.828 799.284 304.968 796.924C308.128 794.554 309.288 790.484 308.168 786.904C313.798 782.624 319.778 778.014 326.068 773.114C329.618 775.124 334.178 774.984 337.628 772.394C341.218 769.694 342.588 765.114 341.418 761.034C345.848 757.504 350.378 753.874 354.988 750.124C377.988 778.774 403.538 809.134 421.688 826.444C416.588 833.654 409.788 843.464 407.668 847.494C404.918 852.734 407.568 860.224 408.858 863.264C409.168 863.984 410.048 864.234 410.688 863.794C414.478 861.194 426.708 852.584 440.678 840.554C445.288 845.834 449.198 849.024 450.328 848.174C451.448 847.334 449.498 842.724 445.748 836.864C445.748 836.824 445.758 836.784 445.758 836.734C461.238 826.614 472.918 817.254 476.468 814.344Z" fill="black"/>
<g id="Group_2">
<path id="Vector_2" d="M345.098 766.683C340.668 770.433 333.978 769.883 330.218 765.453L307.548 738.693C303.798 734.263 304.348 727.573 308.778 723.813C313.208 720.063 319.898 720.613 323.658 725.043L346.328 751.803C350.088 756.233 349.528 762.923 345.098 766.683Z" fill="#7DA5AD"/>
<path id="Vector_3" d="M313.938 793.083C310.118 796.323 304.338 795.843 301.098 792.023L281.538 768.933C278.298 765.113 278.778 759.333 282.598 756.093C286.418 752.853 292.198 753.333 295.438 757.153L314.998 780.243C318.228 784.073 317.758 789.843 313.938 793.083Z" fill="#7DA5AD"/>
<path id="Vector_4" d="M413.238 708.953C417.668 705.203 418.218 698.503 414.468 694.073L391.798 667.313C388.048 662.883 381.348 662.333 376.918 666.083C372.488 669.833 371.938 676.533 375.688 680.963L398.358 707.723C402.118 712.153 408.808 712.703 413.238 708.953Z" fill="#7DA5AD"/>
<path id="Vector_5" d="M444.408 682.544C448.228 679.304 448.708 673.534 445.468 669.704L425.908 646.614C422.668 642.794 416.898 642.314 413.068 645.554C409.248 648.794 408.768 654.564 412.008 658.394L431.568 681.484C434.808 685.304 440.588 685.784 444.408 682.544Z" fill="#7DA5AD"/>
<path id="Vector_6" d="M437.718 806.923C437.718 806.923 422.548 830.643 419.418 837.543C416.978 842.933 420.068 850.263 421.538 853.213C421.888 853.913 422.778 854.113 423.398 853.633C427.238 850.653 440.098 840.423 454.258 826.453L437.718 806.923Z" fill="#B8F2FF"/>
<path id="Vector_7" d="M437.718 806.923C437.718 806.923 463.608 795.854 470.928 793.904C476.648 792.384 483.368 796.634 486.038 798.564C486.668 799.024 486.718 799.934 486.148 800.464C482.578 803.764 470.368 814.764 454.258 826.444L437.718 806.923Z" fill="#B8F2FF"/>
<path id="Vector_8" d="M341.018 692.784C341.018 692.784 286.218 760.824 273.728 779.864C263.978 794.734 267.938 811.154 270.148 817.634C270.668 819.164 272.958 819.134 274.898 817.584C286.988 807.884 327.598 774.794 373.928 731.624L341.018 692.784Z" fill="#B8F2FF"/>
<path id="Vector_9" d="M341.018 692.784C341.018 692.784 417.138 649.904 437.968 640.714C454.238 633.534 469.778 640.144 475.818 643.384C477.238 644.144 476.838 646.404 474.988 648.054C463.438 658.384 424.128 693.014 373.928 731.614L341.018 692.784Z" fill="#B8F2FF"/>
<path id="Vector_10" d="M331.678 652.884C343.448 666.774 470.558 815.484 455.638 828.124C441.368 840.214 314.908 690.964 303.138 677.064C291.368 663.174 287.128 645.214 295.008 638.534C302.878 631.854 319.898 638.984 331.678 652.884Z" fill="white"/>
<path id="Vector_11" d="M306.678 652.313C306.678 652.313 312.158 648.033 317.688 649.063C323.218 650.103 325.618 653.353 325.618 653.353C325.618 653.353 319.268 655.153 313.338 660.173C307.408 665.193 304.588 671.163 304.588 671.163C304.588 671.163 301.778 668.263 301.658 662.633C301.548 657.013 306.678 652.313 306.678 652.313Z" fill="#30CFF3"/>
<g id="Group_3">
<path id="Vector_12" d="M312.578 676.664C313.308 677.444 312.948 678.974 311.768 680.074C310.588 681.184 309.048 681.444 308.308 680.664C307.578 679.884 307.938 678.354 309.118 677.254C310.298 676.144 311.848 675.884 312.578 676.664Z" fill="#30CFF3"/>
<path id="Vector_13" d="M320.278 685.084C321.008 685.864 320.648 687.394 319.468 688.494C318.288 689.604 316.748 689.864 316.008 689.084C315.278 688.304 315.638 686.774 316.818 685.674C317.998 684.564 319.548 684.304 320.278 685.084Z" fill="#30CFF3"/>
<path id="Vector_14" d="M327.978 693.504C328.708 694.284 328.348 695.814 327.168 696.914C325.988 698.024 324.448 698.284 323.708 697.504C322.978 696.724 323.338 695.194 324.518 694.094C325.698 692.994 327.248 692.724 327.978 693.504Z" fill="#30CFF3"/>
<path id="Vector_15" d="M335.678 701.934C336.408 702.714 336.048 704.244 334.868 705.344C333.688 706.454 332.148 706.714 331.408 705.934C330.678 705.154 331.038 703.624 332.218 702.524C333.398 701.424 334.948 701.154 335.678 701.934Z" fill="#30CFF3"/>
<path id="Vector_16" d="M343.388 710.354C344.118 711.134 343.758 712.664 342.578 713.764C341.398 714.874 339.858 715.134 339.118 714.354C338.388 713.574 338.748 712.044 339.928 710.944C341.108 709.844 342.648 709.574 343.388 710.354Z" fill="#30CFF3"/>
<path id="Vector_17" d="M351.088 718.774C351.818 719.554 351.458 721.084 350.278 722.184C349.098 723.294 347.558 723.554 346.818 722.774C346.088 721.994 346.448 720.464 347.628 719.364C348.808 718.264 350.348 717.994 351.088 718.774Z" fill="#30CFF3"/>
<path id="Vector_18" d="M358.868 727.164C359.538 727.874 359.208 729.264 358.138 730.274C357.068 731.284 355.658 731.524 354.988 730.814C354.318 730.104 354.648 728.714 355.718 727.704C356.798 726.694 358.208 726.454 358.868 727.164Z" fill="#30CFF3"/>
<path id="Vector_19" d="M366.018 736.024C366.688 736.734 366.358 738.124 365.288 739.134C364.218 740.144 362.808 740.384 362.138 739.674C361.468 738.964 361.798 737.574 362.868 736.564C363.948 735.554 365.348 735.314 366.018 736.024Z" fill="#30CFF3"/>
<path id="Vector_20" d="M373.998 744.224C374.668 744.934 374.338 746.324 373.268 747.334C372.198 748.344 370.788 748.584 370.118 747.874C369.448 747.164 369.778 745.774 370.848 744.764C371.918 743.754 373.328 743.514 373.998 744.224Z" fill="#30CFF3"/>
<path id="Vector_21" d="M381.028 753.254C381.588 753.854 381.318 755.034 380.408 755.884C379.498 756.734 378.308 756.934 377.748 756.334C377.188 755.734 377.458 754.554 378.368 753.704C379.278 752.864 380.468 752.654 381.028 753.254Z" fill="#30CFF3"/>
<path id="Vector_22" d="M388.818 761.574C389.378 762.174 389.108 763.354 388.198 764.204C387.288 765.054 386.098 765.254 385.538 764.654C384.978 764.054 385.248 762.874 386.158 762.024C387.068 761.184 388.258 760.984 388.818 761.574Z" fill="#30CFF3"/>
<path id="Vector_23" d="M396.718 769.863C397.278 770.463 397.008 771.643 396.098 772.493C395.188 773.343 393.998 773.543 393.438 772.943C392.878 772.343 393.148 771.163 394.058 770.313C394.968 769.463 396.158 769.263 396.718 769.863Z" fill="#30CFF3"/>
<path id="Vector_24" d="M404.588 778.114C405.148 778.714 404.878 779.894 403.968 780.744C403.058 781.594 401.868 781.794 401.308 781.194C400.748 780.594 401.018 779.414 401.928 778.564C402.838 777.724 404.028 777.514 404.588 778.114Z" fill="#30CFF3"/>
<path id="Vector_25" d="M412.488 786.403C413.048 787.003 412.778 788.183 411.868 789.033C410.958 789.883 409.768 790.083 409.208 789.483C408.648 788.883 408.918 787.703 409.828 786.853C410.728 786.003 411.918 785.803 412.488 786.403Z" fill="#30CFF3"/>
<path id="Vector_26" d="M420.358 794.653C420.918 795.253 420.648 796.433 419.738 797.283C418.828 798.133 417.638 798.333 417.078 797.733C416.518 797.133 416.788 795.953 417.698 795.103C418.598 794.253 419.788 794.053 420.358 794.653Z" fill="#30CFF3"/>
<path id="Vector_27" d="M428.248 802.934C428.808 803.534 428.538 804.714 427.628 805.564C426.718 806.414 425.528 806.614 424.968 806.014C424.408 805.414 424.678 804.234 425.588 803.384C426.488 802.534 427.678 802.334 428.248 802.934Z" fill="#30CFF3"/>
</g>
<g id="Group_4">
<path id="Vector_28" d="M329.538 662.294C330.188 663.144 331.758 663.044 333.038 662.064C334.318 661.084 334.838 659.604 334.188 658.754C333.538 657.904 331.968 658.004 330.688 658.984C329.398 659.964 328.888 661.444 329.538 662.294Z" fill="#30CFF3"/>
<path id="Vector_29" d="M336.578 671.274C337.228 672.124 338.798 672.024 340.078 671.044C341.358 670.064 341.878 668.584 341.228 667.734C340.578 666.884 339.008 666.984 337.728 667.964C336.448 668.944 335.928 670.424 336.578 671.274Z" fill="#30CFF3"/>
<path id="Vector_30" d="M343.618 680.254C344.268 681.104 345.838 681.004 347.118 680.024C348.398 679.044 348.918 677.564 348.268 676.714C347.618 675.864 346.048 675.964 344.768 676.944C343.488 677.924 342.968 679.404 343.618 680.254Z" fill="#30CFF3"/>
<path id="Vector_31" d="M350.668 689.234C351.318 690.084 352.888 689.984 354.168 689.004C355.448 688.024 355.968 686.544 355.318 685.694C354.668 684.844 353.098 684.944 351.818 685.924C350.528 686.904 350.018 688.384 350.668 689.234Z" fill="#30CFF3"/>
<path id="Vector_32" d="M357.708 698.214C358.358 699.064 359.928 698.964 361.208 697.984C362.488 697.004 363.008 695.523 362.358 694.673C361.708 693.823 360.138 693.924 358.858 694.904C357.578 695.884 357.058 697.364 357.708 698.214Z" fill="#30CFF3"/>
<path id="Vector_33" d="M364.758 707.193C365.408 708.043 366.978 707.943 368.258 706.963C369.538 705.983 370.058 704.503 369.408 703.653C368.758 702.803 367.188 702.903 365.908 703.883C364.628 704.863 364.108 706.343 364.758 707.193Z" fill="#30CFF3"/>
<path id="Vector_34" d="M371.738 716.254C372.328 717.024 373.758 716.934 374.918 716.044C376.088 715.154 376.558 713.804 375.968 713.024C375.378 712.254 373.948 712.344 372.788 713.234C371.618 714.134 371.148 715.484 371.738 716.254Z" fill="#30CFF3"/>
<path id="Vector_35" d="M379.318 724.763C379.908 725.533 381.338 725.443 382.498 724.553C383.668 723.663 384.138 722.313 383.548 721.533C382.958 720.763 381.528 720.853 380.368 721.743C379.188 722.633 378.728 723.983 379.318 724.763Z" fill="#30CFF3"/>
<path id="Vector_36" d="M386.098 733.974C386.688 734.744 388.118 734.654 389.278 733.764C390.448 732.874 390.918 731.524 390.328 730.744C389.738 729.974 388.308 730.064 387.148 730.954C385.968 731.854 385.508 733.204 386.098 733.974Z" fill="#30CFF3"/>
<path id="Vector_37" d="M393.848 742.403C394.348 743.053 395.548 742.973 396.538 742.223C397.528 741.473 397.918 740.333 397.418 739.673C396.918 739.023 395.718 739.103 394.728 739.853C393.738 740.603 393.348 741.743 393.848 742.403Z" fill="#30CFF3"/>
<path id="Vector_38" d="M400.778 751.454C401.278 752.104 402.478 752.024 403.468 751.274C404.458 750.524 404.848 749.384 404.348 748.724C403.848 748.074 402.648 748.154 401.658 748.904C400.668 749.654 400.278 750.794 400.778 751.454Z" fill="#30CFF3"/>
<path id="Vector_39" d="M407.648 760.604C408.148 761.254 409.348 761.174 410.338 760.424C411.328 759.674 411.718 758.534 411.218 757.874C410.718 757.224 409.518 757.304 408.528 758.054C407.548 758.804 407.148 759.944 407.648 760.604Z" fill="#30CFF3"/>
<path id="Vector_40" d="M414.498 769.724C414.998 770.374 416.198 770.294 417.188 769.544C418.178 768.794 418.568 767.654 418.068 766.994C417.568 766.344 416.368 766.424 415.378 767.174C414.398 767.924 413.998 769.064 414.498 769.724Z" fill="#30CFF3"/>
<path id="Vector_41" d="M421.368 778.874C421.868 779.524 423.068 779.444 424.058 778.694C425.048 777.944 425.438 776.804 424.938 776.144C424.438 775.494 423.238 775.574 422.248 776.324C421.268 777.074 420.868 778.214 421.368 778.874Z" fill="#30CFF3"/>
<path id="Vector_42" d="M428.218 787.994C428.718 788.644 429.918 788.564 430.908 787.814C431.898 787.064 432.288 785.924 431.788 785.264C431.288 784.614 430.088 784.694 429.098 785.444C428.118 786.194 427.718 787.334 428.218 787.994Z" fill="#30CFF3"/>
<path id="Vector_43" d="M435.088 797.133C435.588 797.783 436.788 797.703 437.778 796.953C438.768 796.203 439.158 795.063 438.658 794.403C438.158 793.753 436.958 793.833 435.968 794.583C434.988 795.333 434.588 796.483 435.088 797.133Z" fill="#30CFF3"/>
</g>
<path id="Vector_44" d="M462.064 835.744C463.501 834.527 459.028 826.886 452.074 818.677C445.12 810.468 438.317 804.801 436.88 806.018C435.443 807.235 439.916 814.877 446.87 823.085C453.825 831.294 460.627 836.962 462.064 835.744Z" fill="#7DA5AD"/>
</g>
</g>
</g>
<g id="passport">
<path id="PASSPORT" opacity="0.1" d="M439.457 501.445L432.849 503.508L432.108 500.926C431.735 499.625 432.138 498.791 433.318 498.422C434.603 498.021 435.642 498.666 436.435 500.355L435.763 500.75C435.188 499.506 434.469 499.019 433.607 499.288C432.874 499.517 432.617 500.015 432.837 500.78L433.32 502.464L439.22 500.621L439.457 501.445ZM437.782 495.607L438.027 496.462L430.644 495.822L430.382 494.909L436.21 490.129L436.472 491.042L434.629 492.515L435.234 494.622L434.475 494.611L434.016 493.008L431.362 495.132L437.782 495.607ZM435.756 489.422L434.97 489.667C435.025 488.922 434.941 488.163 434.719 487.388C434.405 486.292 433.832 485.874 433 486.134C432.292 486.355 432.053 486.87 432.285 487.677L432.52 488.497C432.902 489.83 432.493 490.684 431.291 491.059C430.028 491.453 429.152 490.797 428.662 489.09C428.449 488.348 428.344 487.629 428.346 486.933L429.131 486.687C429.068 487.403 429.143 488.131 429.356 488.874C429.688 490.031 430.254 490.485 431.055 490.235C431.764 490.014 432.005 489.511 431.781 488.728L431.546 487.908C431.156 486.551 431.562 485.685 432.764 485.31C434.058 484.906 434.94 485.527 435.412 487.171C435.635 487.946 435.749 488.696 435.756 489.422ZM434.108 483.677L433.322 483.923C433.377 483.178 433.293 482.418 433.071 481.643C432.757 480.548 432.184 480.13 431.352 480.389C430.644 480.611 430.405 481.125 430.637 481.933L430.872 482.752C431.254 484.085 430.845 484.939 429.643 485.314C428.38 485.709 427.504 485.052 427.014 483.345C426.801 482.603 426.696 481.884 426.698 481.188L427.483 480.943C427.42 481.658 427.495 482.387 427.707 483.129C428.04 484.287 428.606 484.741 429.407 484.49C430.116 484.269 430.357 483.767 430.133 482.983L429.898 482.164C429.508 480.807 429.914 479.941 431.116 479.566C432.41 479.162 433.292 479.782 433.764 481.427C433.987 482.201 434.101 482.952 434.108 483.677ZM432.665 477.772L426.058 479.835L425.317 477.252C424.944 475.952 425.347 475.118 426.527 474.749C427.811 474.348 428.851 474.992 429.644 476.682L428.972 477.076C428.397 475.833 427.678 475.345 426.816 475.615C426.082 475.844 425.826 476.341 426.045 477.107L426.528 478.791L432.429 476.948L432.665 477.772ZM427.543 472.535C429.327 471.978 429.996 470.923 429.55 469.37C429.114 467.85 428.004 467.368 426.221 467.926C424.462 468.475 423.8 469.51 424.236 471.03C424.682 472.582 425.784 473.084 427.543 472.535ZM427.82 473.394C425.58 474.094 424.155 473.378 423.543 471.246C422.941 469.147 423.76 467.748 425.999 467.048C428.227 466.353 429.641 467.055 430.243 469.154C430.855 471.285 430.047 472.699 427.82 473.394ZM428.922 464.724L422.315 466.787L421.535 464.071C421.188 462.86 421.542 462.089 422.599 461.759C423.458 461.491 424.264 461.884 425.017 462.94L427.504 459.781L427.816 460.867L425.426 463.821L424.867 463.996C424.317 462.841 423.658 462.384 422.888 462.625C422.278 462.815 422.07 463.249 422.264 463.926L422.785 465.743L428.686 463.9L428.922 464.724ZM419.413 456.674L420.106 456.458L420.681 458.462L426.596 456.614L426.832 457.438L420.918 459.285L421.493 461.289L420.799 461.506L419.413 456.674Z" fill="black"/>
<path id="Vector_45" opacity="0.1" d="M487.08 523.26L485.03 516.11L482.34 506.75L458.76 424.56L322.06 467.25L322.79 469.78L314 472.52L347.15 559.56L349.74 566.36C351.36 570.61 356.43 572.88 361.07 571.44L480.97 533.99C481.85 533.72 482.65 533.33 483.36 532.85C486.51 530.77 488.13 526.91 487.08 523.26Z" fill="black"/>
<g id="Group_5">
<path id="Vector_46" d="M349.88 547.16L352.18 554.06C353.62 558.38 358.59 560.86 363.29 559.61L484.67 527.29C489.37 526.04 492.01 521.53 490.57 517.21L488.27 510.31L458.84 421.94L320.45 458.79L349.88 547.16Z" fill="#B5414E"/>
<g id="Group_6">
<path id="Vector_47" d="M467.13 417L489.48 509.59L351.09 546.44L328.73 453.85L467.13 417Z" fill="#FA5A6B"/>
<path id="Vector_48" d="M489.48 509.59L491.23 516.82C492.32 521.34 489.4 526.02 484.7 527.27L363.32 559.59C358.62 560.84 353.93 558.19 352.84 553.67L351.09 546.44L489.48 509.59Z" fill="#D94E5D"/>
<g id="Group_7">
<g id="Group_8">
<path id="Vector_49" d="M399.22 515.757C415.164 507.195 421.483 487.951 413.334 472.775C405.184 457.599 385.652 452.238 369.708 460.8C353.763 469.363 347.444 488.606 355.593 503.782C363.743 518.958 383.275 524.319 399.22 515.757Z" stroke="white" stroke-miterlimit="10" stroke-linecap="round" stroke-linejoin="round"/>
<path id="Vector_50" d="M390.001 508.02C407.374 503.113 418.965 490.307 415.889 479.417C412.813 468.528 396.236 463.678 378.862 468.585C361.489 473.492 349.898 486.298 352.974 497.188C356.05 508.077 372.627 512.927 390.001 508.02Z" stroke="white" stroke-miterlimit="10" stroke-linecap="round" stroke-linejoin="round"/>
<path id="Vector_51" d="M382.33 479.41C399.77 474.77 414.87 474.97 416.06 479.87C417.24 484.77 404.06 492.51 386.62 497.15C369.18 501.79 354.08 501.59 352.89 496.69C351.71 491.79 364.89 484.05 382.33 479.41Z" stroke="white" stroke-miterlimit="10" stroke-linecap="round" stroke-linejoin="round"/>
<path id="Vector_52" d="M416.05 479.87L352.89 496.69" stroke="white" stroke-miterlimit="10" stroke-linecap="round" stroke-linejoin="round"/>
<path id="Vector_53" d="M391.198 518.865C402.742 516.327 409.092 500.588 405.382 483.709C401.672 466.831 389.306 455.205 377.762 457.743C366.219 460.28 359.869 476.02 363.579 492.898C367.289 509.777 379.655 521.402 391.198 518.865Z" stroke="white" stroke-miterlimit="10" stroke-linecap="round" stroke-linejoin="round"/>
<path id="Vector_54" d="M393.69 485.83C397.74 502.62 396.91 517.33 391.82 518.69C386.73 520.05 379.32 507.53 375.26 490.74C371.21 473.95 372.04 459.24 377.13 457.88C382.22 456.52 389.63 469.04 393.69 485.83Z" stroke="white" stroke-miterlimit="10" stroke-linecap="round" stroke-linejoin="round"/>
<path id="Vector_55" d="M391.81 518.69L377.13 457.88" stroke="white" stroke-miterlimit="10" stroke-linecap="round" stroke-linejoin="round"/>
</g>
</g>
<path id="Vector_56" d="M438.76 447.19L450.84 497.24C451.74 500.98 449.3 504.89 445.42 505.92C441.54 506.95 437.62 504.74 436.71 501L424.63 450.95C423.73 447.21 426.17 443.3 430.05 442.27C433.94 441.24 437.86 443.45 438.76 447.19Z" fill="white"/>
<path id="PASSPORT_2" d="M444.615 492.926L437.925 494.707L437.295 492.095C436.977 490.78 437.416 489.964 438.61 489.646C439.91 489.299 440.921 489.987 441.642 491.709L440.954 492.075C440.432 490.808 439.735 490.29 438.862 490.523C438.119 490.72 437.842 491.207 438.029 491.981L438.44 493.683L444.413 492.093L444.615 492.926ZM443.189 487.022L443.398 487.887L436.049 486.934L435.826 486.011L441.852 481.482L442.075 482.406L440.171 483.799L440.685 485.93L439.928 485.887L439.536 484.265L436.796 486.275L443.189 487.022ZM441.428 480.757L440.632 480.968C440.719 480.226 440.667 479.464 440.478 478.68C440.211 477.572 439.656 477.13 438.814 477.355C438.097 477.546 437.837 478.049 438.034 478.866L438.234 479.695C438.559 481.043 438.114 481.879 436.898 482.203C435.619 482.543 434.771 481.85 434.355 480.124C434.173 479.373 434.098 478.65 434.13 477.955L434.925 477.743C434.831 478.455 434.875 479.186 435.056 479.937C435.339 481.108 435.886 481.585 436.697 481.369C437.414 481.178 437.677 480.687 437.485 479.894L437.285 479.065C436.954 477.693 437.397 476.845 438.613 476.521C439.923 476.173 440.778 476.83 441.18 478.493C441.369 479.277 441.452 480.031 441.428 480.757ZM440.025 474.947L439.23 475.159C439.316 474.417 439.265 473.654 439.076 472.87C438.808 471.763 438.253 471.321 437.411 471.545C436.694 471.736 436.434 472.24 436.631 473.056L436.831 473.885C437.157 475.233 436.711 476.069 435.495 476.393C434.216 476.733 433.369 476.04 432.952 474.314C432.771 473.563 432.696 472.841 432.727 472.145L433.522 471.933C433.429 472.645 433.472 473.377 433.654 474.127C433.936 475.298 434.483 475.776 435.294 475.56C436.011 475.369 436.274 474.877 436.083 474.084L435.883 473.256C435.551 471.884 435.994 471.036 437.21 470.712C438.52 470.363 439.376 471.02 439.777 472.684C439.966 473.467 440.049 474.222 440.025 474.947ZM438.835 468.985L432.145 470.766L431.515 468.154C431.197 466.839 431.636 466.023 432.83 465.705C434.13 465.358 435.141 466.046 435.862 467.768L435.174 468.134C434.652 466.867 433.955 466.349 433.082 466.582C432.339 466.78 432.062 467.266 432.249 468.04L432.66 469.743L438.633 468.152L438.835 468.985ZM433.939 463.535C435.745 463.054 436.458 462.029 436.079 460.459C435.708 458.921 434.62 458.393 432.814 458.874C431.033 459.348 430.328 460.354 430.7 461.891C431.079 463.461 432.159 464.009 433.939 463.535ZM434.179 464.406C431.912 465.01 430.518 464.234 429.998 462.078C429.485 459.955 430.363 458.592 432.63 457.988C434.885 457.388 436.268 458.149 436.781 460.272C437.301 462.428 436.434 463.806 434.179 464.406ZM435.649 455.79L428.96 457.571L428.296 454.824C428.001 453.599 428.387 452.844 429.457 452.559C430.327 452.327 431.116 452.755 431.823 453.842L434.442 450.791L434.707 451.89L432.194 454.74L431.628 454.89C431.128 453.713 430.488 453.229 429.709 453.436C429.091 453.601 428.865 454.025 429.03 454.71L429.474 456.547L435.448 454.957L435.649 455.79ZM426.49 447.343L427.192 447.157L427.681 449.183L433.669 447.589L433.87 448.422L427.882 450.016L428.372 452.043L427.67 452.23L426.49 447.343Z" fill="#FA5A6B"/>
<path id="Vector_57" d="M449.96 446.61L460.95 492.15L455.39 493.63L444.4 448.09L449.96 446.61Z" fill="#D94E5D"/>
<path id="Vector_58" d="M461.1 450.29L469.08 483.34L463.52 484.82L455.54 451.77L461.1 450.29Z" fill="#D94E5D"/>
<path id="Vector_59" opacity="0.1" d="M351.09 546.44L350.68 544.73L487.2 500.12L489.48 509.59L351.09 546.44Z" fill="black"/>
</g>
</g>
</g>
<g id="phone">
<g id="Group_9">
<path id="Vector_60" opacity="0.1" d="M227.607 469.277L153.957 427.557C149.867 425.237 144.627 426.687 142.307 430.777L61.3474 573.707C59.0274 577.797 60.4774 583.037 64.5674 585.357L138.217 627.077C142.307 629.397 147.547 627.947 149.867 623.857L230.827 480.927C233.147 476.837 231.697 471.597 227.607 469.277Z" fill="black"/>
<g id="Group_10">
<g id="Group_11">
<path id="Vector_61" d="M130.047 617.657L58.9074 571.797C54.9574 569.247 53.8074 563.937 56.3574 559.977L145.347 421.907C147.897 417.957 153.207 416.807 157.167 419.357L228.307 465.217C232.257 467.767 233.407 473.077 230.857 477.037L141.857 615.107C139.307 619.057 133.997 620.207 130.047 617.657Z" fill="#218FA8"/>
<path id="Vector_62" d="M129.707 614.327L62.0774 570.737C58.2774 568.287 57.1674 563.177 59.6174 559.377L146.127 425.147C148.577 421.347 153.687 420.237 157.487 422.687L225.117 466.277C228.917 468.727 230.027 473.837 227.577 477.637L141.067 611.867C138.617 615.667 133.507 616.777 129.707 614.327Z" fill="#DBCDBF"/>
<g id="Group_12">
<g id="Group_13">
<g id="Group_14">
<path id="Vector_63" d="M211.147 457.277L181.187 437.957L186.517 462.597L211.147 457.277Z" fill="#E3D8CD"/>
</g>
<g id="Group_15">
<path id="Vector_64" d="M180.737 463.847L174.167 433.427L157.497 422.687C153.697 420.237 148.587 421.347 146.137 425.147L143.517 429.207C146.457 442.797 149.397 456.397 152.327 469.987L180.737 463.847Z" fill="#EDE2D7"/>
</g>
<g id="Group_16">
<path id="Vector_65" d="M138.977 436.237L111.547 478.807L146.547 471.237L138.977 436.237Z" fill="#E3D8CD"/>
</g>
<g id="Group_17">
<path id="Vector_66" d="M58.9074 560.747C57.4674 564.327 58.7174 568.567 62.0674 570.737L98.8574 594.447L113.517 591.277C110.607 577.797 107.687 564.317 104.777 550.827L58.9074 560.747Z" fill="#EDE2D7"/>
</g>
<g id="Group_18">
<path id="Vector_67" d="M133.227 544.677L110.507 549.597C110.567 549.757 110.627 549.917 110.667 550.097C113.547 563.407 116.417 576.717 119.297 590.027L141.947 585.127C139.197 571.617 136.287 558.137 133.227 544.677Z" fill="#E3D8CD"/>
</g>
<g id="Group_19">
<path id="Vector_68" d="M147.737 583.887L160.947 581.027L192.647 531.837L139.007 543.427C142.067 556.887 144.977 570.367 147.737 583.887Z" fill="#EDE2D7"/>
</g>
<g id="Group_20">
<path id="Vector_69" d="M129.707 614.327C133.507 616.777 138.617 615.667 141.067 611.867L151.887 595.087C138.897 597.897 125.907 600.707 112.917 603.507L129.707 614.327Z" fill="#EDE2D7"/>
</g>
<g id="Group_21">
<path id="Vector_70" d="M170.075 490.338L141.672 496.478L148.75 529.221L177.154 523.081L170.075 490.338Z" fill="#E3D8CD"/>
</g>
<g id="Group_22">
<path id="Vector_71" d="M94.2374 506.737L101.317 539.477L142.967 530.477C140.607 519.567 138.247 508.647 135.887 497.737L94.2374 506.737Z" fill="#EDE2D7"/>
</g>
<g id="Group_23">
<path id="Vector_72" d="M89.5374 512.947L67.7574 546.737L95.5374 540.727L89.5374 512.947Z" fill="#E3D8CD"/>
</g>
<g id="Group_24">
<path id="Vector_73" d="M175.857 489.097L182.937 521.837L201.707 517.777L227.377 477.967L175.857 489.097Z" fill="#EDE2D7"/>
</g>
</g>
</g>
<g id="Group_25">
<path id="Vector_74" opacity="0.15" d="M157.497 422.688C157.317 422.568 157.127 422.468 156.937 422.368L131.587 447.718L63.1375 553.928L179.907 437.138L157.497 422.688Z" fill="white"/>
<path id="Vector_75" opacity="0.15" d="M201.647 451.148L197.037 448.178L69.6174 575.598L74.2274 578.568C87.5174 565.278 100.817 551.988 114.107 538.698C143.287 509.518 172.467 480.328 201.647 451.148Z" fill="white"/>
<path id="Vector_76" opacity="0.15" d="M225.127 466.277L218.777 462.188L91.3574 589.608L107.857 600.247L222.357 485.747L227.577 477.648C230.027 473.848 228.927 468.727 225.127 466.277Z" fill="white"/>
<path id="Vector_77" opacity="0.15" d="M129.707 614.328C130.227 614.668 130.777 614.928 131.337 615.138H136.947C138.587 614.548 140.057 613.448 141.067 611.878L171.287 564.988L124.987 611.288L129.707 614.328Z" fill="white"/>
</g>
<path id="Vector_78" d="M199.867 449.997C195.417 447.127 191.097 454.397 186.727 451.587C182.277 448.717 187.117 441.777 182.747 438.967L199.867 449.997Z" fill="#218FA8"/>
<path id="Vector_79" d="M190.367 448.627C189.927 449.307 189.027 449.497 188.347 449.067C187.667 448.627 187.477 447.727 187.907 447.047C188.347 446.367 189.247 446.177 189.927 446.607C190.607 447.047 190.807 447.957 190.367 448.627Z" fill="#F9FBFC"/>
<path id="Vector_80" d="M189.507 448.078C189.377 448.278 189.107 448.338 188.907 448.208C188.707 448.078 188.647 447.808 188.777 447.608C188.907 447.408 189.177 447.348 189.377 447.478C189.577 447.608 189.637 447.878 189.507 448.078Z" fill="#64CCBD"/>
</g>
<g id="Group_26">
<path id="Vector_81" d="M147.577 524.887C146.947 525.757 145.807 526.207 144.707 526.147L142.237 525.997C141.197 525.937 140.417 525.217 140.007 524.317L132.497 523.757C133.807 527.627 136.907 534.367 142.357 538.597C148.277 535.057 151.987 529.047 153.757 525.357L147.577 524.887Z" fill="#FA5A6B"/>
<path id="Vector_82" d="M144.217 507.668C137.707 507.278 132.107 512.237 131.707 518.747C131.317 525.257 136.277 530.858 142.787 531.258C149.297 531.648 154.897 526.687 155.297 520.177C155.697 513.667 150.737 508.068 144.217 507.668ZM143.197 524.687C140.317 524.517 138.117 522.037 138.297 519.157C138.467 516.277 140.947 514.078 143.827 514.258C146.707 514.428 148.907 516.908 148.727 519.788C148.557 522.668 146.077 524.857 143.197 524.687Z" fill="#FA5A6B"/>
</g>
</g>
</g>
</g>
<g id="pencil">
<path id="Vector_83" d="M187.741 764.163L157.481 776.083C157.231 776.183 156.961 776.253 156.691 776.293L10.5108 796.923C5.49084 797.633 0.800852 794.103 0.0908523 789.083C-0.619148 784.063 2.91085 779.373 7.93085 778.663L154.111 758.033C154.381 757.993 154.651 757.993 154.931 758.013L187.311 761.093C188.981 761.253 189.301 763.553 187.741 764.163Z" fill="#D19A4F"/>
<path id="Vector_84" d="M187.601 763.173L156.651 770.243C156.391 770.303 156.121 770.353 155.851 770.393L9.67083 791.023C4.65083 791.733 0.340847 790.863 0.0908472 789.093C-0.159153 787.323 3.74083 785.293 8.76083 784.583L154.941 763.953C155.211 763.913 155.481 763.883 155.751 763.873L187.441 762.103C189.081 761.993 189.201 762.803 187.601 763.173Z" fill="#FCBA5F"/>
<g id="Group_27">
<path id="Vector_85" d="M33.8609 784.323C33.4309 781.243 33.1809 778.173 33.1109 775.123L7.94086 778.673C2.92086 779.383 -0.609138 784.073 0.100862 789.093C0.810862 794.113 5.50088 797.643 10.5209 796.933L35.6909 793.383C34.9109 790.423 34.2909 787.403 33.8609 784.323Z" fill="#D9F0FC"/>
</g>
<path id="Vector_86" d="M29.7508 784.903C29.3108 781.823 29.0708 778.753 29.0008 775.703L24.1808 776.383C24.2608 779.433 24.5008 782.503 24.9308 785.583C25.3608 788.663 25.9808 791.683 26.7508 794.633L31.5708 793.953C30.8008 791.003 30.1808 787.983 29.7508 784.903Z" fill="#C6DBE6"/>
<path id="Vector_87" d="M20.4609 786.213C20.0309 783.133 19.7809 780.063 19.7109 777.013L14.8909 777.693C14.9709 780.743 15.2109 783.813 15.6409 786.903C16.0709 789.983 16.6909 793.003 17.4609 795.953L22.2809 795.273C21.5109 792.313 20.8909 789.293 20.4609 786.213Z" fill="#C6DBE6"/>
<path id="Vector_88" d="M154.251 767.323C154.691 770.473 155.651 773.443 157.011 776.203C157.171 776.163 157.331 776.143 157.481 776.083L187.741 764.163C189.301 763.553 188.981 761.253 187.311 761.093L154.931 758.013C154.771 757.993 154.611 758.013 154.441 758.023C153.901 761.053 153.811 764.173 154.251 767.323Z" fill="white"/>
<g id="Group_28">
<path id="Vector_89" d="M11.1608 787.523C10.7208 784.443 10.4808 781.373 10.4108 778.323L7.93085 778.673C2.91085 779.383 -0.619148 784.073 0.0908523 789.093C0.800852 794.113 5.49084 797.643 10.5108 796.933L12.9908 796.583C12.2208 793.623 11.6008 790.603 11.1608 787.523Z" fill="#FA5A6B"/>
</g>
<path id="Vector_90" d="M187.311 761.093L179.571 760.353C179.601 761.463 179.661 762.583 179.821 763.713C179.981 764.843 180.221 765.933 180.511 767.013L187.751 764.163C189.301 763.553 188.981 761.253 187.311 761.093Z" fill="#8F333D"/>
</g>
<g id="photos">
<path id="Vector_91" opacity="0.1" d="M308.156 212.714L222.776 189.844L199.276 277.604L195.016 293.534L280.396 316.394L284.666 300.464L308.156 212.714Z" fill="black"/>
<g id="Group_29">
<path id="Vector_92" d="M307.645 208.47L223.966 180L189.395 281.609L273.074 310.08L307.645 208.47Z" fill="#D9F0FC"/>
<path id="Vector_93" d="M278.377 294.468L194.699 265.998L189.387 281.609L273.066 310.08L278.377 294.468Z" fill="#D9F0FC"/>
<path id="Vector_94" opacity="0.1" d="M273.712 308.204L190.033 279.734L189.395 281.608L273.074 310.079L273.712 308.204Z" fill="black"/>
<path id="Vector_95" opacity="0.1" d="M276.306 300.544L194.146 267.624L194.696 266.004L278.376 294.484L276.306 300.544Z" fill="black"/>
<path id="Vector_96" d="M302.156 212.23L226.004 186.32L200.094 262.473L276.246 288.383L302.156 212.23Z" fill="#FCBA5F"/>
<g id="Group_30">
<path id="Vector_97" opacity="0.1" d="M273.786 283.404L200.376 261.624L200.086 262.484L276.246 288.394L302.156 212.244L273.786 283.404Z" fill="black"/>
<path id="Vector_98" opacity="0.1" d="M302.156 212.244L226.006 186.324L200.376 261.624L227.546 190.624L302.156 212.244Z" fill="black"/>
</g>
</g>
<path id="Vector_99" opacity="0.1" d="M278.856 306.734L278.306 304.834L276.036 297.044L275.336 294.634L248.886 203.664L164.006 228.354L189.376 315.584L189.846 317.224L193.976 331.414L278.856 306.734Z" fill="black"/>
<g id="Group_31">
<path id="Vector_100" d="M233.088 198.444L151 231.219L190.798 330.896L272.886 298.121L233.088 198.444Z" fill="white"/>
<path id="Vector_101" d="M266.78 282.814L184.692 315.589L190.807 330.903L272.894 298.128L266.78 282.814Z" fill="white"/>
<path id="Vector_102" opacity="0.1" d="M272.159 296.287L190.071 329.062L190.805 330.901L272.893 298.126L272.159 296.287Z" fill="black"/>
<path id="Vector_103" opacity="0.05" d="M269.156 288.744L185.326 317.164L184.696 315.584L266.786 282.804L269.156 288.744Z" fill="black"/>
<path id="Vector_104" d="M231.378 204.866L156.673 234.693L186.501 309.398L261.205 279.571L231.378 204.866Z" fill="#30CFF3"/>
<path id="Vector_105" d="M241.236 229.524C240.146 230.694 239.326 232.084 238.846 233.594C236.626 231.944 233.636 231.444 230.876 232.544C228.896 233.334 227.406 234.814 226.536 236.584C224.506 236.234 222.356 236.414 220.306 237.234C217.126 238.504 214.826 241.044 213.736 244.024C212.756 244.034 211.766 244.214 210.796 244.604C210.006 244.924 209.286 245.344 208.656 245.854C208.616 245.734 208.596 245.614 208.556 245.494C207.366 242.504 203.976 241.054 200.986 242.244C197.996 243.434 196.546 246.824 197.736 249.814C197.816 250.014 197.926 250.184 198.026 250.374C196.886 250.094 195.646 250.134 194.476 250.604C191.646 251.734 190.226 254.834 191.086 257.694C190.276 257.754 189.456 257.944 188.656 258.254C184.436 259.944 182.376 264.734 184.066 268.954C185.756 273.174 190.546 275.234 194.766 273.544C194.896 273.494 195.016 273.434 195.136 273.374C198.186 277.464 203.706 279.174 208.676 277.194C209.236 276.974 209.766 276.694 210.266 276.394C210.306 276.514 210.326 276.644 210.376 276.764C211.566 279.754 214.956 281.204 217.946 280.014C220.936 278.824 222.386 275.434 221.196 272.444C221.146 272.324 221.076 272.224 221.026 272.114C221.836 272.054 222.646 271.864 223.436 271.554C227.656 269.864 229.716 265.074 228.026 260.854C227.786 260.264 227.486 259.714 227.136 259.214C227.716 259.084 228.296 258.914 228.876 258.684C233.346 256.894 236.086 252.634 236.146 248.104C236.426 248.024 236.706 247.934 236.986 247.824C238.816 247.094 240.246 245.774 241.126 244.174C243.036 246.284 245.696 247.554 248.506 247.724L241.236 229.524Z" fill="#B8F2FF"/>
<path id="Vector_106" d="M222.076 232.964C211.046 237.364 205.676 249.874 210.086 260.904C214.486 271.934 226.996 277.304 238.026 272.894C244.946 270.134 249.626 264.184 251.076 257.404L242.206 235.194C236.496 231.294 228.996 230.204 222.076 232.964Z" fill="#FCBA5F"/>
<path id="Vector_107" d="M254.606 263.024C251.636 259.884 246.956 258.694 242.706 260.394C238.376 262.124 235.786 266.334 235.896 270.734C234.146 270.184 232.206 270.214 230.376 270.944C230.096 271.054 229.836 271.184 229.576 271.314C226.406 268.074 221.486 266.864 217.016 268.654C216.446 268.884 215.906 269.164 215.396 269.464C215.306 268.854 215.146 268.254 214.906 267.664C213.216 263.444 208.426 261.384 204.206 263.074C203.416 263.394 202.696 263.814 202.066 264.324C202.026 264.204 202.006 264.084 201.966 263.964C200.776 260.974 197.386 259.524 194.396 260.714C191.406 261.904 189.956 265.294 191.146 268.284C191.196 268.404 191.266 268.514 191.326 268.624C190.756 268.754 190.186 268.914 189.626 269.144C184.656 271.124 181.846 276.164 182.446 281.234C182.316 281.274 182.186 281.314 182.066 281.364C179.736 282.294 178.066 284.174 177.326 286.374L181.286 296.294C183.346 297.374 185.846 297.594 188.176 296.664C188.976 296.344 189.696 295.914 190.326 295.404C191.666 298.074 194.836 299.344 197.666 298.214C198.846 297.744 199.766 296.924 200.406 295.934C200.466 296.134 200.496 296.344 200.576 296.544C201.766 299.534 205.156 300.984 208.146 299.794C211.136 298.604 212.586 295.214 211.396 292.224C211.346 292.104 211.276 292.004 211.226 291.894C212.036 291.834 212.846 291.644 213.636 291.334C214.596 290.954 215.446 290.394 216.166 289.734C219.016 291.154 222.416 291.404 225.606 290.134C227.666 289.314 229.336 287.964 230.576 286.304C232.426 286.994 234.526 287.034 236.506 286.244C239.266 285.144 241.086 282.714 241.556 279.994C244.296 281.484 247.646 281.794 250.776 280.544C255.026 278.844 257.606 274.754 257.596 270.434L254.606 263.024Z" fill="white"/>
<path id="Vector_108" d="M160.296 243.764C162.416 244.404 164.746 244.374 166.966 243.484C169.316 242.544 171.096 240.824 172.176 238.744C173.176 238.784 174.196 238.674 175.206 238.394C176.806 238.874 178.566 238.854 180.236 238.184C182.076 237.454 183.466 236.074 184.266 234.424C186.156 234.754 188.156 234.584 190.066 233.824C192.436 232.874 194.256 231.174 195.416 229.114C196.736 229.114 198.086 228.894 199.386 228.374C200.176 228.064 200.896 227.664 201.556 227.194C202.956 229.234 205.626 230.114 208.016 229.154C210.796 228.044 212.146 224.894 211.036 222.114C210.966 221.924 210.856 221.764 210.766 221.594H210.776C212.146 223.734 214.886 224.674 217.336 223.694C220.116 222.584 221.466 219.434 220.356 216.654C220.286 216.464 220.176 216.304 220.086 216.134C221.146 216.394 222.296 216.354 223.386 215.914C226.016 214.864 227.346 211.984 226.536 209.324C227.296 209.264 228.046 209.094 228.796 208.794C230.106 208.274 231.186 207.424 231.996 206.374L231.376 204.824L156.666 234.654L160.296 243.764Z" fill="#B8F2FF"/>
<g id="Group_32">
<path id="Vector_109" opacity="0.1" d="M256.096 277.374L186.166 308.554L186.506 309.394L261.216 279.564L231.376 204.854L256.096 277.374Z" fill="black"/>
<path id="Vector_110" opacity="0.1" d="M231.376 204.854L156.676 234.684L186.166 308.554L160.636 236.944L231.376 204.854Z" fill="black"/>
</g>
</g>
</g>
<g id="camera">
<path id="Vector_111" d="M384.06 19.8618L376.59 14.9718C373.02 12.6318 372.01 7.7918 374.35 4.2218L374.82 3.5018C377.16 -0.0681973 382 -1.0782 385.57 1.2618L393.04 6.1518C396.61 8.4918 397.62 13.3318 395.28 16.9018L394.81 17.6218C392.47 21.1918 387.63 22.2018 384.06 19.8618Z" fill="#A7DCE8"/>
<path id="Vector_112" d="M471.02 69.5017L462.06 63.6317C459.98 62.2717 459.4 59.4617 460.76 57.3817L462.51 54.7017C463.87 52.6217 466.68 52.0417 468.76 53.4017L477.72 59.2717C479.8 60.6317 480.38 63.4417 479.02 65.5217L477.27 68.2017C475.91 70.2717 473.09 70.8617 471.02 69.5017Z" fill="#FA5A6B"/>
<path id="Vector_113" d="M472.46 77.7518L453.91 65.6018C451.18 63.8118 450.41 60.1218 452.2 57.3918L452.41 57.0818C454.2 54.3518 457.89 53.5818 460.62 55.3718L479.17 67.5218C481.9 69.3118 482.67 73.0018 480.88 75.7318L480.67 76.0418C478.88 78.7718 475.19 79.5418 472.46 77.7518Z" fill="#A7DCE8"/>
<path id="Vector_114" d="M425.58 60.5617L402.02 45.1317C394.48 40.1917 392.35 29.9917 397.29 22.4517L398.43 20.7117C403.37 13.1717 413.57 11.0417 421.11 15.9817L444.67 31.4117C452.21 36.3517 454.34 46.5517 449.4 54.0917L448.26 55.8317C443.32 63.3717 433.11 65.5017 425.58 60.5617Z" fill="#7DA5AD"/>
<path id="Vector_115" d="M481.182 75.2184L373.879 4.95752L332.148 68.6897L439.45 138.951L481.182 75.2184Z" fill="#A7DCE8"/>
<path id="Vector_116" d="M441.56 140.372L330 67.3116L360.51 20.7116C361.49 19.2216 363.49 18.8016 364.98 19.7816L471.14 89.3016C472.63 90.2816 473.05 92.2816 472.07 93.7716L441.56 140.372Z" fill="#B8F2FF"/>
<path id="Vector_117" d="M435.78 40.772L417.24 28.632C415.54 27.522 415.06 25.222 416.17 23.522C417.28 21.822 419.58 21.342 421.28 22.452L439.82 34.592C441.52 35.702 442 38.002 440.89 39.702C439.78 41.402 437.48 41.882 435.78 40.772Z" fill="white"/>
<path id="Vector_118" d="M399.25 108.703C421.342 104.177 435.582 82.5995 431.056 60.5075C426.53 38.4155 404.953 24.1752 382.861 28.7009C360.769 33.2267 346.528 54.8046 351.054 76.8967C355.58 98.9887 377.158 113.229 399.25 108.703Z" fill="white"/>
<path id="Vector_119" d="M405.918 104.589C425.745 96.3609 435.148 73.6173 426.919 53.7901C418.691 33.9629 395.947 24.5602 376.12 32.7886C356.293 41.017 346.89 63.7606 355.119 83.5878C363.347 103.415 386.091 112.818 405.918 104.589Z" fill="#B8F2FF"/>
<path id="Vector_120" opacity="0.1" d="M393.944 104.285C413.596 102.68 428.226 85.4481 426.621 65.7966C425.016 46.1451 407.784 31.5155 388.132 33.1204C368.481 34.7253 353.851 51.9571 355.456 71.6086C357.061 91.2601 374.293 105.89 393.944 104.285Z" fill="black"/>
<path id="Vector_121" d="M398.13 100.34C415.598 96.4304 426.59 79.1006 422.68 61.6324C418.771 44.1642 401.441 33.1725 383.973 37.0818C366.505 40.9911 355.513 58.3209 359.423 75.7891C363.332 93.2572 380.662 104.249 398.13 100.34Z" fill="#30CFF3"/>
<path id="Vector_122" d="M388.06 71.3619C395.637 71.3619 401.78 65.2192 401.78 57.6419C401.78 50.0645 395.637 43.9219 388.06 43.9219C380.483 43.9219 374.34 50.0645 374.34 57.6419C374.34 65.2192 380.483 71.3619 388.06 71.3619Z" fill="#98EBFC"/>
<path id="Vector_123" opacity="0.1" d="M408.78 41.5819C393.81 31.7819 373.72 35.9619 363.92 50.9419C354.12 65.9119 358.3 86.0019 373.28 95.8019C388.25 105.602 408.34 101.422 418.14 86.4419C427.94 71.4719 423.75 51.3819 408.78 41.5819ZM376.15 84.6419C364.62 77.0919 361.39 61.6219 368.94 50.0919C376.49 38.5619 391.96 35.3319 403.49 42.8819C415.02 50.4319 418.25 65.9019 410.7 77.4319C403.15 88.9619 387.68 92.1919 376.15 84.6419Z" fill="black"/>
<path id="Vector_124" d="M463.86 79.3618L442.05 65.0818C440.25 63.9018 439.74 61.4518 440.92 59.6518C442.1 57.8518 444.55 57.3418 446.35 58.5218L468.16 72.8018C469.96 73.9818 470.47 76.4318 469.29 78.2318C468.11 80.0318 465.67 80.5418 463.86 79.3618Z" fill="#7DA5AD"/>
<path id="Vector_125" d="M467.06 76.762C466.31 77.912 464.76 78.232 463.61 77.482C462.46 76.732 462.14 75.182 462.89 74.032C463.64 72.882 465.19 72.562 466.34 73.312C467.49 74.072 467.81 75.612 467.06 76.762Z" fill="#B8F2FF"/>
<path id="Vector_126" d="M460.41 72.4119C459.66 73.5619 458.11 73.8819 456.96 73.1319C455.81 72.3819 455.49 70.8319 456.24 69.6819C456.99 68.5319 458.54 68.2119 459.69 68.9619C460.84 69.7219 461.16 71.2619 460.41 72.4119Z" fill="#B8F2FF"/>
<path id="Vector_127" d="M453.76 68.0618C453.01 69.2118 451.46 69.5318 450.31 68.7818C449.16 68.0318 448.84 66.4818 449.59 65.3318C450.34 64.1818 451.89 63.8618 453.04 64.6118C454.19 65.3618 454.52 66.9118 453.76 68.0618Z" fill="#B8F2FF"/>
<path id="Vector_128" d="M447.11 63.702C446.36 64.852 444.81 65.172 443.66 64.422C442.51 63.672 442.19 62.1219 442.94 60.9719C443.69 59.8219 445.24 59.5019 446.39 60.2519C447.55 61.0119 447.87 62.552 447.11 63.702Z" fill="#B8F2FF"/>
<path id="Vector_129" d="M429.73 115.192C431.85 111.952 436.19 111.052 439.42 113.172C442.66 115.292 443.56 119.632 441.44 122.862C439.32 126.102 434.98 127.002 431.75 124.882C428.52 122.762 427.61 118.422 429.73 115.192Z" fill="white"/>
<path id="Vector_130" d="M431.99 116.672C433.29 114.692 435.95 114.132 437.94 115.432C439.92 116.732 440.48 119.392 439.18 121.372C437.88 123.352 435.22 123.912 433.24 122.612C431.25 121.322 430.7 118.662 431.99 116.672Z" fill="#FA5A6B"/>
<path id="Vector_131" d="M456.564 96.3092L439.321 85.019L436.44 89.4196L453.682 100.71L456.564 96.3092Z" fill="white"/>
<path id="Vector_132" d="M447.5 93.552C449.24 90.892 452.86 90.182 455.59 91.962C458.31 93.742 459.11 97.352 457.36 100.012C455.62 102.672 452 103.382 449.27 101.602C446.55 99.812 445.76 96.212 447.5 93.552Z" fill="white"/>
</g>
<g id="compass">
<path id="Vector_133" opacity="0.1" d="M481.997 237.762C468.737 219.672 443.327 215.752 425.237 229.012C408.317 241.412 403.797 264.452 414.137 282.182L409.017 285.932C395.057 272.632 373.167 270.812 357.067 282.612C338.977 295.872 335.057 321.282 348.317 339.372C361.577 357.462 386.987 361.382 405.077 348.122C422.797 335.132 426.907 310.482 414.597 292.482L419.217 289.092C433.007 304.292 456.337 306.922 473.257 294.522C491.337 281.252 495.257 255.842 481.997 237.762ZM400.137 304.222C400.097 304.352 400.047 304.472 399.987 304.602C399.857 304.842 399.687 305.062 399.457 305.242L367.507 331.402C366.607 332.132 365.287 332.002 364.557 331.112L362.367 328.442C361.637 327.542 361.767 326.222 362.657 325.492L394.607 299.332C394.827 299.152 395.077 299.022 395.347 298.942C396.127 298.712 397.007 298.952 397.557 299.622L399.747 302.292C400.027 302.632 400.177 303.022 400.217 303.422C400.247 303.692 400.217 303.962 400.137 304.222Z" fill="black"/>
<g id="Group_33">
<path id="Vector_134" d="M405.445 278.447L410.222 285.562L421.248 278.16L416.471 271.045L405.445 278.447Z" fill="#BBCED9"/>
<path id="Vector_135" d="M450.41 295.001C472.825 294.196 490.343 275.373 489.538 252.958C488.733 230.543 469.909 213.025 447.494 213.83C425.079 214.635 407.561 233.459 408.366 255.874C409.172 278.289 427.995 295.807 450.41 295.001Z" fill="#D9F0FC"/>
<path id="Vector_136" opacity="0.1" d="M462.936 287.829C481.392 280.101 490.09 258.875 482.362 240.418C474.635 221.962 453.408 213.264 434.952 220.992C416.495 228.719 407.798 249.946 415.525 268.402C423.253 286.859 444.479 295.557 462.936 287.829Z" fill="black"/>
<path id="Vector_137" d="M463.96 281.805C479.085 273.514 484.625 254.532 476.334 239.407C468.043 224.283 449.06 218.743 433.936 227.034C418.811 235.325 413.271 254.307 421.562 269.432C429.853 284.557 448.836 290.096 463.96 281.805Z" fill="#30CFF3"/>
<g id="Group_34">
<path id="Vector_138" d="M461.987 274.672L445.747 256.572L448.957 254.422L452.167 252.272L462.767 274.162C462.997 274.642 462.347 275.082 461.987 274.672Z" fill="#F76A75"/>
<path id="Vector_139" d="M435.907 234.162L452.147 252.262L448.937 254.412L445.727 256.562L435.127 234.672C434.897 234.192 435.547 233.752 435.907 234.162Z" fill="#E0E2E3"/>
<path id="Vector_140" d="M433.297 264.532L447.457 252.192L448.947 254.412L450.437 256.632L433.657 265.072C433.317 265.242 433.007 264.782 433.297 264.532Z" fill="#E0E2E3"/>
<path id="Vector_141" d="M464.597 244.292L450.437 256.632L448.947 254.412L447.457 252.192L464.237 243.752C464.577 243.592 464.887 244.042 464.597 244.292Z" fill="#E0E2E3"/>
<path id="Vector_142" d="M444.747 257.232C443.187 254.912 443.807 251.772 446.127 250.212C448.447 248.652 451.587 249.272 453.147 251.592C454.707 253.912 454.087 257.052 451.767 258.612C449.447 260.172 446.307 259.552 444.747 257.232Z" fill="#F9FBFC"/>
<path id="Vector_143" d="M447.097 255.662C446.407 254.642 446.687 253.252 447.707 252.572C448.727 251.882 450.117 252.162 450.797 253.182C451.487 254.202 451.207 255.592 450.187 256.272C449.167 256.952 447.787 256.682 447.097 255.662Z" fill="#E0E2E3"/>
</g>
<path id="Vector_144" opacity="0.1" d="M479.587 260.442C482.917 243.522 471.897 227.102 454.967 223.772C438.037 220.442 421.627 231.462 418.297 248.392C414.967 265.322 425.987 281.732 442.917 285.062C459.847 288.382 476.257 277.362 479.587 260.442ZM425.877 249.532C428.667 235.322 442.457 226.072 456.667 228.862C470.877 231.652 480.127 245.442 477.337 259.652C474.547 273.862 460.757 283.112 446.547 280.322C432.337 277.532 423.087 263.742 425.877 249.532Z" fill="black"/>
<path id="Vector_145" d="M401.247 338.872C419.867 326.372 424.827 301.142 412.327 282.522C399.827 263.912 374.607 258.952 355.977 271.452C337.357 283.952 332.397 309.182 344.897 327.802C357.397 346.412 382.627 351.372 401.247 338.872ZM361.477 320.212L359.407 317.452C358.707 316.522 358.897 315.212 359.827 314.512L392.827 289.692C393.757 288.992 395.067 289.182 395.767 290.112L397.837 292.872C398.537 293.802 398.347 295.112 397.417 295.812L364.417 320.632C363.487 321.322 362.177 321.132 361.477 320.212Z" fill="#D9F0FC"/>
<path id="Vector_146" opacity="0.1" d="M398.807 335.242C415.417 324.092 419.847 301.582 408.697 284.962C397.547 268.352 375.037 263.922 358.417 275.072C341.807 286.222 337.377 308.732 348.527 325.352C359.677 341.972 382.197 346.402 398.807 335.242ZM361.477 320.212L359.407 317.452C358.707 316.522 358.897 315.212 359.827 314.512L392.827 289.692C393.757 288.992 395.067 289.182 395.767 290.112L397.837 292.872C398.537 293.802 398.347 295.112 397.417 295.812L364.417 320.632C363.487 321.322 362.177 321.132 361.477 320.212Z" fill="black"/>
<path id="Vector_147" d="M372.317 337.162C389.987 340.642 407.137 329.132 410.607 311.452C414.087 293.782 402.577 276.632 384.897 273.162C367.227 269.682 350.077 281.192 346.607 298.872C343.137 316.542 354.647 333.682 372.317 337.162ZM361.477 320.212L359.407 317.452C358.707 316.522 358.897 315.212 359.827 314.512L392.827 289.692C393.757 288.992 395.067 289.182 395.767 290.112L397.837 292.872C398.537 293.802 398.347 295.112 397.417 295.812L364.417 320.632C363.487 321.322 362.177 321.132 361.477 320.212Z" fill="#A9BBC4"/>
<path id="Vector_148" opacity="0.1" d="M401.397 290.412L399.107 287.372C397.677 285.472 394.967 285.092 393.067 286.522L356.687 313.882C354.787 315.312 354.407 318.022 355.837 319.922L358.127 322.962C358.977 324.092 360.267 324.682 361.577 324.682C362.477 324.682 363.387 324.402 364.167 323.822L400.547 296.462C401.467 295.772 402.067 294.762 402.227 293.622C402.377 292.462 402.087 291.332 401.397 290.412ZM397.407 295.812L364.407 320.632C363.477 321.332 362.167 321.142 361.467 320.212L359.397 317.452C358.697 316.522 358.887 315.212 359.817 314.512L392.817 289.692C393.747 288.992 395.057 289.182 395.757 290.112L397.827 292.872C398.527 293.802 398.337 295.112 397.407 295.812Z" fill="black"/>
<path id="Vector_149" opacity="0.1" d="M372.317 337.162C389.987 340.642 407.137 329.132 410.607 311.452C414.087 293.782 402.577 276.632 384.897 273.162C367.227 269.682 350.077 281.192 346.607 298.872C343.137 316.542 354.647 333.682 372.317 337.162ZM351.267 299.442C354.437 283.302 370.097 272.802 386.227 275.972C402.367 279.142 412.867 294.802 409.697 310.932C406.527 327.062 390.867 337.572 374.737 334.402C358.607 331.232 348.097 315.572 351.267 299.442Z" fill="black"/>
</g>
</g>
</g>
</svg>
