<?xml version="1.0" encoding="UTF-8" standalone="no"?>
<svg
   xmlns:dc="http://purl.org/dc/elements/1.1/"
   xmlns:cc="http://creativecommons.org/ns#"
   xmlns:rdf="http://www.w3.org/1999/02/22-rdf-syntax-ns#"
   xmlns:svg="http://www.w3.org/2000/svg"
   xmlns="http://www.w3.org/2000/svg"
   xmlns:sodipodi="http://sodipodi.sourceforge.net/DTD/sodipodi-0.dtd"
   xmlns:inkscape="http://www.inkscape.org/namespaces/inkscape"
   version="1.1"
   id="svg2"
   xml:space="preserve"
   width="511.58667"
   height="88.493332"
   viewBox="0 0 511.58667 88.493332"
   sodipodi:docname="ORM_logo_rgb.eps"><metadata
     id="metadata8"><rdf:RDF><cc:Work
         rdf:about=""><dc:format>image/svg+xml</dc:format><dc:type
           rdf:resource="http://purl.org/dc/dcmitype/StillImage" /></cc:Work></rdf:RDF></metadata><defs
     id="defs6" /><sodipodi:namedview
     pagecolor="#ffffff"
     bordercolor="#666666"
     borderopacity="1"
     objecttolerance="10"
     gridtolerance="10"
     guidetolerance="10"
     inkscape:pageopacity="0"
     inkscape:pageshadow="2"
     inkscape:window-width="640"
     inkscape:window-height="480"
     id="namedview4" /><g
     id="g10"
     inkscape:groupmode="layer"
     inkscape:label="ink_ext_XXXXXX"
     transform="matrix(1.3333333,0,0,-1.3333333,0,88.493333)"><g
       id="g12"
       transform="scale(0.1)"><path
         d="m 1929.99,544.051 v 105.558 h -440.4 V 16.1328 h 440.4 V 121.734 h -334.85 v 158.344 h 318.73 v 105.606 h -318.73 v 158.367 h 334.85"
         style="fill:#d51c2f;fill-opacity:1;fill-rule:nonzero;stroke:none"
         id="path14" /><path
         d="M 2256.78,16.1328 V 649.598 h 105.57 V 121.734 h 304.58 V 16.1328 h -410.15"
         style="fill:#d51c2f;fill-opacity:1;fill-rule:nonzero;stroke:none"
         id="path16" /><path
         d="M 2752.98,16.1328 V 649.598 H 2858.6 V 121.734 h 304.55 V 16.1328 h -410.17"
         style="fill:#d51c2f;fill-opacity:1;fill-rule:nonzero;stroke:none"
         id="path18" /><path
         d="m 2040.78,649.598 h 105.56 V 16.1328 H 2040.78 V 649.598"
         style="fill:#d51c2f;fill-opacity:1;fill-rule:nonzero;stroke:none"
         id="path20" /><path
         d="M 0,329.941 C 0.03125,512.176 147.699,659.867 329.949,659.902 512.195,659.867 659.844,512.176 659.902,329.941 659.844,147.723 512.195,0.046875 329.949,0 147.699,0.046875 0.03125,147.723 0,329.941 m 171.289,158.696 c -40.672,-40.817 -65.676,-96.559 -65.711,-158.696 0.035,-62.093 25.039,-117.863 65.711,-158.621 40.766,-40.687 96.531,-65.695 158.66,-65.726 62.121,0.031 117.864,25.039 158.641,65.726 40.695,40.758 65.695,96.528 65.695,158.621 0,62.137 -25,117.879 -65.695,158.696 -40.777,40.652 -96.52,65.625 -158.641,65.66 -62.129,-0.035 -117.894,-25.008 -158.66,-65.66"
         style="fill:#d51c2f;fill-opacity:1;fill-rule:nonzero;stroke:none"
         id="path22" /><path
         d="m 1251.89,287.934 c 76.19,22.824 131.76,93.261 131.8,176.89 -0.04,102.071 -82.71,184.731 -184.78,184.774 H 880.633 V 16.1328 H 986.215 V 280.059 H 1133.28 L 1292.55,16.1328 h 123.16 z m -265.675,97.738 v 158.379 h 212.695 c 43.7,-0.067 79.12,-35.473 79.18,-79.227 -0.06,-43.652 -35.48,-79.074 -79.18,-79.152 H 986.215"
         style="fill:#d51c2f;fill-opacity:1;fill-rule:nonzero;stroke:none"
         id="path24" /><path
         d="m 805.809,582.191 c 0,-42.949 -34.793,-77.761 -77.711,-77.761 -42.934,0 -77.727,34.812 -77.727,77.761 0,42.926 34.793,77.711 77.727,77.711 42.918,0 77.711,-34.785 77.711,-77.711"
         style="fill:#d51c2f;fill-opacity:1;fill-rule:nonzero;stroke:none"
         id="path26" /><path
         d="M 3633.84,649.598 H 3505.53 L 3343.05,414.414 3180.54,649.598 H 3052.23 L 3290.12,305.164 V 16.1328 h 105.62 V 304.922 l 238.1,344.676"
         style="fill:#d51c2f;fill-opacity:1;fill-rule:nonzero;stroke:none"
         id="path28" /><path
         d="m 3758.77,663.727 c -43.16,0 -78.16,-34.989 -78.16,-78.137 0,-43.125 35,-78.11 78.16,-78.11 43.1,0 78.11,34.985 78.11,78.11 0,43.148 -35.01,78.137 -78.11,78.137 m 0,-143.743 c -36.24,0 -65.64,29.395 -65.64,65.606 0,36.262 29.4,65.656 65.64,65.656 36.17,0 65.58,-29.394 65.58,-65.656 0,-36.211 -29.41,-65.606 -65.58,-65.606"
         style="fill:#d51c2f;fill-opacity:1;fill-rule:nonzero;stroke:none"
         id="path30" /><path
         d="m 3793.8,602.781 c 0,12.828 -10.33,23.211 -23.2,23.211 h -43.95 v -79.609 h 13.19 v 33.148 h 22.31 l 15.96,-33.148 h 14.77 l -16.33,33.918 c 9.95,2.609 17.25,11.668 17.25,22.48 m -53.96,9.934 h 30.76 c 5.55,0 9.94,-4.438 9.94,-9.934 0,-5.511 -4.39,-9.965 -9.94,-9.965 h -30.76 v 19.899"
         style="fill:#d51c2f;fill-opacity:1;fill-rule:nonzero;stroke:none"
         id="path32" /></g></g></svg>
