<svg width="256" height="82" viewBox="0 0 256 82" fill="none" xmlns="http://www.w3.org/2000/svg">
<path d="M4.11035 45.4754L5.94133 44.6907L28.3614 34.938L52.6125 45.4754L43.495 64.3083L21.2243 67.4471L4.48402 49.3616L4.11035 45.4754Z" fill="#133444"/>
<path d="M47.5679 33.8917C43.5697 29.0714 37.8899 25.9326 31.6871 25.1105C31.5376 25.1105 31.4255 25.0731 31.276 25.0731C29.3329 24.8489 27.3899 24.8489 25.4468 25.0731C25.2973 25.0731 25.1852 25.1105 25.0358 25.1105C18.8329 25.9326 13.1531 29.0714 9.15486 33.8917L8.14596 35.5732L6.46445 38.3757L5.23135 40.4309C5.23135 40.5056 5.19398 40.543 5.15662 40.5804V40.6177L7.84703 42.2245L25.0358 52.3883L28.3614 54.3314V30.0429L25.0358 31.5376V27.913L28.3614 26.4184L31.6871 27.913L48.5768 35.5732L47.5679 33.8917Z" fill="#C42370"/>
<path d="M53.3598 51.5289C53.3224 59.488 49.7352 66.9987 43.5697 72.0432C41.2156 73.9489 38.5626 75.4436 35.6853 76.4151C33.3312 77.1998 30.865 77.6109 28.3988 77.6109C14.5731 77.6109 3.40039 65.3172 3.40039 51.5289C3.40039 49.4737 3.66196 47.4559 4.14773 45.4754L28.3988 59.8243L52.6498 45.4754C53.0982 47.4559 53.3598 49.4737 53.3598 51.5289Z" fill="#1C4D6B"/>
<path d="M25.4468 25.0358L28.3614 26.381L25.0358 27.8757V24.8863L25.4468 25.0358Z" fill="black"/>
<path d="M25.0358 31.5376L28.3614 30.0056V54.294L25.0358 52.3509V31.5376Z" fill="black"/>
<path d="M28.3615 30.0056V54.294L51.6036 40.5804L28.3615 30.0056Z" fill="#1D4259"/>
<path d="M28.3615 2.01782V30.0056L51.6036 40.5804L28.3615 2.01782Z" fill="#4B6B9A"/>
<path d="M28.3614 30.0056V54.294L25.0358 52.3509L5.15662 40.5804C5.15662 40.5056 5.19398 40.4683 5.23135 40.4309L8.14596 35.6106L25.0358 27.9504V31.6123L28.3614 30.0056Z" fill="#343535"/>
<path d="M28.3614 30.0056V54.294L25.0358 52.3509L5.15663 40.5804H5.11926L5.15663 40.543L25.0358 31.5376L28.3614 30.0056Z" fill="#3E5578"/>
<path d="M28.3614 2.01782V30.0056L5.11926 40.5804L28.3614 2.01782Z" fill="#6DB2D8"/>
<path d="M18.9449 75.6304C19.2812 75.7799 19.6549 75.9294 19.9912 76.0788C19.6549 75.9294 19.3186 75.7799 18.9449 75.6304Z" fill="#335F8A"/>
<path d="M19.9912 76.0415C20.3275 76.1909 20.7012 76.303 21.0748 76.4151C20.7012 76.303 20.3649 76.1909 19.9912 76.0415Z" fill="#335F8A"/>
<path d="M22.009 76.7141C22.308 76.7888 22.5695 76.8635 22.8311 76.9383L22.009 76.7141Z" fill="#335F8A"/>
<path d="M4.11037 45.4754L28.3614 59.8243C28.0251 61.9916 27.4646 64.1215 26.6052 66.1766C24.6621 70.8849 20.7386 75.8173 13.1531 72.0432C6.98762 66.9987 3.4004 59.4506 3.36304 51.4915C3.36304 49.4737 3.6246 47.4559 4.11037 45.4754Z" fill="#6DB2D8"/>
<path d="M43.4949 72.0806C43.3455 72.1927 43.4949 72.0806 43.0092 72.4916L42.785 72.6411L42.4487 72.8653L42.0376 73.1642C42.4487 72.8653 41.7013 73.3884 41.5519 73.5005C41.4024 73.5753 41.2903 73.65 41.1408 73.7621L40.8792 73.9489C40.8045 73.9863 40.6924 74.061 40.6177 74.1358C40.6177 74.1358 40.5056 74.2479 40.4682 74.2479C40.6177 74.1358 40.2814 74.3226 40.1319 74.4347C39.9451 74.5094 39.7956 74.5842 39.6461 74.6963L39.123 74.9579L38.8988 75.07C38.7493 75.1447 38.8241 75.07 38.6746 75.1821C38.5251 75.2942 38.3383 75.3315 38.1515 75.4436C37.9646 75.5557 38.1515 75.4436 37.5162 75.7426C38.1515 75.4436 37.5162 75.7426 37.1799 75.892C37.5162 75.7426 36.5821 76.1162 36.171 76.2657C36.0216 76.3031 35.1995 76.5646 35.05 76.602C34.9006 76.6394 34.7137 76.7141 34.5643 76.7515C34.2653 76.8262 34.0038 76.9009 33.7422 76.9757C33.6301 77.013 33.518 77.013 33.4433 77.0504L33.2564 77.0878L32.808 77.1999C32.6586 77.2372 32.5464 77.2372 32.397 77.2746C32.2475 77.312 32.1354 77.312 32.0233 77.3493C31.9112 77.3867 31.7244 77.3867 31.6123 77.4241C31.5375 77.4241 31.4628 77.4241 31.4254 77.4614L31.1265 77.4988H30.977C30.8649 77.4988 30.7528 77.5362 30.6407 77.5362C30.5286 77.5362 30.3418 77.5735 30.1923 77.5735H26.3809C26.2315 77.5735 26.082 77.5362 25.9325 77.5362C25.8204 77.5362 25.7083 77.5362 25.5962 77.4988H25.4468C25.3347 77.4988 25.2226 77.4614 25.1478 77.4614C25.0731 77.4614 24.9984 77.4614 24.961 77.4241C24.8115 77.4241 24.6994 77.3867 24.55 77.3493C24.4379 77.3493 24.2884 77.312 24.1763 77.2746C24.0642 77.2372 23.9147 77.2372 23.7652 77.1999L23.3168 77.0878L23.13 77.0504C23.0179 77.0504 22.9058 77.013 22.8311 76.9757C22.5321 76.9009 22.2706 76.8262 22.009 76.7515L21.5232 76.602C21.3738 76.5646 21.2243 76.5273 21.0748 76.4525C20.7012 76.3404 20.3649 76.191 19.9912 76.0789C19.6175 75.9668 19.2812 75.7799 18.9449 75.6305C18.7955 75.5557 18.6086 75.481 18.4218 75.4063C18.235 75.3315 18.0481 75.2568 17.8987 75.1447C17.7118 75.07 17.5624 74.9952 17.4129 74.8831C17.2634 74.8084 17.0766 74.6963 16.9271 74.6215C16.7777 74.5468 16.6656 74.4721 16.5535 74.3974C16.1798 74.1732 15.9556 74.0237 16.1798 74.1731L15.9556 74.0237L15.5446 73.7621L15.3951 73.6874L15.0214 73.4258C14.8719 73.3137 14.7225 73.239 14.573 73.1269C14.4235 73.0148 14.2367 72.9027 14.0872 72.7906C13.9378 72.6785 13.7883 72.529 13.6762 72.4543L13.5267 72.3422C13.3773 72.2674 13.2652 72.1553 13.1531 72.0432C20.7385 75.8173 24.6247 70.8101 26.5678 66.1393C27.3898 64.0841 27.9877 61.9542 28.324 59.7869C28.6603 61.9916 29.2208 64.1588 30.0802 66.214C32.098 70.8475 35.9095 75.8173 43.4949 72.0806Z" fill="#529BBA"/>
<path d="M33.8917 76.9383C34.1907 76.8635 34.4522 76.7888 34.7138 76.7141L33.8917 76.9383Z" fill="#335F8A"/>
<path d="M35.6479 76.4151C36.0216 76.303 36.3579 76.1909 36.7316 76.0415C36.3579 76.1909 36.0216 76.303 35.6479 76.4151Z" fill="#335F8A"/>
<path d="M36.6569 76.0789C36.9932 75.9294 37.4416 75.7799 37.7779 75.5931C37.4042 75.7799 36.9932 75.9294 36.6569 76.0789Z" fill="#335F8A"/>
<path d="M53.3598 51.5289C53.3225 59.488 49.7353 66.9987 43.5697 72.0432C35.9843 75.8173 32.0608 70.8475 30.1177 66.1766C29.2956 64.1215 28.6978 61.9916 28.3615 59.8243L52.6125 45.4754C53.0983 47.4559 53.3598 49.4737 53.3598 51.5289Z" fill="#4B6B9A"/>
<path d="M80.1144 76.8635H71.8937V21.9717H80.1144V25.8578C83.3653 22.6069 87.0272 21.0002 91.1376 21.0002C96.0326 21.0002 100.068 22.7938 103.207 26.4183C106.421 30.0056 108.027 34.4896 108.027 39.9451C108.027 45.2886 106.421 49.6979 103.244 53.2477C100.255 56.6855 95.8458 58.6285 91.2871 58.5538C87.1393 58.5538 83.4027 56.8723 80.1144 53.5466V76.8635ZM99.6572 39.9451C99.6572 36.5447 98.7231 33.7796 96.8921 31.6123C95.1732 29.5198 92.5575 28.324 89.8298 28.3614C86.803 28.3614 84.3742 29.4077 82.5059 31.5002C80.6375 33.5928 79.7033 36.3579 79.7033 39.7583C79.7033 43.0839 80.6375 45.8491 82.5059 48.0164C84.3742 50.1836 86.803 51.1925 89.7924 51.1925C92.5202 51.2673 95.0985 50.0715 96.8174 47.979C98.6857 45.8491 99.6572 43.1587 99.6572 39.9451Z" fill="#6DB2D8"/>
<path d="M115.052 39.4967C114.978 34.5643 116.958 29.7814 120.545 26.381C124.095 22.8311 128.953 20.8881 133.96 20.9628C139.266 20.9628 143.75 22.7938 147.449 26.4184C151.149 30.0429 152.905 34.4896 152.905 39.7583C152.905 45.1018 151.074 49.5484 147.412 53.1356C143.75 56.7228 139.191 58.5165 133.811 58.5165C128.43 58.5165 124.02 56.6855 120.433 53.0609C116.846 49.4363 115.052 44.9149 115.052 39.4967ZM123.46 39.6462C123.46 43.1961 124.394 45.9986 126.3 48.0911C128.206 50.1837 130.821 51.2299 133.997 51.2299C137.174 51.2299 139.789 50.1837 141.695 48.1285C143.601 46.0733 144.572 43.3082 144.572 39.833C144.572 36.3579 143.601 33.6302 141.695 31.5376C139.789 29.4451 137.174 28.3988 133.997 28.3988C130.821 28.3988 128.318 29.4451 126.375 31.5376C124.432 33.6302 123.46 36.3206 123.46 39.6462Z" fill="#6DB2D8"/>
<path d="M159.407 21.9717H167.628V25.1479C169.122 23.5785 170.467 22.4948 171.626 21.897C172.934 21.2617 174.391 20.9628 175.848 21.0002C178.016 21.0002 180.258 21.7101 182.649 23.1301L178.875 30.6408C177.306 29.5198 175.811 28.9593 174.316 28.9593C169.832 28.9593 167.59 32.3223 167.59 39.0857V57.5075H159.37L159.407 21.9717Z" fill="#6DB2D8"/>
<path d="M198.082 29.6319V57.5075H189.861V29.6319H186.348V21.9717H189.861V8.93066H198.082V21.9717H204.471V29.6319H198.082Z" fill="#6DB2D8"/>
<path d="M208.806 7.17443C208.806 5.7545 209.366 4.40929 210.375 3.43775C212.468 1.34521 215.868 1.34521 217.961 3.43775C219.007 4.40929 219.567 5.79186 219.53 7.2118C219.567 8.63174 218.969 10.0143 217.961 11.0232C216.989 12.0695 215.606 12.63 214.187 12.5926C212.767 12.63 211.384 12.0321 210.375 11.0232C209.329 10.0143 208.768 8.63174 208.806 7.17443ZM218.26 21.9717V57.5075H210.039V21.9717H218.26Z" fill="#6DB2D8"/>
<path d="M249.311 28.0251L242.511 31.6497C241.427 29.445 240.119 28.3614 238.55 28.3614C237.84 28.3614 237.13 28.623 236.607 29.1087C236.084 29.5945 235.785 30.3045 235.822 31.0145C235.822 32.3597 237.391 33.7422 240.568 35.0501C244.94 36.9184 247.854 38.6373 249.349 40.2441C250.843 41.8508 251.628 43.9434 251.628 46.6338C251.703 49.9221 250.283 53.0609 247.817 55.2281C245.388 57.4328 242.212 58.5912 238.923 58.5164C232.945 58.5164 228.76 55.6018 226.256 49.81L233.281 46.559C234.253 48.2779 235 49.3616 235.523 49.81C236.495 50.7068 237.765 51.2299 239.11 51.1925C241.875 51.1925 243.258 49.9221 243.258 47.3811C243.258 45.9238 242.174 44.5412 240.044 43.3081C239.222 42.8971 238.4 42.4861 237.578 42.1124C236.756 41.7387 235.897 41.3277 235.075 40.9167C232.683 39.7583 231.002 38.5999 230.03 37.4042C228.797 35.9095 228.162 34.0038 228.162 31.6871C228.162 28.5856 229.208 26.0447 231.338 24.0269C233.468 22.009 236.308 20.9254 239.222 21.0001C243.706 20.9628 247.069 23.3169 249.311 28.0251Z" fill="#6DB2D8"/>
<path d="M239.26 71.8564H240.343V65.3919H239.26V71.8564Z" fill="black"/>
<path d="M240.343 63.4862H239.26V64.5698H240.343V63.4862Z" fill="black"/>
<path d="M189.188 63.4115C187.992 63.4115 186.759 63.8599 186.759 65.0182C186.759 66.0272 187.918 66.3261 189.263 66.5503C191.131 66.8492 192.962 67.2229 192.962 69.3154C192.962 71.408 190.944 72.0806 189.188 72.0806C187.544 72.0806 185.974 71.4827 185.265 69.9507L186.236 69.3902C186.834 70.4738 188.067 71.0343 189.225 71.0343C190.346 71.0343 191.841 70.6606 191.841 69.3154C191.841 68.1571 190.571 67.8208 189.151 67.6339C187.357 67.3724 185.638 66.9613 185.638 65.0556C185.601 63.1125 187.581 62.4399 189.188 62.4399C190.571 62.4399 191.878 62.7015 192.701 64.1214L191.841 64.6819C191.281 63.8225 190.234 63.4488 189.188 63.4115Z" fill="black"/>
<path d="M194.905 62.6268V66.4382C195.466 65.5787 196.325 65.2798 197.185 65.2798C199.016 65.2798 199.912 66.5129 199.912 68.3065V71.8937H198.829V68.3065C198.829 67.0361 198.156 66.2887 196.96 66.2887C195.765 66.2887 194.905 67.2229 194.905 68.4186V71.8937H193.822V62.6268H194.905Z" fill="black"/>
<path d="M206.638 71.8937L206.601 70.698C206.078 71.5948 205.106 72.0058 204.172 72.0058C202.304 72.0058 200.809 70.698 200.809 68.5681C200.809 66.4382 202.304 65.1677 204.172 65.2051C205.144 65.2051 206.115 65.6535 206.601 66.5129V65.3172H207.647V71.8563L206.638 71.8937ZM204.247 66.2513C202.939 66.2513 201.893 67.1855 201.893 68.6428C201.893 70.1001 202.939 71.0343 204.247 71.0343C207.386 71.0343 207.386 66.2513 204.247 66.2513Z" fill="black"/>
<path d="M208.694 65.3546H209.74L209.777 66.625C210.3 65.7656 211.272 65.2425 212.281 65.2425C214.149 65.2798 215.532 66.625 215.532 68.6055C215.532 70.6606 214.149 72.0058 212.206 72.0058C211.272 72.0058 210.263 71.5948 209.74 70.698V74.9578H208.694V65.3546ZM214.485 68.6428C214.485 67.1855 213.514 66.2887 212.169 66.2887C210.786 66.2887 209.889 67.2976 209.889 68.6428C209.889 69.988 210.861 70.9969 212.169 70.9969C213.477 70.9969 214.485 70.1001 214.485 68.6428Z" fill="black"/>
<path d="M222.519 70.8101C221.847 71.5948 220.726 71.9685 219.679 71.9685C217.662 71.9685 216.242 70.6232 216.242 68.5681C216.242 66.5876 217.662 65.1677 219.642 65.1677C221.66 65.1677 223.155 66.4008 222.93 69.0165H217.363C217.475 70.2122 218.484 70.9595 219.717 70.9595C220.464 70.9595 221.361 70.6606 221.809 70.1375L222.519 70.8101ZM221.884 68.1197C221.847 66.8492 220.95 66.1766 219.679 66.1766C218.558 66.1766 217.55 66.8492 217.363 68.1197H221.884Z" fill="black"/>
<path d="M227.489 63.4115C226.293 63.4115 225.06 63.8599 225.06 65.0182C225.06 66.0272 226.219 66.3261 227.564 66.5503C229.432 66.8492 231.263 67.2229 231.263 69.3154C231.263 71.408 229.245 72.0806 227.489 72.0806C225.845 72.0806 224.276 71.4827 223.566 69.9507L224.537 69.3902C225.135 70.4738 226.368 71.0343 227.526 71.0343C228.647 71.0343 230.142 70.6606 230.142 69.3154C230.142 68.1571 228.872 67.8208 227.452 67.6339C225.658 67.3724 223.939 66.9613 223.939 65.0556C223.902 63.1125 225.882 62.4399 227.489 62.4399C228.872 62.4399 230.179 62.7015 231.002 64.1214L230.142 64.6819C229.582 63.8225 228.498 63.4488 227.489 63.4115Z" fill="black"/>
<path d="M233.169 62.5894V66.4008C233.729 65.5414 234.589 65.2425 235.448 65.2425C237.279 65.2425 238.176 66.4756 238.176 68.2692V71.8564H237.092V68.2692C237.092 66.9987 236.42 66.2514 235.224 66.2514C234.028 66.2514 233.169 67.1855 233.169 68.3813V71.8564H232.085V62.5894H233.169Z" fill="black"/>
<path d="M243.706 64.8688C243.706 63.8972 244.155 63.4488 244.865 63.4488H244.902L245.164 62.5147C245.051 62.5147 244.939 62.4773 244.865 62.4773C243.482 62.4773 242.66 63.3367 242.66 64.8314V65.3545H241.39V66.3261H242.66V71.8564H243.744V66.3261H245.051V65.3919H243.744V64.8688H243.706Z" fill="black"/>
<path d="M249.236 70.9596C249.162 70.9596 249.05 70.9969 248.975 70.9969C248.19 70.9969 247.929 70.5112 247.929 69.7265V66.3635H249.311V65.3919H247.929V63.4115L246.845 63.5236V65.3919H245.537V66.3261H246.845V69.6891C246.845 71.1464 247.518 71.9685 248.9 71.9311C249.087 71.9311 249.236 71.8937 249.423 71.8564L249.236 70.9596Z" fill="black"/>
<path d="M172.635 67.1108C173.008 66.9613 173.307 66.7371 173.569 66.4382C173.905 66.0645 174.055 65.5788 174.055 65.0556C174.055 64.5699 173.942 64.1588 173.756 63.8225C173.569 63.4862 173.307 63.2246 173.008 63.0378C172.709 62.851 172.373 62.7015 171.999 62.6268C171.626 62.552 171.252 62.5147 170.878 62.5147H167.926V72.23H170.841C171.402 72.23 171.887 72.1553 172.336 72.0432C172.784 71.9311 173.158 71.7443 173.494 71.4827C173.793 71.2585 174.055 70.9596 174.241 70.6233C174.428 70.287 174.503 69.9133 174.503 69.5023C174.503 68.7923 174.279 68.1944 173.868 67.7834C173.494 67.4471 173.083 67.2229 172.635 67.1108ZM172.709 65.8777C172.597 66.0645 172.448 66.2514 172.261 66.3635C172.074 66.4756 171.85 66.5877 171.626 66.625C171.401 66.6624 171.177 66.6998 170.953 66.6998H169.122V63.561H170.692C170.99 63.561 171.289 63.5983 171.551 63.6357C171.813 63.6731 172.037 63.7851 172.224 63.8972C172.41 64.0094 172.56 64.1962 172.672 64.383C172.784 64.5699 172.821 64.8314 172.821 65.093C172.859 65.4293 172.784 65.6909 172.709 65.8777ZM169.085 67.7087H170.953C171.7 67.7087 172.298 67.8581 172.709 68.1571C173.12 68.456 173.307 68.867 173.307 69.4649C173.307 69.7638 173.232 70.0628 173.12 70.2496C172.971 70.4738 172.821 70.6606 172.597 70.8101C172.373 70.9596 172.111 71.0717 171.813 71.109C171.514 71.1838 171.177 71.2211 170.841 71.2211H169.16V67.7087H169.085Z" fill="black"/>
<path d="M180.594 65.7656L178.688 70.9222L176.595 65.7656H175.362L178.09 72.1553L177.604 73.4258C177.492 73.7621 177.305 74.0236 177.156 74.2105C177.006 74.3973 176.782 74.472 176.483 74.472C176.259 74.472 176.035 74.4347 175.848 74.3599L175.736 74.3226L175.624 75.3688H175.699C175.96 75.4062 176.259 75.4436 176.521 75.4436C177.081 75.4436 177.53 75.2941 177.866 74.9952C178.165 74.6962 178.426 74.2852 178.613 73.7994L181.789 65.7656H180.594Z" fill="black"/>
</svg>
