<?xml version="1.0" standalone="no"?>
<!DOCTYPE svg PUBLIC "-//W3C//DTD SVG 20010904//EN"
 "http://www.w3.org/TR/2001/REC-SVG-20010904/DTD/svg10.dtd">
<svg version="1.0" xmlns="http://www.w3.org/2000/svg"
 width="530.000000pt" height="140.000000pt" viewBox="0 0 530.000000 140.000000"
 preserveAspectRatio="xMidYMid meet">

<g transform="translate(0.000000,140.000000) scale(0.100000,-0.100000)"
fill="#000000" stroke="none">
<path d="M0 700 l0 -700 2650 0 2650 0 0 700 0 700 -2650 0 -2650 0 0 -700z
m768 490 c9 -16 24 -30 32 -30 27 -1 96 -37 134 -71 76 -66 109 -143 108 -250
-1 -65 0 -69 24 -75 13 -3 33 -18 44 -31 18 -23 20 -41 20 -157 1 -99 4 -136
15 -150 35 -46 6 -106 -51 -106 -54 0 -83 61 -49 106 20 26 21 164 1 164 -10
0 -16 -20 -21 -72 -8 -83 -31 -134 -75 -172 l-32 -26 -190 0 c-174 0 -193 2
-224 20 -43 27 -71 89 -80 178 -5 51 -11 72 -20 72 -21 0 -20 -153 1 -170 19
-16 19 -50 -1 -78 -18 -27 -69 -30 -96 -5 -22 20 -24 76 -3 93 12 10 15 39 15
145 0 119 2 135 21 159 12 16 30 26 46 26 25 0 25 2 20 48 -11 99 24 201 95
271 34 35 120 81 151 81 9 0 17 6 17 14 0 23 29 46 56 46 17 0 30 -9 42 -30z
m1072 -234 c0 -2 -7 -20 -15 -39 -8 -20 -15 -57 -15 -83 0 -43 -1 -46 -22 -39
-71 22 -139 35 -181 35 -73 0 -60 -26 30 -63 40 -16 93 -47 118 -69 43 -38 47
-39 64 -24 23 21 31 20 31 -1 0 -74 -59 -156 -138 -194 -40 -20 -63 -23 -167
-24 l-121 -1 -26 71 c-13 38 -29 79 -33 89 -7 17 -6 18 11 11 83 -36 294 -61
294 -36 0 14 -8 18 -96 41 -100 27 -152 60 -171 110 -10 25 -20 37 -29 33 -41
-15 13 67 68 105 59 41 137 62 260 71 57 5 111 9 121 10 9 0 17 -1 17 -3z
m370 -27 c-12 -21 -11 -22 23 -16 l34 5 22 -74 c12 -41 26 -86 31 -100 10 -26
11 -26 36 -9 31 20 37 15 58 -52 18 -54 15 -73 -9 -73 -27 0 -24 -19 10 -70
41 -60 41 -60 17 -60 -15 0 -70 -13 -147 -35 -19 -6 -21 -1 -23 45 -3 66 -7
72 -45 65 -18 -4 -52 -2 -77 4 -24 5 -46 8 -48 7 -1 -2 -5 -27 -9 -55 -6 -51
-7 -52 -32 -44 -14 4 -63 8 -109 8 -45 0 -82 3 -82 6 0 4 7 12 15 19 8 7 36
43 61 81 37 56 43 72 35 88 -17 31 -13 42 12 36 18 -4 27 4 55 51 17 30 32 59
32 64 0 4 -12 28 -26 53 l-25 46 65 -6 c60 -5 67 -4 97 21 36 30 46 28 29 -5z
m754 14 c-4 -10 -12 -50 -18 -88 l-11 -71 -48 18 c-52 20 -183 32 -191 19 -8
-12 23 -36 74 -55 56 -22 105 -51 136 -83 23 -23 26 -24 49 -9 32 21 35 21 35
-11 -1 -68 -70 -157 -149 -191 -52 -22 -281 -24 -281 -2 0 8 -14 46 -30 84
-16 38 -29 71 -27 72 1 1 29 -7 62 -18 71 -24 245 -38 245 -19 0 13 -32 27
-97 41 -60 14 -138 54 -157 82 -9 12 -16 33 -16 45 0 20 -4 22 -25 17 -32 -8
-31 -1 2 45 65 90 138 114 442 140 9 1 11 -4 5 -16z m524 -19 c28 -4 52 -10
52 -13 -1 -3 -9 -31 -20 -61 -28 -80 -27 -97 8 -93 l27 4 0 -85 1 -86 -29 0
c-31 0 -32 -2 -12 -82 6 -25 5 -25 -71 -31 -43 -3 -82 -4 -86 -1 -4 3 -8 36
-8 73 l0 68 -41 12 c-23 7 -47 15 -55 18 -10 4 -14 -14 -16 -82 l-3 -87 -95 1
c-52 0 -94 4 -93 8 1 4 11 45 22 90 22 86 27 212 11 293 -4 25 -7 46 -5 48 2
2 39 -2 84 -8 l81 -12 0 -94 c0 -104 -3 -100 72 -88 34 6 36 9 43 53 3 25 11
75 17 109 10 62 11 64 37 58 14 -3 50 -9 79 -12z m326 -1 c-4 -10 -9 -112 -10
-228 l-3 -210 -23 -1 c-13 0 -48 -3 -78 -5 l-55 -4 5 45 c3 25 5 118 4 207 l0
162 50 12 c28 6 62 18 76 25 34 18 44 17 34 -3z m430 -18 c64 -32 90 -64 107
-132 6 -23 17 -44 25 -47 20 -8 17 -53 -7 -103 -26 -54 -94 -112 -157 -135
-58 -21 -83 -22 -151 -4 -38 10 -63 11 -88 4 -20 -5 -39 -6 -43 -1 -5 4 0 40
9 78 10 39 21 104 25 144 7 68 6 73 -13 78 -12 3 -22 8 -22 12 -1 3 -3 19 -5
35 -2 16 -9 43 -15 59 -18 43 -2 48 146 45 122 -3 134 -5 189 -33z m601 7 c6
-4 10 -14 10 -22 0 -7 18 -23 39 -35 61 -31 96 -87 96 -151 0 -115 -56 -184
-178 -219 -115 -33 -208 -30 -199 6 4 15 -4 23 -36 38 -61 27 -96 68 -103 122
-16 119 69 217 221 255 57 14 135 17 150 6z m-3315 -617 c0 -20 5 -25 24 -25
25 0 36 -21 36 -72 0 -21 -5 -28 -20 -28 -16 0 -20 7 -20 34 0 19 -4 38 -10
41 -6 4 -10 -10 -10 -34 0 -32 -4 -41 -17 -41 -16 0 -18 9 -15 75 3 57 7 75
18 75 8 0 14 -10 14 -25z m812 -47 c3 -40 3 -75 2 -77 -2 -2 -10 -1 -19 2 -21
9 -22 147 -1 147 10 0 15 -20 18 -72z m548 13 c0 -33 5 -63 10 -66 18 -11 10
-26 -12 -23 -21 3 -23 10 -26 62 -3 63 1 86 18 86 6 0 10 -25 10 -59z m360
-16 l0 -75 -33 0 c-38 0 -57 15 -57 46 0 38 11 54 36 54 17 0 24 6 24 18 0 10
3 22 7 25 17 18 23 1 23 -68z m492 3 c3 -40 3 -75 2 -77 -2 -2 -10 -1 -19 2
-21 9 -22 147 -1 147 10 0 15 -20 18 -72z m53 52 c0 -7 -6 -15 -12 -17 -8 -3
-13 4 -13 17 0 13 5 20 13 18 6 -3 12 -11 12 -18z m350 0 c0 -7 -6 -15 -12
-17 -8 -3 -13 4 -13 17 0 13 5 20 13 18 6 -3 12 -11 12 -18z m755 -17 c0 -29
3 -34 12 -25 7 7 21 12 32 12 18 0 18 -1 1 -20 -16 -18 -17 -21 -1 -44 9 -14
16 -28 16 -31 0 -12 -34 -3 -46 13 -13 16 -13 16 -14 0 0 -10 -7 -18 -15 -18
-12 0 -15 15 -15 75 0 60 3 75 15 75 11 0 15 -11 15 -37z m-3036 21 c26 -10
20 -35 -7 -29 -29 8 -50 -15 -45 -47 2 -18 10 -24 36 -26 20 -2 32 -9 32 -18
0 -12 -10 -14 -42 -12 -36 2 -45 8 -56 31 -17 35 -4 77 29 94 28 15 32 15 53
7z m975 -10 c9 -8 -13 -24 -29 -19 -17 5 -50 -17 -50 -35 0 -27 15 -40 46 -40
24 0 34 -5 34 -15 0 -21 -73 -20 -94 1 -19 19 -21 74 -3 96 18 24 75 31 96 12z
m1710 0 c10 -8 -13 -24 -29 -19 -32 10 -31 -12 1 -25 26 -11 30 -17 27 -44 -3
-29 -6 -31 -45 -34 -35 -3 -43 0 -43 14 0 12 6 15 25 12 37 -8 40 9 5 27 -38
19 -42 61 -7 75 19 7 54 5 66 -6z m-3069 -3 c0 -5 -9 -11 -20 -14 -17 -4 -20
-14 -20 -56 0 -38 -4 -51 -14 -51 -11 0 -16 15 -18 53 -2 37 -7 52 -17 52 -8
0 -16 6 -18 13 -4 9 11 12 51 12 31 0 56 -4 56 -9z m1040 -6 c0 -8 7 -15 15
-15 8 0 15 -7 15 -15 0 -8 -7 -15 -16 -15 -10 0 -14 -7 -12 -22 2 -13 9 -22
16 -20 6 1 12 -5 12 -13 0 -10 -10 -15 -30 -15 l-30 0 0 65 c0 51 3 65 15 65
8 0 15 -7 15 -15z m899 -27 c33 -77 35 -88 12 -88 -12 0 -21 7 -21 15 0 9 -9
15 -25 15 -14 0 -28 -7 -31 -15 -7 -16 -34 -21 -34 -5 0 5 9 34 21 65 26 71
52 75 78 13z m641 27 c0 -8 9 -15 20 -15 11 0 20 -5 20 -11 0 -6 -9 -13 -20
-16 -11 -3 -20 -14 -20 -25 0 -11 9 -22 20 -25 32 -9 23 -25 -12 -21 -33 3
-33 3 -36 66 -2 51 0 62 13 62 8 0 15 -7 15 -15z m550 0 c0 -8 7 -15 15 -15 8
0 15 -5 15 -10 0 -6 -7 -13 -15 -16 -8 -4 -15 -15 -15 -25 0 -11 7 -22 15 -25
25 -10 17 -26 -12 -22 -26 3 -28 7 -33 61 -3 32 -3 60 -1 63 10 10 31 3 31
-11z m-3750 -10 c0 -8 -15 -31 -33 -51 -57 -62 -156 -58 -212 8 -46 55 -40 58
110 58 114 0 135 -2 135 -15z m824 -11 c9 -3 16 -17 16 -30 0 -20 -5 -24 -32
-24 -34 0 -31 -12 4 -15 37 -3 33 -25 -4 -25 -41 0 -58 15 -58 50 0 42 31 61
74 44z m308 -19 c17 -37 -3 -75 -40 -75 -35 0 -52 16 -52 50 0 34 17 50 52 50
21 0 32 -7 40 -25z m166 -27 c2 -38 0 -48 -12 -48 -12 0 -16 10 -16 35 0 19
-4 35 -10 35 -5 0 -10 -16 -10 -35 0 -46 -27 -49 -32 -3 -4 46 -28 49 -28 4 0
-25 -4 -36 -15 -36 -11 0 -15 12 -15 50 l0 51 68 -3 67 -3 3 -47z m110 40 c27
-27 10 -88 -24 -88 -17 0 -24 -6 -24 -20 0 -11 -7 -20 -15 -20 -12 0 -15 14
-15 70 l0 70 33 0 c18 0 38 -5 45 -12z m190 -20 c3 -25 0 -28 -29 -28 -35 0
-33 -12 2 -14 38 -2 35 -26 -3 -26 -41 0 -58 15 -58 50 0 35 19 52 55 48 24
-2 31 -8 33 -30z m186 26 c9 -3 16 -17 16 -30 0 -20 -5 -24 -32 -24 -34 0 -31
-12 4 -15 37 -3 33 -25 -4 -25 -41 0 -58 15 -58 50 0 42 31 61 74 44z m364 -6
c7 -7 12 -24 12 -38 0 -34 -17 -50 -52 -50 -37 0 -57 38 -40 75 13 27 58 35
80 13z m64 -25 c2 -21 8 -38 13 -38 6 0 11 17 13 38 2 24 8 37 18 37 10 0 14
-13 14 -50 l0 -50 -39 0 c-43 0 -51 10 -51 66 0 49 28 46 32 -3z m476 25 c27
-27 10 -88 -24 -88 -17 0 -24 -6 -24 -20 0 -11 -7 -20 -15 -20 -12 0 -15 14
-15 70 l0 70 33 0 c18 0 38 -5 45 -12z m120 0 c27 -27 11 -88 -23 -88 -14 0
-25 -7 -28 -20 -11 -41 -25 -18 -29 46 -1 36 -1 68 1 70 9 9 68 3 79 -8z m132
-38 c0 -38 -4 -50 -15 -50 -11 0 -15 12 -15 50 0 38 4 50 15 50 11 0 15 -12
15 -50z m100 41 c0 -5 -9 -13 -21 -16 -26 -8 -23 -51 4 -49 9 1 17 -4 17 -12
0 -9 -11 -14 -30 -14 -39 0 -59 37 -42 75 9 19 19 25 42 25 16 0 30 -4 30 -9z
m98 -43 l3 -48 -40 0 c-37 0 -41 2 -41 26 0 17 6 28 20 31 26 7 26 23 -1 23
-12 0 -17 4 -14 11 4 5 21 9 38 7 30 -3 32 -5 35 -50z m152 2 c0 -38 -4 -50
-15 -50 -11 0 -15 12 -15 50 0 38 4 50 15 50 11 0 15 -12 15 -50z m108 38 c7
-7 12 -22 12 -34 0 -42 -11 -54 -46 -54 -43 0 -64 35 -46 75 13 27 58 35 80
13z m122 -7 c5 -11 10 -33 10 -50 0 -24 -4 -31 -20 -31 -16 0 -20 7 -20 34 0
19 -4 38 -10 41 -6 4 -10 -10 -10 -34 0 -32 -4 -41 -17 -41 -15 0 -17 8 -15
50 4 49 4 50 38 50 23 0 37 -6 44 -19z m361 -34 l5 -48 -40 3 c-34 3 -42 7
-44 26 -3 17 2 25 17 29 27 7 27 23 0 23 -12 0 -17 4 -14 11 4 5 21 9 38 7 30
-3 32 -6 38 -51z m109 44 c0 -5 -11 -12 -25 -15 -25 -6 -37 -45 -15 -47 6 -1
15 -2 22 -3 26 -3 19 -26 -9 -26 -36 0 -53 16 -53 50 0 14 5 31 12 38 14 14
68 16 68 3z m163 -76 c1 -5 -6 -11 -15 -13 -11 -2 -18 3 -18 13 0 17 30 18 33
0z"/>
<path d="M690 1097 c-3 -3 -20 -7 -37 -10 -76 -12 -165 -98 -181 -176 -14 -64
-5 -109 25 -128 21 -14 34 -15 86 -6 66 12 219 11 303 -2 45 -7 54 -5 73 14
23 23 28 81 11 142 -14 49 -73 115 -125 139 -42 19 -145 37 -155 27z m-62
-159 c7 -7 12 -28 12 -48 0 -57 -34 -77 -72 -43 -34 30 -16 103 25 103 13 0
28 -5 35 -12z m260 0 c35 -35 -3 -117 -48 -103 -37 12 -48 86 -16 107 17 12
51 9 64 -4z"/>
<path d="M700 665 c-18 -22 -8 -50 19 -50 32 0 49 28 32 49 -17 20 -35 20 -51
1z"/>
<path d="M615 650 c-4 -7 -3 -16 3 -22 14 -14 45 -2 40 15 -6 16 -34 21 -43 7z"/>
<path d="M795 650 c-4 -7 -3 -16 3 -22 14 -14 45 -2 40 15 -6 16 -34 21 -43 7z"/>
<path d="M2135 737 c-9 -32 -15 -61 -12 -63 3 -3 23 -4 46 -2 l41 3 -29 60
-28 60 -18 -58z"/>
<path d="M4093 802 c-5 -11 -6 -76 -3 -144 l5 -123 25 3 c40 4 93 54 111 103
9 24 19 52 23 61 4 9 6 25 4 34 -4 25 -76 72 -120 80 -32 5 -39 3 -45 -14z"/>
<path d="M4800 801 c-9 -18 -17 -20 -48 -15 -106 17 -192 -89 -138 -169 24
-35 56 -48 56 -23 0 12 11 15 48 14 26 -1 63 5 83 14 68 30 87 128 34 178
l-23 22 -12 -21z"/>
<path d="M3190 221 c0 -10 7 -21 15 -25 11 -4 15 1 15 19 0 16 -6 25 -15 25
-8 0 -15 -9 -15 -19z"/>
<path d="M3375 247 c-4 -10 -5 -21 -1 -24 10 -10 18 4 13 24 -4 17 -4 17 -12
0z"/>
<path d="M1645 240 c-3 -5 1 -10 10 -10 9 0 13 5 10 10 -3 6 -8 10 -10 10 -2
0 -7 -4 -10 -10z"/>
<path d="M1930 220 c0 -11 7 -20 15 -20 8 0 15 9 15 20 0 11 -7 20 -15 20 -8
0 -15 -9 -15 -20z"/>
<path d="M2220 225 c0 -16 6 -25 15 -25 8 0 15 9 15 19 0 10 -7 21 -15 25 -11
4 -15 -1 -15 -19z"/>
<path d="M2405 240 c-3 -5 1 -10 10 -10 9 0 13 5 10 10 -3 6 -8 10 -10 10 -2
0 -7 -4 -10 -10z"/>
<path d="M2605 240 c-3 -5 1 -10 10 -10 9 0 13 5 10 10 -3 6 -8 10 -10 10 -2
0 -7 -4 -10 -10z"/>
<path d="M2960 220 c0 -11 7 -20 15 -20 8 0 15 9 15 20 0 11 -7 20 -15 20 -8
0 -15 -9 -15 -20z"/>
<path d="M3500 225 c0 -16 6 -25 15 -25 8 0 15 9 15 19 0 10 -7 21 -15 25 -11
4 -15 -1 -15 -19z"/>
<path d="M3620 220 c0 -11 7 -20 15 -20 8 0 15 9 15 20 0 11 -7 20 -15 20 -8
0 -15 -9 -15 -20z"/>
<path d="M3950 200 c0 -5 5 -10 10 -10 6 0 10 5 10 10 0 6 -4 10 -10 10 -5 0
-10 -4 -10 -10z"/>
<path d="M4210 220 c0 -11 7 -20 15 -20 8 0 15 9 15 20 0 11 -7 20 -15 20 -8
0 -15 -9 -15 -20z"/>
<path d="M4690 200 c0 -5 5 -10 10 -10 6 0 10 5 10 10 0 6 -4 10 -10 10 -5 0
-10 -4 -10 -10z"/>
</g>
</svg>
