<svg width="1440" height="8158" viewBox="0 0 1440 8158" fill="none" xmlns="http://www.w3.org/2000/svg">
<g clip-path="url(#clip0)">
<path d="M794 438.376C914 114.199 1273.33 11.0515 1438 0L1440 2114.52C1274 2187.58 886 2258.19 662 1956.11C438 1654.04 126 1767.62 -2 1862.18V932.009C92 405.221 644 843.597 794 438.376Z" fill="#FF6661"/>
<path d="M0 4025C153.943 4147.13 369.464 4549.31 0 5181V4025Z" fill="#C6E3F1" stroke="white"/>
<path d="M-4.13745 2194.86C92.4065 2150.85 406.979 2166.05 892.917 2578.88C978.734 2673.55 1208.29 2838.09 1440 2738.89V3766.95C966.664 3425.06 88.2899 3096 2.54907 4196.24L3.90796 4603C-6.72559 4449.67 -6.68054 4314.68 2.54907 4196.24L-4.13745 2194.86Z" fill="#D6ECE1"/>
<path d="M-1118.42 3510.93L-1577 3454.93L-1524.71 3414.93H-1235.07L-1118.42 3510.93Z" fill="#D6ECE1"/>
<path d="M1271.23 4836.38C1383.1 4635.7 1430.36 4247.84 1440 4079V5560C1317.85 5527.84 1075.46 5424.93 1083.18 5270.55C1092.82 5077.59 1131.4 5087.24 1271.23 4836.38Z" fill="#FCBA5F"/>
<path d="M803.601 5973.2C627.761 5599.61 101.221 5480.74 -140.069 5468L-143 7904.84C100.244 7989.04 668.791 8070.41 997.024 7722.29C1325.26 7374.17 1782.44 7505.07 1970 7614.03V6542.08C1832.26 5934.99 1023.4 6440.19 803.601 5973.2Z" fill="#DCC5F1"/>
</g>
<defs>
<clipPath id="clip0">
<rect width="1440" height="8158" fill="white"/>
</clipPath>
</defs>
</svg>
