<svg width="1440" height="8158" viewBox="0 0 1440 8158" fill="none" xmlns="http://www.w3.org/2000/svg">
<g clip-path="url(#clip0)">
<path d="M794 438.376C914 114.199 1273.33 11.0515 1438 0L1440 2114.52C1274 2187.58 886 2258.19 662 1956.11C438 1654.04 126 1767.62 -2 1862.18V932.009C92 405.221 644 843.597 794 438.376Z" fill="#FF6661"/>
<path d="M0 4502C153.943 4624.13 369.464 5026.31 0 5658V4502Z" fill="#C6E3F1" stroke="white"/>
<path d="M64.8625 2267.86C161.406 2223.85 475.979 2239.05 961.917 2651.88C1047.73 2746.55 1277.29 2911.09 1509 2811.89V3839.95C1035.66 3498.06 157.29 3169 71.5491 4269.24L72.908 4676C62.2744 4522.67 62.3195 4387.68 71.5491 4269.24L64.8625 2267.86Z" fill="#D6ECE1"/>
<path d="M-1049.42 3583.93L-1508 3527.93L-1455.71 3487.93H-1166.07L-1049.42 3583.93Z" fill="#D6ECE1"/>
<path d="M1243.82 5466.63C1373.86 5233.29 1428.79 4782.32 1440 4586V6308C1298 6270.61 1016.24 6150.94 1025.21 5971.45C1036.42 5747.09 1081.26 5758.31 1243.82 5466.63Z" fill="#FCBA5F"/>
<path d="M829.601 6635.2C653.761 6261.61 127.221 6142.74 -114.069 6130L-117 8566.84C126.244 8651.04 694.791 8732.41 1023.02 8384.29C1351.26 8036.17 1808.44 8167.07 1996 8276.03V7204.08C1858.26 6596.99 1049.4 7102.19 829.601 6635.2Z" fill="#DCC5F1"/>
</g>
<defs>
<clipPath id="clip0">
<rect width="1440" height="8158" fill="white"/>
</clipPath>
</defs>
</svg>
