<svg width="49" height="50" viewBox="0 0 49 50" fill="none" xmlns="http://www.w3.org/2000/svg">
<path d="M36.2954 37.1444C42.9772 30.4626 42.9772 19.6292 36.2954 12.9474C29.6136 6.26561 18.7803 6.26561 12.0985 12.9474C5.41667 19.6292 5.41667 30.4626 12.0985 37.1444C18.7803 43.8262 29.6136 43.8262 36.2954 37.1444Z" fill="white"/>
<path d="M36.772 24.3855L33.262 33.7955C32.762 35.1355 31.272 35.8155 29.922 35.3155L13.152 29.0555C11.812 28.5555 11.132 27.0655 11.632 25.7255L15.142 16.3155C15.262 15.9955 15.432 15.7155 15.652 15.4855C15.882 15.2255 16.182 15.0055 16.502 14.8655C17.102 14.5955 17.802 14.5555 18.472 14.8055L35.242 21.0655C35.922 21.3155 36.412 21.8055 36.702 22.4055C36.842 22.7255 36.922 23.0755 36.932 23.4355C36.942 23.7355 36.892 24.0655 36.772 24.3855Z" fill="#DCC5F1"/>
<path d="M36.702 22.3957L25.662 24.5257C24.822 24.6857 23.972 24.3657 23.452 23.6957L16.512 14.8457C16.192 14.9857 15.892 15.2057 15.662 15.4657L22.622 24.3357C23.012 24.8257 23.512 25.1957 24.062 25.4057C24.622 25.6157 25.242 25.6757 25.862 25.5457L36.932 23.4057C36.922 23.0657 36.842 22.7057 36.702 22.3957Z" fill="white"/>
</svg>
