<svg width="1440" height="8158" viewBox="0 0 1440 8158" fill="none" xmlns="http://www.w3.org/2000/svg">
<g clip-path="url(#clip0)">
<path d="M794 476C914 124 1273.33 12 1438 0L1440 2296C1274 2375.33 886 2452 662 2124C438 1796 126 1919.33 -2 2022V1012C92 440 644 916 794 476Z" fill="#FF6661"/>
<path d="M-9 5384C231.725 5574.8 568.74 6203.11 -9 7190V5384Z" fill="#C6E3F1" stroke="white"/>
<path d="M-4.13745 2631.86C92.4065 2587.85 406.979 2603.05 892.917 3015.88C978.734 3110.55 1208.29 3275.09 1440 3175.89V4203.95C966.664 3862.06 88.2899 3533 2.54907 4633.24L3.90796 5040C-6.72559 4886.67 -6.68054 4751.68 2.54907 4633.24L-4.13745 2631.86Z" fill="#D6ECE1"/>
<path d="M-1118.42 3947.93L-1577 3891.93L-1524.71 3851.93H-1235.07L-1118.42 3947.93Z" fill="#D6ECE1"/>
<path d="M1164.3 6151C1349.9 5818.2 1428.3 5175 1444.3 4895V7351C1241.63 7297.67 839.498 7127 852.298 6871C868.298 6551 932.298 6567 1164.3 6151Z" fill="#FCBA5F"/>
<path d="M741.601 7883.2C565.761 7509.61 39.2209 7390.74 -202.069 7378L-205 9814.84C38.2441 9899.04 606.791 9980.41 935.024 9632.29C1263.26 9284.17 1720.44 9415.07 1908 9524.03V8452.08C1770.26 7844.99 961.399 8350.19 741.601 7883.2Z" fill="#DCC5F1"/>
</g>
<defs>
<clipPath id="clip0">
<rect width="1440" height="8158" fill="white"/>
</clipPath>
</defs>
</svg>
