<svg width="38" height="26" viewBox="0 0 38 26" fill="none" xmlns="http://www.w3.org/2000/svg">
<path d="M2.25008 25.5H35.5834C36.7292 25.5 37.6667 24.5625 37.6667 23.4167C37.6667 22.2708 36.7292 21.3333 35.5834 21.3333H2.25008C1.10425 21.3333 0.166748 22.2708 0.166748 23.4167C0.166748 24.5625 1.10425 25.5 2.25008 25.5ZM2.25008 15.0833H35.5834C36.7292 15.0833 37.6667 14.1458 37.6667 13C37.6667 11.8542 36.7292 10.9167 35.5834 10.9167H2.25008C1.10425 10.9167 0.166748 11.8542 0.166748 13C0.166748 14.1458 1.10425 15.0833 2.25008 15.0833ZM0.166748 2.58333C0.166748 3.72917 1.10425 4.66667 2.25008 4.66667H35.5834C36.7292 4.66667 37.6667 3.72917 37.6667 2.58333C37.6667 1.4375 36.7292 0.5 35.5834 0.5H2.25008C1.10425 0.5 0.166748 1.4375 0.166748 2.58333Z" fill="white"/>
</svg>
