<svg width="74" height="74" viewBox="0 0 74 74" fill="none" xmlns="http://www.w3.org/2000/svg">
<path d="M36.78 73.56C57.093 73.56 73.56 57.093 73.56 36.78C73.56 16.467 57.093 0 36.78 0C16.467 0 0 16.467 0 36.78C0 57.093 16.467 73.56 36.78 73.56Z" fill="white"/>
<path d="M52.66 17.5201C51.18 16.6201 49.7 15.7301 48.22 14.8301C45.96 18.8601 43.44 22.7001 40.68 26.3501C42.19 27.5301 43.69 28.7001 45.2 29.8801C46.39 30.8001 46.61 32.5301 45.65 33.7201C42.15 38.1001 38.32 42.1901 34.18 45.9601C33.06 46.9901 31.31 46.8801 30.32 45.7601C29.05 44.3301 27.78 42.9101 26.5 41.4801C23.04 44.4801 19.36 47.2401 15.49 49.7601C16.48 51.1801 17.47 52.6001 18.46 54.0101C22.26 59.6901 30.64 61.0101 36.49 56.1501C43.82 50.0601 50.36 43.0801 55.96 35.3701C60.43 29.2201 58.58 20.9501 52.66 17.5201Z" fill="#DCC5F1"/>
<path d="M40.84 24.5402C42.9 21.7402 44.81 18.8202 46.57 15.8002C47.37 14.4302 49.15 13.9902 50.61 14.8402C52.06 15.6902 52.59 17.5802 51.74 19.0302C49.89 22.2102 47.87 25.2802 45.71 28.2302C44.72 29.5802 42.82 29.7802 41.51 28.7202C40.19 27.6702 39.91 25.8102 40.84 24.5402Z" fill="#DCC5F1"/>
<path d="M16.35 48.0502C19.25 46.1002 22.03 44.0002 24.7 41.7702C25.9 40.7602 27.78 40.9202 28.92 42.1602C30.06 43.4002 29.98 45.3102 28.71 46.3802C25.91 48.7302 22.98 50.9402 19.92 53.0002C18.53 53.9402 16.6 53.5402 15.66 52.1402C14.72 50.7502 15.04 48.9302 16.35 48.0502Z" fill="#DCC5F1"/>
</svg>
