<svg width="579" height="464" viewBox="0 0 579 464" fill="none" xmlns="http://www.w3.org/2000/svg">
<path d="M471.59 134.78V122.45H466.33C465.31 115.59 462.61 109.27 458.66 103.94L462.39 100.21L453.67 91.4898L449.94 95.2198C444.6 91.2698 438.29 88.5698 431.43 87.5498V82.2798H419.1V87.5498C412.24 88.5698 405.92 91.2698 400.59 95.2198L396.86 91.4898L388.14 100.21L391.87 103.94C387.92 109.28 385.22 115.59 384.2 122.45H378.93V134.78H384.2C385.22 141.64 387.92 147.96 391.87 153.29L388.14 157.02L396.86 165.74L400.59 162.01C405.93 165.96 412.24 168.66 419.1 169.68V174.94H431.43V169.67C438.29 168.65 444.61 165.95 449.94 162L453.67 165.73L462.39 157.01L458.66 153.28C462.61 147.95 465.31 141.63 466.33 134.77H471.59V134.78ZM456.32 125.52C458.21 145.17 441.85 161.54 422.21 159.68C407.91 158.33 396.14 146.98 394.31 132.73C391.69 112.31 408.86 95.0898 429.3 97.6598C443.56 99.4498 454.95 111.21 456.32 125.52Z" fill="#025AA2"/>
<path d="M440.539 143.899C448.983 135.456 448.983 121.767 440.539 113.324C432.096 104.881 418.408 104.881 409.964 113.324C401.521 121.767 401.521 135.456 409.964 143.899C418.408 152.342 432.096 152.342 440.539 143.899Z" fill="#025AA2"/>
<path opacity="0.6" d="M16.2699 449.17C16.2699 449.17 -22.6301 396.43 34.8399 348.36C57.9299 329.04 147.76 315.44 72.24 207.69C27.83 144.34 92.34 52.0497 195.29 110.65C282.91 160.52 343.85 54.3297 421.43 47.2797C480.44 41.9197 515.93 114.69 480.33 171.27C440.39 234.75 516.55 224.09 533.1 245.11C562.25 282.11 467.65 326.03 511.05 373.03C555.24 420.89 524.94 449.18 524.94 449.18H16.2699V449.17Z" fill="#BDE7FF"/>
<path d="M455.99 450.67H1.62C0.720003 450.67 0 449.94 0 449.05C0 448.15 0.730003 447.43 1.62 447.43H455.99C456.89 447.43 457.61 448.16 457.61 449.05C457.61 449.95 456.88 450.67 455.99 450.67Z" fill="#91D1E2"/>
<path d="M529.81 450.67H461.4C460.5 450.67 459.78 449.94 459.78 449.05C459.78 448.15 460.51 447.43 461.4 447.43H529.81C530.71 447.43 531.43 448.16 531.43 449.05C531.44 449.95 530.71 450.67 529.81 450.67Z" fill="#91D1E2"/>
<path opacity="0.5" d="M271.31 459.33H76.5C75.6 459.33 74.88 458.6 74.88 457.71C74.88 456.81 75.61 456.09 76.5 456.09H271.31C272.21 456.09 272.93 456.82 272.93 457.71C272.93 458.6 272.21 459.33 271.31 459.33Z" fill="#91D1E2"/>
<path opacity="0.5" d="M409.37 459.33H279.09C278.19 459.33 277.47 458.6 277.47 457.71C277.47 456.81 278.2 456.09 279.09 456.09H409.37C410.27 456.09 410.99 456.82 410.99 457.71C410.99 458.6 410.27 459.33 409.37 459.33Z" fill="#91D1E2"/>
<path d="M265.9 410.39C265.9 410.39 281.85 409.53 281.87 406.28C281.88 403.76 272.13 405.89 272.13 405.89C272.13 405.89 282.8 402.79 287.74 400.26C288.82 399.7 289.93 399.1 290.68 398.15C291.44 397.2 291.77 395.8 291.15 394.75C290.32 393.33 288.33 393.21 286.69 393.41C280.12 394.2 275.5 397.72 269.59 400.69C273.92 398.52 277.77 395.73 281.38 392.51C284.7 389.55 288.56 386.77 290.77 382.8C292.16 380.32 292.71 376.65 290.25 374.61C287.87 372.63 284.46 373.55 281.85 374.47C274.83 376.93 268.68 381.83 264.64 388.06C265.68 385.15 266.49 382.15 267.07 379.11C267.3 377.88 267.39 376.37 266.37 375.65C265.06 374.71 263.3 375.97 262.28 377.22C259.81 380.25 257.92 383.77 256.75 387.5C257.56 379.13 258.35 370.59 256.53 362.38C256.11 360.5 255.54 358.61 254.37 357.09C253.2 355.57 251.32 354.47 249.41 354.67C247.6 354.87 246.11 356.15 244.9 357.51C240.99 361.89 238.7 367.68 238.55 373.55C238.41 379.42 240.42 385.31 244.11 389.87C242.17 387.83 239.97 386.03 237.59 384.53C237.05 384.19 236.27 383.9 235.87 384.39C235.66 384.64 235.67 385 235.7 385.33C236.07 389.31 238.74 392.65 241.29 395.72C236.11 389.67 227.95 386.3 220.01 386.92C219.05 386.99 217.96 387.21 217.47 388.04C217.19 388.52 217.18 389.11 217.23 389.67C217.65 393.66 221.18 396.56 224.64 398.59C227.55 400.3 230.62 401.73 233.68 403.15C231.93 402.9 230.15 402.84 228.39 402.96C227.99 402.99 227.54 403.05 227.29 403.37C226.83 403.98 227.48 404.8 228.1 405.24C232.53 408.44 238.1 410 243.54 409.58" fill="#025AA2"/>
<path opacity="0.45" d="M284.01 380.61C284.21 380.47 284.4 380.78 284.21 380.92C279.14 384.75 274.45 389.06 270.29 393.88C266.1 398.74 262.76 404.04 259.49 409.53C259.37 409.73 259.07 409.57 259.17 409.36C264.61 397.97 273.86 387.96 284.01 380.61ZM261.06 384.73C258.15 392.2 256.4 401.6 256.98 409.64C257 409.84 257.29 409.83 257.3 409.63C257.43 401.54 258.64 392.5 261.49 384.89C261.57 384.65 261.15 384.49 261.06 384.73ZM250.96 368.23C249.59 381.94 250.69 396.55 254.37 409.84C254.43 410.06 254.75 409.95 254.7 409.73C253.31 402.76 252.05 395.8 251.46 388.71C250.9 381.89 250.96 375.08 251.2 368.25C251.21 368.12 250.97 368.09 250.96 368.23ZM238.57 388.71C242.69 394.56 247.25 405.38 252.66 410.1C252.88 410.29 253.16 409.98 252.96 409.77C248.07 404.4 243.28 394.32 238.9 388.5C238.75 388.3 238.42 388.5 238.57 388.71ZM282.94 397.77C274.77 401.45 266.35 405.79 259.43 411.54C259.22 411.72 259.42 412.08 259.67 411.92C267.29 406.86 274.66 401.88 283.04 398.1C283.25 398.02 283.15 397.68 282.94 397.77ZM232.16 396.77C238.11 400.32 244.46 407.9 250.95 410.38C251.15 410.46 251.32 410.17 251.11 410.07C244.83 407 238.41 399.92 232.33 396.45C232.13 396.33 231.96 396.65 232.16 396.77Z" fill="url(#paint0_linear)"/>
<path d="M268.35 447.43H245.78L239.67 409.44H274.47L268.35 447.43Z" fill="#7FD2EF"/>
<path d="M268.33 447.43H261.49L267.63 409.44H274.47L268.33 447.43Z" fill="#46BFE0"/>
<g opacity="0.5">
<g opacity="0.5">
<path opacity="0.5" d="M123.19 327.31C118.65 321.32 111.48 317.44 103.39 317.45C90.2601 317.47 79.1501 328.16 78.6401 341.28C78.0901 355.43 89.4001 367.07 103.43 367.07C111.87 367.07 119.32 362.84 123.8 356.4L103.43 342.26L123.19 327.31Z" fill="white"/>
<g opacity="0.5">
<path opacity="0.5" d="M129.01 327.31L109.25 342.26L129.62 356.4C132.41 352.39 134.05 347.52 134.05 342.26C134.06 336.63 132.17 331.47 129.01 327.31Z" fill="white"/>
</g>
</g>
</g>
<g opacity="0.7">
<path opacity="0.7" d="M115.3 146.53C96.4201 146.53 81.0601 131.17 81.0601 112.29C81.0601 93.4096 96.4201 78.0496 115.3 78.0496C134.18 78.0496 149.54 93.4096 149.54 112.29C149.54 131.16 134.18 146.53 115.3 146.53ZM115.3 83.3196C99.3301 83.3196 86.3401 96.3096 86.3401 112.28C86.3401 128.25 99.3301 141.24 115.3 141.24C131.27 141.24 144.26 128.25 144.26 112.28C144.26 96.3096 131.27 83.3196 115.3 83.3196Z" fill="#ACE2F9"/>
<path opacity="0.7" d="M136.23 112.28C136.23 111.33 137.01 110.55 137.96 110.55H140.93C141.88 110.55 142.66 111.33 142.66 112.28C142.66 113.23 141.88 114.01 140.93 114.01H137.96C137.01 114.02 136.23 113.24 136.23 112.28Z" fill="#ACE2F9"/>
<path opacity="0.7" d="M87.9301 112.28C87.9301 111.33 88.7101 110.55 89.6601 110.55H92.6301C93.5801 110.55 94.3601 111.33 94.3601 112.28C94.3601 113.23 93.5801 114.01 92.6301 114.01H89.6601C88.7101 114.02 87.9301 113.24 87.9301 112.28Z" fill="#ACE2F9"/>
<path opacity="0.7" d="M115.3 133.219C116.25 133.219 117.03 133.999 117.03 134.949V137.919C117.03 138.869 116.25 139.649 115.3 139.649C114.35 139.649 113.57 138.869 113.57 137.919V134.949C113.57 133.999 114.35 133.219 115.3 133.219Z" fill="#ACE2F9"/>
<path opacity="0.7" d="M115.3 84.9097C116.25 84.9097 117.03 85.6897 117.03 86.6397V89.6097C117.03 90.5597 116.25 91.3397 115.3 91.3397C114.35 91.3397 113.57 90.5597 113.57 89.6097V86.6397C113.57 85.6897 114.35 84.9097 115.3 84.9097Z" fill="#ACE2F9"/>
<path opacity="0.7" d="M100.5 127.08C101.17 127.75 101.17 128.86 100.5 129.53L98.4 131.63C97.73 132.3 96.62 132.3 95.95 131.63C95.28 130.96 95.28 129.85 95.95 129.18L98.05 127.08C98.72 126.41 99.82 126.41 100.5 127.08Z" fill="#ACE2F9"/>
<path opacity="0.7" d="M134.65 92.9297C135.32 93.5997 135.32 94.7097 134.65 95.3797L132.55 97.4797C131.88 98.1497 130.77 98.1497 130.1 97.4797C129.43 96.8097 129.43 95.6997 130.1 95.0297L132.2 92.9297C132.88 92.2497 133.98 92.2497 134.65 92.9297Z" fill="#ACE2F9"/>
<path opacity="0.7" d="M100.5 97.4795C99.83 98.1495 98.72 98.1495 98.05 97.4795L95.95 95.3795C95.28 94.7095 95.28 93.5995 95.95 92.9295C96.62 92.2595 97.73 92.2595 98.4 92.9295L100.5 95.0295C101.17 95.6995 101.17 96.8095 100.5 97.4795Z" fill="#ACE2F9"/>
<path opacity="0.7" d="M134.65 131.64C133.98 132.31 132.87 132.31 132.2 131.64L130.1 129.54C129.43 128.87 129.43 127.76 130.1 127.09C130.77 126.42 131.88 126.42 132.55 127.09L134.65 129.19C135.33 129.86 135.33 130.96 134.65 131.64Z" fill="#ACE2F9"/>
<path opacity="0.7" d="M118.13 112.279C118.13 113.839 116.86 115.109 115.3 115.109C113.74 115.109 112.47 113.839 112.47 112.279C112.47 110.719 113.74 109.449 115.3 109.449C116.86 109.449 118.13 110.719 118.13 112.279Z" fill="#ACE2F9"/>
<path opacity="0.7" d="M115.3 108.73C115 108.73 114.75 108.48 114.75 108.18V93.7097C114.75 93.4097 115 93.1597 115.3 93.1597C115.6 93.1597 115.85 93.4097 115.85 93.7097V108.19C115.85 108.49 115.6 108.73 115.3 108.73Z" fill="#ACE2F9"/>
<path opacity="0.7" d="M119.21 112.279C119.21 111.979 119.46 111.729 119.76 111.729H129.32C129.62 111.729 129.87 111.979 129.87 112.279C129.87 112.579 129.62 112.829 129.32 112.829H119.76C119.45 112.829 119.21 112.589 119.21 112.279Z" fill="#ACE2F9"/>
</g>
<path opacity="0.5" d="M484.65 209.68H480.53V205.56C480.53 204.89 479.99 204.35 479.32 204.35C478.65 204.35 478.11 204.89 478.11 205.56V209.68H473.99C473.32 209.68 472.78 210.22 472.78 210.89C472.78 211.56 473.32 212.1 473.99 212.1H478.11V216.22C478.11 216.89 478.65 217.43 479.32 217.43C479.99 217.43 480.53 216.89 480.53 216.22V212.1H484.65C485.32 212.1 485.86 211.56 485.86 210.89C485.85 210.22 485.31 209.68 484.65 209.68Z" fill="#11AFD3"/>
<path d="M110.66 300.16H106.54V296.04C106.54 295.37 106 294.83 105.33 294.83C104.66 294.83 104.12 295.37 104.12 296.04V300.16H100C99.33 300.16 98.79 300.7 98.79 301.37C98.79 302.04 99.33 302.58 100 302.58H104.12V306.7C104.12 307.37 104.66 307.91 105.33 307.91C106 307.91 106.54 307.37 106.54 306.7V302.58H110.66C111.33 302.58 111.87 302.04 111.87 301.37C111.86 300.7 111.32 300.16 110.66 300.16Z" fill="white"/>
<path d="M47.92 384.33H45.22V381.63C45.22 381.19 44.87 380.84 44.43 380.84C43.99 380.84 43.64 381.19 43.64 381.63V384.33H40.94C40.5 384.33 40.15 384.68 40.15 385.12C40.15 385.56 40.5 385.91 40.94 385.91H43.64V388.61C43.64 389.05 43.99 389.4 44.43 389.4C44.87 389.4 45.22 389.05 45.22 388.61V385.91H47.92C48.36 385.91 48.71 385.56 48.71 385.12C48.71 384.68 48.36 384.33 47.92 384.33Z" fill="white"/>
<path opacity="0.5" d="M142.21 26.9997H138.09V22.8797C138.09 22.2097 137.55 21.6697 136.88 21.6697C136.21 21.6697 135.67 22.2097 135.67 22.8797V26.9997H131.55C130.88 26.9997 130.34 27.5397 130.34 28.2097C130.34 28.8797 130.88 29.4197 131.55 29.4197H135.67V33.5397C135.67 34.2097 136.21 34.7497 136.88 34.7497C137.55 34.7497 138.09 34.2097 138.09 33.5397V29.4097H142.21C142.88 29.4097 143.42 28.8697 143.42 28.1997C143.42 27.5397 142.88 26.9997 142.21 26.9997Z" fill="#11AFD3"/>
<path opacity="0.8" d="M204.79 316.22H200.67V312.1C200.67 311.43 200.13 310.89 199.46 310.89C198.79 310.89 198.25 311.43 198.25 312.1V316.22H194.13C193.46 316.22 192.92 316.76 192.92 317.43C192.92 318.1 193.46 318.64 194.13 318.64H198.25V322.76C198.25 323.43 198.79 323.97 199.46 323.97C200.13 323.97 200.67 323.43 200.67 322.76V318.64H204.79C205.46 318.64 206 318.1 206 317.43C205.99 316.76 205.45 316.22 204.79 316.22Z" fill="white"/>
<path d="M348.71 25.6896H344.59V21.5696C344.59 20.8996 344.05 20.3596 343.38 20.3596C342.71 20.3596 342.17 20.8996 342.17 21.5696V25.6896H338.05C337.38 25.6896 336.84 26.2296 336.84 26.8996C336.84 27.5696 337.38 28.1096 338.05 28.1096H342.17V32.2296C342.17 32.8996 342.71 33.4396 343.38 33.4396C344.05 33.4396 344.59 32.8996 344.59 32.2296V28.1096H348.71C349.38 28.1096 349.92 27.5696 349.92 26.8996C349.92 26.2296 349.38 25.6896 348.71 25.6896Z" fill="#025AA2"/>
<path opacity="0.6" d="M229.78 43.4597H227.44V41.1197C227.44 40.7397 227.13 40.4397 226.76 40.4397C226.38 40.4397 226.08 40.7497 226.08 41.1197V43.4597H223.74C223.36 43.4597 223.06 43.7697 223.06 44.1397C223.06 44.5097 223.37 44.8197 223.74 44.8197H226.08V47.1597C226.08 47.5397 226.39 47.8397 226.76 47.8397C227.14 47.8397 227.44 47.5297 227.44 47.1597V44.8197H229.78C230.16 44.8197 230.46 44.5097 230.46 44.1397C230.46 43.7697 230.16 43.4597 229.78 43.4597Z" fill="#BDE7FF"/>
<path opacity="0.8" d="M227.68 375.77C226.15 375.77 224.73 376.22 223.49 376.94C222.68 370.12 216.89 364.84 209.86 364.84C204.23 364.84 199.4 368.23 197.28 373.07C196.45 372.84 195.6 372.68 194.7 372.68C189.28 372.68 184.88 377.08 184.88 382.5C184.88 387.92 189.28 392.32 194.7 392.32H227.69C232.26 392.32 235.97 388.61 235.97 384.04C235.96 379.48 232.25 375.77 227.68 375.77Z" fill="white"/>
<path opacity="0.8" d="M340.7 355.33C339.17 355.33 337.75 355.78 336.51 356.5C335.7 349.68 329.91 344.4 322.88 344.4C317.25 344.4 312.42 347.79 310.3 352.63C309.47 352.4 308.62 352.24 307.72 352.24C302.3 352.24 297.9 356.64 297.9 362.06C297.9 367.48 302.3 371.88 307.72 371.88H340.71C345.28 371.88 348.99 368.17 348.99 363.6C348.97 359.04 345.27 355.33 340.7 355.33Z" fill="white"/>
<path opacity="0.7" d="M88.52 220.3C87.38 220.3 86.33 220.63 85.41 221.17C84.81 216.11 80.51 212.19 75.29 212.19C71.11 212.19 67.53 214.7 65.95 218.3C65.33 218.13 64.7 218.01 64.03 218.01C60.01 218.01 56.74 221.27 56.74 225.3C56.74 229.33 60 232.59 64.03 232.59H88.51C91.9 232.59 94.65 229.84 94.65 226.45C94.66 223.04 91.91 220.3 88.52 220.3Z" fill="#ACE2F9"/>
<path d="M428.88 47.4796C428.07 49.6896 426.99 51.7096 425.66 53.5296C419.32 62.2896 407.71 66.1596 397.05 62.2596C389.08 59.3396 383.51 52.7596 381.55 45.0996C380.35 40.4096 380.5 35.3296 382.29 30.4396C386.99 17.5796 401.23 10.9596 414.09 15.6696L405.57 38.9596L429.96 34.5596C430.73 38.7496 430.45 43.1896 428.88 47.4796Z" fill="#E6F7FF"/>
<path d="M433.57 31.2296C432.05 22.8496 426.28 15.4696 417.7 12.3396L409.18 35.6296L433.57 31.2296Z" fill="#E6F7FF"/>
<path d="M428.88 47.4796C428.07 49.6896 426.99 51.7096 425.66 53.5296L405.58 38.9596L429.97 34.5596C430.73 38.7496 430.45 43.1896 428.88 47.4796Z" fill="white"/>
<path d="M414.09 15.6696L405.57 38.9596L381.55 45.0996C380.35 40.4096 380.5 35.3296 382.29 30.4396C386.99 17.5796 401.23 10.9596 414.09 15.6696Z" fill="white"/>
<path d="M465.62 30.3295C463.8 30.3295 462.17 31.1195 461.03 32.3695L456.09 28.8995C456.32 28.3795 456.46 27.7995 456.46 27.1995C456.46 24.8895 454.59 23.0195 452.28 23.0195C449.97 23.0195 448.1 24.8895 448.1 27.1995C448.1 29.5095 449.97 31.3795 452.28 31.3795C453.41 31.3795 454.42 30.9295 455.17 30.2095L460.12 33.6895C459.66 34.5595 459.38 35.5295 459.38 36.5795C459.38 38.0695 459.92 39.4095 460.79 40.4795L458.25 43.1295C457.6 42.7095 456.83 42.4595 456 42.4595C453.69 42.4595 451.82 44.3295 451.82 46.6395C451.82 48.9495 453.69 50.8195 456 50.8195C458.31 50.8195 460.18 48.9495 460.18 46.6395C460.18 45.7395 459.89 44.9095 459.41 44.2295L461.94 41.5795C462.97 42.3395 464.24 42.8095 465.63 42.8095C469.08 42.8095 471.87 40.0195 471.87 36.5695C471.86 33.1295 469.07 30.3295 465.62 30.3295Z" fill="white"/>
<path d="M96.3 260.15C96.34 264.53 92.82 268.11 88.44 268.15C84.06 268.19 80.48 264.67 80.44 260.29C80.4 255.91 83.92 252.33 88.3 252.29C92.68 252.25 96.26 255.77 96.3 260.15Z" fill="#025AA2"/>
<path d="M84.89 260.62L88.04 263.62L92.16 257.95" stroke="white" stroke-width="1.6843" stroke-miterlimit="10" stroke-linecap="round" stroke-linejoin="round"/>
<path d="M513.57 152.659C513.61 157.799 509.48 162.009 504.34 162.049C499.2 162.089 494.99 157.959 494.95 152.819C494.91 147.679 499.04 143.469 504.18 143.429C509.32 143.389 513.53 147.519 513.57 152.659Z" fill="#E6505C"/>
<path d="M500.17 153.22L503.87 156.74L508.7 150.09" stroke="white" stroke-width="1.9781" stroke-miterlimit="10" stroke-linecap="round" stroke-linejoin="round"/>
<path opacity="0.6" d="M544.47 312.22C544.52 317.46 540.3 321.75 535.06 321.8C529.82 321.85 525.53 317.63 525.48 312.39C525.43 307.15 529.65 302.86 534.89 302.81C540.13 302.77 544.42 306.98 544.47 312.22Z" fill="#BDE7FF"/>
<path d="M530.8 312.79L534.57 316.38L539.5 309.6" stroke="white" stroke-width="2.017" stroke-miterlimit="10" stroke-linecap="round" stroke-linejoin="round"/>
<g opacity="0.25">
<path opacity="0.25" d="M404.31 91.1295V284.219C404.31 292.589 397.52 299.379 389.15 299.379H153.28C144.91 299.379 138.12 292.589 138.12 284.219V91.1295C138.12 82.7395 144.91 75.9695 153.28 75.9695H389.15C397.52 75.9695 404.31 82.7395 404.31 91.1295Z" fill="#2A507A"/>
<path opacity="0.25" d="M404.31 91.1295V118.129H138.11V91.1295C138.11 82.7395 144.9 75.9695 153.27 75.9695H389.14C397.52 75.9695 404.31 82.7395 404.31 91.1295Z" fill="#2A507A"/>
<path opacity="0.25" d="M176.69 160.42H151C149.72 160.42 148.68 159.38 148.68 158.1V132.41C148.68 131.13 149.72 130.09 151 130.09H176.69C177.97 130.09 179.01 131.13 179.01 132.41V158.1C179.01 159.38 177.97 160.42 176.69 160.42Z" fill="#2A507A"/>
<path opacity="0.25" d="M219.91 160.42H194.22C192.94 160.42 191.9 159.38 191.9 158.1V132.41C191.9 131.13 192.94 130.09 194.22 130.09H219.91C221.19 130.09 222.23 131.13 222.23 132.41V158.1C222.23 159.38 221.19 160.42 219.91 160.42Z" fill="#2A507A"/>
<path opacity="0.25" d="M263.13 160.42H237.44C236.16 160.42 235.12 159.38 235.12 158.1V132.41C235.12 131.13 236.16 130.09 237.44 130.09H263.13C264.41 130.09 265.45 131.13 265.45 132.41V158.1C265.45 159.38 264.41 160.42 263.13 160.42Z" fill="#2A507A"/>
<path opacity="0.25" d="M306.35 160.42H280.66C279.38 160.42 278.34 159.38 278.34 158.1V132.41C278.34 131.13 279.38 130.09 280.66 130.09H306.35C307.63 130.09 308.67 131.13 308.67 132.41V158.1C308.67 159.38 307.63 160.42 306.35 160.42Z" fill="#2A507A"/>
<path opacity="0.25" d="M349.57 160.42H323.88C322.6 160.42 321.56 159.38 321.56 158.1V132.41C321.56 131.13 322.6 130.09 323.88 130.09H349.57C350.85 130.09 351.89 131.13 351.89 132.41V158.1C351.89 159.38 350.85 160.42 349.57 160.42Z" stroke="#2A507A" stroke-width="1.3019" stroke-miterlimit="10"/>
<path opacity="0.25" d="M392.79 160.42H367.1C365.82 160.42 364.78 159.38 364.78 158.1V132.41C364.78 131.13 365.82 130.09 367.1 130.09H392.79C394.07 130.09 395.11 131.13 395.11 132.41V158.1C395.11 159.38 394.07 160.42 392.79 160.42Z" fill="#2A507A"/>
<path opacity="0.25" d="M176.69 201.12H151C149.72 201.12 148.68 200.08 148.68 198.8V173.11C148.68 171.83 149.72 170.79 151 170.79H176.69C177.97 170.79 179.01 171.83 179.01 173.11V198.8C179.01 200.08 177.97 201.12 176.69 201.12Z" fill="#2A507A"/>
<path opacity="0.25" d="M219.91 201.12H194.22C192.94 201.12 191.9 200.08 191.9 198.8V173.11C191.9 171.83 192.94 170.79 194.22 170.79H219.91C221.19 170.79 222.23 171.83 222.23 173.11V198.8C222.23 200.08 221.19 201.12 219.91 201.12Z" fill="#2A507A"/>
<path opacity="0.25" d="M263.13 201.12H237.44C236.16 201.12 235.12 200.08 235.12 198.8V173.11C235.12 171.83 236.16 170.79 237.44 170.79H263.13C264.41 170.79 265.45 171.83 265.45 173.11V198.8C265.45 200.08 264.41 201.12 263.13 201.12Z" stroke="#2A507A" stroke-width="1.3019" stroke-miterlimit="10"/>
<path opacity="0.25" d="M306.35 201.12H280.66C279.38 201.12 278.34 200.08 278.34 198.8V173.11C278.34 171.83 279.38 170.79 280.66 170.79H306.35C307.63 170.79 308.67 171.83 308.67 173.11V198.8C308.67 200.08 307.63 201.12 306.35 201.12Z" fill="#2A507A"/>
<path opacity="0.25" d="M349.57 201.12H323.88C322.6 201.12 321.56 200.08 321.56 198.8V173.11C321.56 171.83 322.6 170.79 323.88 170.79H349.57C350.85 170.79 351.89 171.83 351.89 173.11V198.8C351.89 200.08 350.85 201.12 349.57 201.12Z" fill="#2A507A"/>
<path opacity="0.25" d="M392.79 201.12H367.1C365.82 201.12 364.78 200.08 364.78 198.8V173.11C364.78 171.83 365.82 170.79 367.1 170.79H392.79C394.07 170.79 395.11 171.83 395.11 173.11V198.8C395.11 200.08 394.07 201.12 392.79 201.12Z" fill="#2A507A"/>
<path opacity="0.25" d="M176.69 241.82H151C149.72 241.82 148.68 240.779 148.68 239.499V213.81C148.68 212.53 149.72 211.49 151 211.49H176.69C177.97 211.49 179.01 212.53 179.01 213.81V239.499C179.01 240.779 177.97 241.82 176.69 241.82Z" fill="#2A507A"/>
<path opacity="0.25" d="M219.91 241.82H194.22C192.94 241.82 191.9 240.779 191.9 239.499V213.81C191.9 212.53 192.94 211.49 194.22 211.49H219.91C221.19 211.49 222.23 212.53 222.23 213.81V239.499C222.23 240.779 221.19 241.82 219.91 241.82Z" fill="#2A507A"/>
<path opacity="0.25" d="M263.13 241.82H237.44C236.16 241.82 235.12 240.779 235.12 239.499V213.81C235.12 212.53 236.16 211.49 237.44 211.49H263.13C264.41 211.49 265.45 212.53 265.45 213.81V239.499C265.45 240.779 264.41 241.82 263.13 241.82Z" fill="#2A507A"/>
<path opacity="0.25" d="M306.35 241.82H280.66C279.38 241.82 278.34 240.779 278.34 239.499V213.81C278.34 212.53 279.38 211.49 280.66 211.49H306.35C307.63 211.49 308.67 212.53 308.67 213.81V239.499C308.67 240.779 307.63 241.82 306.35 241.82Z" fill="#2A507A"/>
<path opacity="0.25" d="M349.57 241.82H323.88C322.6 241.82 321.56 240.779 321.56 239.499V213.81C321.56 212.53 322.6 211.49 323.88 211.49H349.57C350.85 211.49 351.89 212.53 351.89 213.81V239.499C351.89 240.779 350.85 241.82 349.57 241.82Z" fill="#2A507A"/>
<path opacity="0.25" d="M392.79 241.82H367.1C365.82 241.82 364.78 240.779 364.78 239.499V213.81C364.78 212.53 365.82 211.49 367.1 211.49H392.79C394.07 211.49 395.11 212.53 395.11 213.81V239.499C395.11 240.779 394.07 241.82 392.79 241.82Z" fill="#2A507A"/>
<path opacity="0.25" d="M176.69 282.53H151C149.72 282.53 148.68 281.49 148.68 280.21V254.52C148.68 253.24 149.72 252.2 151 252.2H176.69C177.97 252.2 179.01 253.24 179.01 254.52V280.21C179.01 281.49 177.97 282.53 176.69 282.53Z" stroke="#2A507A" stroke-width="1.3019" stroke-miterlimit="10"/>
<path opacity="0.25" d="M219.91 282.53H194.22C192.94 282.53 191.9 281.49 191.9 280.21V254.52C191.9 253.24 192.94 252.2 194.22 252.2H219.91C221.19 252.2 222.23 253.24 222.23 254.52V280.21C222.23 281.49 221.19 282.53 219.91 282.53Z" fill="#2A507A"/>
<path opacity="0.25" d="M263.13 282.53H237.44C236.16 282.53 235.12 281.49 235.12 280.21V254.52C235.12 253.24 236.16 252.2 237.44 252.2H263.13C264.41 252.2 265.45 253.24 265.45 254.52V280.21C265.45 281.49 264.41 282.53 263.13 282.53Z" fill="#2A507A"/>
<path opacity="0.25" d="M306.35 282.53H280.66C279.38 282.53 278.34 281.49 278.34 280.21V254.52C278.34 253.24 279.38 252.2 280.66 252.2H306.35C307.63 252.2 308.67 253.24 308.67 254.52V280.21C308.67 281.49 307.63 282.53 306.35 282.53Z" fill="#2A507A"/>
<path opacity="0.25" d="M349.57 282.53H323.88C322.6 282.53 321.56 281.49 321.56 280.21V254.52C321.56 253.24 322.6 252.2 323.88 252.2H349.57C350.85 252.2 351.89 253.24 351.89 254.52V280.21C351.89 281.49 350.85 282.53 349.57 282.53Z" fill="#2A507A"/>
<path opacity="0.25" d="M392.79 282.53H367.1C365.82 282.53 364.78 281.49 364.78 280.21V254.52C364.78 253.24 365.82 252.2 367.1 252.2H392.79C394.07 252.2 395.11 253.24 395.11 254.52V280.21C395.11 281.49 394.07 282.53 392.79 282.53Z" fill="#2A507A"/>
<path opacity="0.25" d="M159.66 99.4795C159.66 102.529 157.19 104.999 154.14 104.999C151.09 104.999 148.62 102.529 148.62 99.4795C148.62 96.4295 151.09 93.9595 154.14 93.9595C157.19 93.9595 159.66 96.4395 159.66 99.4795Z" fill="#2A507A"/>
<path opacity="0.25" d="M206.64 99.4795C206.64 102.529 204.17 104.999 201.12 104.999C198.07 104.999 195.6 102.529 195.6 99.4795C195.6 96.4295 198.07 93.9595 201.12 93.9595C204.17 93.9695 206.64 96.4395 206.64 99.4795Z" fill="#2A507A"/>
<path opacity="0.25" d="M253.62 99.4795C253.62 102.529 251.15 104.999 248.1 104.999C245.05 104.999 242.58 102.529 242.58 99.4795C242.58 96.4295 245.05 93.9595 248.1 93.9595C251.15 93.9695 253.62 96.4395 253.62 99.4795Z" fill="#2A507A"/>
<path opacity="0.25" d="M300.6 99.4795C300.6 102.529 298.13 104.999 295.08 104.999C292.03 104.999 289.56 102.529 289.56 99.4795C289.56 96.4295 292.03 93.9595 295.08 93.9595C298.13 93.9695 300.6 96.4395 300.6 99.4795Z" fill="#2A507A"/>
<path opacity="0.25" d="M347.57 99.4795C347.57 102.529 345.1 104.999 342.05 104.999C339 104.999 336.53 102.529 336.53 99.4795C336.53 96.4295 339 93.9595 342.05 93.9595C345.1 93.9695 347.57 96.4395 347.57 99.4795Z" fill="#2A507A"/>
<path opacity="0.25" d="M394.55 99.4795C394.55 102.529 392.08 104.999 389.03 104.999C385.98 104.999 383.51 102.529 383.51 99.4795C383.51 96.4295 385.98 93.9595 389.03 93.9595C392.08 93.9695 394.55 96.4395 394.55 99.4795Z" fill="#2A507A"/>
<path opacity="0.25" d="M154.14 99.4796V73.5796" stroke="#2A507A" stroke-width="5.4139" stroke-miterlimit="10" stroke-linecap="round"/>
<path opacity="0.25" d="M201.12 99.4796V73.5796" stroke="#2A507A" stroke-width="5.4139" stroke-miterlimit="10" stroke-linecap="round"/>
<path opacity="0.25" d="M248.1 99.4796V73.5796" stroke="#2A507A" stroke-width="5.4139" stroke-miterlimit="10" stroke-linecap="round"/>
<path opacity="0.25" d="M342.06 99.4796V73.5796" stroke="#2A507A" stroke-width="5.4139" stroke-miterlimit="10" stroke-linecap="round"/>
<path opacity="0.25" d="M389.04 99.4796V73.5796" stroke="#2A507A" stroke-width="5.4139" stroke-miterlimit="10" stroke-linecap="round"/>
<path opacity="0.25" d="M258.98 218.51C258.09 218.83 257.19 219.08 256.29 219.3C256.93 221.51 257.28 223.809 257.31 226.089H262.19C262.06 223.169 260.86 220.51 258.98 218.51ZM254.95 215.689C255.34 216.509 255.66 217.37 255.96 218.22C256.67 218.05 257.38 217.86 258.07 217.64C257.14 216.83 256.1 216.169 254.95 215.689ZM253.45 215.15C252.62 214.92 251.75 214.78 250.84 214.75V218.84C252.17 218.83 253.52 218.69 254.85 218.45C254.47 217.32 254 216.22 253.45 215.15ZM255.19 219.529C253.76 219.789 252.3 219.95 250.85 219.96V226.089H256.21C256.16 223.879 255.83 221.659 255.19 219.529ZM250.28 214.74C250.09 214.74 249.91 214.74 249.72 214.75H250.84C250.65 214.74 250.47 214.74 250.28 214.74ZM247.12 215.15C246.57 216.22 246.1 217.32 245.72 218.43C247.04 218.67 248.39 218.82 249.73 218.83V214.74C248.82 214.78 247.95 214.93 247.12 215.15ZM242.5 217.62C243.19 217.86 243.89 218.05 244.61 218.22C244.91 217.36 245.24 216.52 245.62 215.7C244.48 216.17 243.43 216.82 242.5 217.62ZM245.38 219.52C244.75 221.65 244.4 223.859 244.37 226.089H249.72V219.96C248.27 219.95 246.81 219.78 245.38 219.52ZM241.6 218.49C239.71 220.5 238.51 223.169 238.37 226.089H243.25C243.29 223.789 243.64 221.5 244.27 219.27C243.36 219.06 242.46 218.81 241.6 218.49ZM250.84 227.21V233.35C252.29 233.37 253.74 233.52 255.17 233.79C255.81 231.65 256.16 229.43 256.19 227.21H250.84ZM257.32 227.21C257.28 229.52 256.94 231.8 256.28 234.02C257.18 234.23 258.08 234.499 258.97 234.809C260.86 232.809 262.06 230.149 262.19 227.219H257.32V227.21ZM244.63 235.1C243.92 235.27 243.2 235.46 242.5 235.7C243.43 236.51 244.49 237.16 245.65 237.66C245.27 236.81 244.93 235.97 244.63 235.1ZM255.94 235.089C255.65 235.959 255.31 236.8 254.92 237.65C256.09 237.16 257.15 236.5 258.07 235.67C257.36 235.44 256.65 235.249 255.94 235.089ZM250.84 234.469V238.58C251.72 238.53 252.58 238.4 253.41 238.18C253.97 237.11 254.45 236 254.83 234.88C253.51 234.62 252.17 234.489 250.84 234.469ZM245.74 234.88C246.13 235.99 246.61 237.09 247.17 238.16C247.98 238.39 248.84 238.519 249.73 238.559V234.45C248.39 234.49 247.06 234.63 245.74 234.88ZM243.25 227.21H238.37C238.5 230.15 239.7 232.83 241.6 234.83C242.48 234.52 243.38 234.249 244.3 234.029C243.64 231.799 243.29 229.52 243.25 227.21ZM244.37 227.21C244.41 229.44 244.76 231.65 245.39 233.79C246.82 233.53 248.27 233.37 249.72 233.35V227.21H244.37Z" fill="#2A507A"/>
<path opacity="0.25" d="M249.72 238.57C249.91 238.58 250.09 238.58 250.28 238.58C250.47 238.58 250.65 238.58 250.84 238.57" fill="#2A507A"/>
<path opacity="0.25" d="M154.94 147.35L162.26 153.47L172.8 138.82" stroke="#2A507A" stroke-width="3.9056" stroke-miterlimit="10" stroke-linecap="round" stroke-linejoin="round"/>
<path opacity="0.25" d="M328.64 147.35L335.96 153.47L346.5 138.82" stroke="#2A507A" stroke-width="3.9056" stroke-miterlimit="10" stroke-linecap="round" stroke-linejoin="round"/>
<path opacity="0.25" d="M198.13 267.65L205.45 273.76L215.99 259.11" stroke="#2A507A" stroke-width="3.9056" stroke-miterlimit="10" stroke-linecap="round" stroke-linejoin="round"/>
</g>
<path d="M399.1 85.9195V279.01C399.1 287.38 392.31 294.17 383.94 294.17H148.07C139.7 294.17 132.91 287.38 132.91 279.01V85.9195C132.91 77.5295 139.7 70.7595 148.07 70.7595H383.94C392.31 70.7595 399.1 77.5395 399.1 85.9195Z" fill="white"/>
<path d="M399.1 85.9195V112.92H132.9V85.9195C132.9 77.5295 139.69 70.7595 148.06 70.7595H383.93C392.31 70.7595 399.1 77.5395 399.1 85.9195Z" fill="#E6505C"/>
<path d="M171.48 155.21H145.79C144.51 155.21 143.47 154.17 143.47 152.89V127.2C143.47 125.92 144.51 124.88 145.79 124.88H171.48C172.76 124.88 173.8 125.92 173.8 127.2V152.89C173.8 154.17 172.76 155.21 171.48 155.21Z" fill="#ACE2F9"/>
<path d="M214.7 155.21H189.01C187.73 155.21 186.69 154.17 186.69 152.89V127.2C186.69 125.92 187.73 124.88 189.01 124.88H214.7C215.98 124.88 217.02 125.92 217.02 127.2V152.89C217.02 154.17 215.98 155.21 214.7 155.21Z" fill="#ACE2F9"/>
<path d="M257.92 155.21H232.23C230.95 155.21 229.91 154.17 229.91 152.89V127.2C229.91 125.92 230.95 124.88 232.23 124.88H257.92C259.2 124.88 260.24 125.92 260.24 127.2V152.89C260.24 154.17 259.2 155.21 257.92 155.21Z" fill="#ACE2F9"/>
<path d="M301.14 155.21H275.45C274.17 155.21 273.13 154.17 273.13 152.89V127.2C273.13 125.92 274.17 124.88 275.45 124.88H301.14C302.42 124.88 303.46 125.92 303.46 127.2V152.89C303.46 154.17 302.42 155.21 301.14 155.21Z" fill="#ACE2F9"/>
<path d="M344.36 155.21H318.67C317.39 155.21 316.35 154.17 316.35 152.89V127.2C316.35 125.92 317.39 124.88 318.67 124.88H344.36C345.64 124.88 346.68 125.92 346.68 127.2V152.89C346.69 154.17 345.64 155.21 344.36 155.21Z" stroke="#ACE2F9" stroke-width="1.3019" stroke-miterlimit="10"/>
<path d="M387.58 155.21H361.89C360.61 155.21 359.57 154.17 359.57 152.89V127.2C359.57 125.92 360.61 124.88 361.89 124.88H387.58C388.86 124.88 389.9 125.92 389.9 127.2V152.89C389.91 154.17 388.87 155.21 387.58 155.21Z" fill="#ACE2F9"/>
<path d="M171.48 195.91H145.79C144.51 195.91 143.47 194.87 143.47 193.59V167.9C143.47 166.62 144.51 165.58 145.79 165.58H171.48C172.76 165.58 173.8 166.62 173.8 167.9V193.59C173.8 194.87 172.76 195.91 171.48 195.91Z" fill="#ACE2F9"/>
<path d="M214.7 195.91H189.01C187.73 195.91 186.69 194.87 186.69 193.59V167.9C186.69 166.62 187.73 165.58 189.01 165.58H214.7C215.98 165.58 217.02 166.62 217.02 167.9V193.59C217.02 194.87 215.98 195.91 214.7 195.91Z" fill="#ACE2F9"/>
<path d="M257.92 195.91H232.23C230.95 195.91 229.91 194.87 229.91 193.59V167.9C229.91 166.62 230.95 165.58 232.23 165.58H257.92C259.2 165.58 260.24 166.62 260.24 167.9V193.59C260.24 194.87 259.2 195.91 257.92 195.91Z" stroke="#ACE2F9" stroke-width="1.3019" stroke-miterlimit="10"/>
<path d="M301.14 195.91H275.45C274.17 195.91 273.13 194.87 273.13 193.59V167.9C273.13 166.62 274.17 165.58 275.45 165.58H301.14C302.42 165.58 303.46 166.62 303.46 167.9V193.59C303.46 194.87 302.42 195.91 301.14 195.91Z" fill="#ACE2F9"/>
<path d="M344.36 195.91H318.67C317.39 195.91 316.35 194.87 316.35 193.59V167.9C316.35 166.62 317.39 165.58 318.67 165.58H344.36C345.64 165.58 346.68 166.62 346.68 167.9V193.59C346.69 194.87 345.64 195.91 344.36 195.91Z" fill="#ACE2F9"/>
<path d="M387.58 195.91H361.89C360.61 195.91 359.57 194.87 359.57 193.59V167.9C359.57 166.62 360.61 165.58 361.89 165.58H387.58C388.86 165.58 389.9 166.62 389.9 167.9V193.59C389.91 194.87 388.87 195.91 387.58 195.91Z" fill="#ACE2F9"/>
<path d="M171.48 236.62H145.79C144.51 236.62 143.47 235.58 143.47 234.3V208.61C143.47 207.33 144.51 206.29 145.79 206.29H171.48C172.76 206.29 173.8 207.33 173.8 208.61V234.3C173.8 235.58 172.76 236.62 171.48 236.62Z" fill="#ACE2F9"/>
<path d="M214.7 236.62H189.01C187.73 236.62 186.69 235.58 186.69 234.3V208.61C186.69 207.33 187.73 206.29 189.01 206.29H214.7C215.98 206.29 217.02 207.33 217.02 208.61V234.3C217.02 235.58 215.98 236.62 214.7 236.62Z" fill="#ACE2F9"/>
<path d="M257.92 236.62H232.23C230.95 236.62 229.91 235.58 229.91 234.3V208.61C229.91 207.33 230.95 206.29 232.23 206.29H257.92C259.2 206.29 260.24 207.33 260.24 208.61V234.3C260.24 235.58 259.2 236.62 257.92 236.62Z" fill="#ACE2F9"/>
<path d="M301.14 236.62H275.45C274.17 236.62 273.13 235.58 273.13 234.3V208.61C273.13 207.33 274.17 206.29 275.45 206.29H301.14C302.42 206.29 303.46 207.33 303.46 208.61V234.3C303.46 235.58 302.42 236.62 301.14 236.62Z" fill="#ACE2F9"/>
<path d="M344.36 236.62H318.67C317.39 236.62 316.35 235.58 316.35 234.3V208.61C316.35 207.33 317.39 206.29 318.67 206.29H344.36C345.64 206.29 346.68 207.33 346.68 208.61V234.3C346.69 235.58 345.64 236.62 344.36 236.62Z" fill="#ACE2F9"/>
<path d="M387.58 236.62H361.89C360.61 236.62 359.57 235.58 359.57 234.3V208.61C359.57 207.33 360.61 206.29 361.89 206.29H387.58C388.86 206.29 389.9 207.33 389.9 208.61V234.3C389.91 235.58 388.87 236.62 387.58 236.62Z" fill="#ACE2F9"/>
<path d="M171.48 277.32H145.79C144.51 277.32 143.47 276.28 143.47 275V249.31C143.47 248.03 144.51 246.99 145.79 246.99H171.48C172.76 246.99 173.8 248.03 173.8 249.31V275C173.8 276.28 172.76 277.32 171.48 277.32Z" stroke="#ACE2F9" stroke-width="1.3019" stroke-miterlimit="10"/>
<path d="M214.7 277.32H189.01C187.73 277.32 186.69 276.28 186.69 275V249.31C186.69 248.03 187.73 246.99 189.01 246.99H214.7C215.98 246.99 217.02 248.03 217.02 249.31V275C217.02 276.28 215.98 277.32 214.7 277.32Z" fill="#ACE2F9"/>
<path d="M257.92 277.32H232.23C230.95 277.32 229.91 276.28 229.91 275V249.31C229.91 248.03 230.95 246.99 232.23 246.99H257.92C259.2 246.99 260.24 248.03 260.24 249.31V275C260.24 276.28 259.2 277.32 257.92 277.32Z" fill="#ACE2F9"/>
<path d="M301.14 277.32H275.45C274.17 277.32 273.13 276.28 273.13 275V249.31C273.13 248.03 274.17 246.99 275.45 246.99H301.14C302.42 246.99 303.46 248.03 303.46 249.31V275C303.46 276.28 302.42 277.32 301.14 277.32Z" fill="#ACE2F9"/>
<path d="M344.36 277.32H318.67C317.39 277.32 316.35 276.28 316.35 275V249.31C316.35 248.03 317.39 246.99 318.67 246.99H344.36C345.64 246.99 346.68 248.03 346.68 249.31V275C346.69 276.28 345.64 277.32 344.36 277.32Z" fill="#ACE2F9"/>
<path d="M387.58 277.32H361.89C360.61 277.32 359.57 276.28 359.57 275V249.31C359.57 248.03 360.61 246.99 361.89 246.99H387.58C388.86 246.99 389.9 248.03 389.9 249.31V275C389.91 276.28 388.87 277.32 387.58 277.32Z" fill="#ACE2F9"/>
<path d="M154.45 94.2795C154.45 97.3295 151.98 99.7995 148.93 99.7995C145.88 99.7995 143.41 97.3295 143.41 94.2795C143.41 91.2295 145.88 88.7595 148.93 88.7595C151.98 88.7595 154.45 91.2295 154.45 94.2795Z" fill="#BDE7FF"/>
<path d="M195.91 99.7995C198.959 99.7995 201.43 97.3281 201.43 94.2795C201.43 91.2309 198.959 88.7595 195.91 88.7595C192.861 88.7595 190.39 91.2309 190.39 94.2795C190.39 97.3281 192.861 99.7995 195.91 99.7995Z" fill="#BDE7FF"/>
<path d="M242.89 99.7995C245.939 99.7995 248.41 97.3281 248.41 94.2795C248.41 91.2309 245.939 88.7595 242.89 88.7595C239.841 88.7595 237.37 91.2309 237.37 94.2795C237.37 97.3281 239.841 99.7995 242.89 99.7995Z" fill="#BDE7FF"/>
<path d="M295.39 94.2795C295.39 97.3295 292.92 99.7995 289.87 99.7995C286.82 99.7995 284.35 97.3295 284.35 94.2795C284.35 91.2295 286.82 88.7595 289.87 88.7595C292.92 88.7595 295.39 91.2295 295.39 94.2795Z" fill="#BDE7FF"/>
<path d="M342.37 94.2795C342.37 97.3295 339.9 99.7995 336.85 99.7995C333.8 99.7995 331.33 97.3295 331.33 94.2795C331.33 91.2295 333.8 88.7595 336.85 88.7595C339.9 88.7595 342.37 91.2295 342.37 94.2795Z" fill="#BDE7FF"/>
<path d="M389.35 94.2795C389.35 97.3295 386.88 99.7995 383.83 99.7995C380.78 99.7995 378.31 97.3295 378.31 94.2795C378.31 91.2295 380.78 88.7595 383.83 88.7595C386.88 88.7595 389.35 91.2295 389.35 94.2795Z" fill="#BDE7FF"/>
<path d="M148.94 94.2796V68.3796" stroke="#192469" stroke-width="5.4139" stroke-miterlimit="10" stroke-linecap="round"/>
<path d="M195.91 94.2796V68.3796" stroke="#192469" stroke-width="5.4139" stroke-miterlimit="10" stroke-linecap="round"/>
<path d="M242.89 94.2796V68.3796" stroke="#192469" stroke-width="5.4139" stroke-miterlimit="10" stroke-linecap="round"/>
<path d="M336.85 94.2796V68.3796" stroke="#192469" stroke-width="5.4139" stroke-miterlimit="10" stroke-linecap="round"/>
<path d="M383.83 94.2796V68.3796" stroke="#192469" stroke-width="5.4139" stroke-miterlimit="10" stroke-linecap="round"/>
<path d="M253.77 213.3C252.88 213.62 251.98 213.87 251.08 214.09C251.72 216.3 252.07 218.6 252.1 220.88H256.98C256.86 217.97 255.65 215.3 253.77 213.3ZM249.74 210.48C250.13 211.3 250.45 212.16 250.75 213.01C251.46 212.84 252.17 212.65 252.86 212.43C251.93 211.62 250.89 210.96 249.74 210.48ZM248.24 209.95C247.41 209.72 246.54 209.58 245.63 209.55V213.64C246.96 213.63 248.31 213.49 249.64 213.25C249.26 212.11 248.79 211.02 248.24 209.95ZM249.98 214.33C248.55 214.59 247.09 214.75 245.64 214.76V220.89H251C250.95 218.67 250.62 216.46 249.98 214.33ZM245.08 209.53C244.89 209.53 244.71 209.53 244.52 209.54H245.64C245.44 209.53 245.27 209.53 245.08 209.53ZM241.91 209.95C241.36 211.02 240.89 212.12 240.51 213.23C241.83 213.47 243.18 213.62 244.52 213.63V209.54C243.61 209.58 242.74 209.72 241.91 209.95ZM237.29 212.41C237.98 212.65 238.68 212.84 239.4 213.01C239.7 212.15 240.03 211.31 240.41 210.49C239.27 210.96 238.22 211.61 237.29 212.41ZM240.17 214.31C239.54 216.44 239.19 218.65 239.16 220.88H244.51V214.75C243.06 214.74 241.6 214.58 240.17 214.31ZM236.39 213.28C234.5 215.29 233.3 217.96 233.16 220.88H238.04C238.08 218.58 238.43 216.29 239.06 214.06C238.15 213.85 237.26 213.6 236.39 213.28ZM245.63 222V228.14C247.08 228.16 248.53 228.31 249.96 228.58C250.6 226.44 250.95 224.22 250.98 222H245.63ZM252.11 222C252.07 224.31 251.73 226.59 251.07 228.81C251.97 229.02 252.87 229.29 253.76 229.6C255.65 227.6 256.85 224.94 256.98 222.01H252.11V222ZM239.42 229.89C238.71 230.06 237.99 230.25 237.29 230.49C238.22 231.3 239.28 231.95 240.44 232.45C240.07 231.6 239.72 230.76 239.42 229.89ZM250.73 229.88C250.44 230.75 250.1 231.59 249.71 232.44C250.88 231.95 251.94 231.29 252.86 230.46C252.16 230.24 251.44 230.05 250.73 229.88ZM245.63 229.26V233.37C246.51 233.32 247.37 233.19 248.2 232.97C248.76 231.9 249.24 230.79 249.62 229.67C248.3 229.41 246.97 229.28 245.63 229.26ZM240.53 229.68C240.92 230.79 241.4 231.89 241.96 232.96C242.77 233.19 243.63 233.32 244.52 233.36V229.25C243.18 229.28 241.85 229.43 240.53 229.68ZM238.04 222H233.16C233.29 224.94 234.49 227.62 236.39 229.62C237.27 229.31 238.17 229.04 239.09 228.82C238.43 226.59 238.08 224.31 238.04 222ZM239.16 222C239.2 224.23 239.55 226.44 240.18 228.58C241.61 228.32 243.06 228.16 244.51 228.14V222H239.16Z" fill="white"/>
<path d="M244.51 233.36C244.7 233.37 244.88 233.37 245.07 233.37C245.26 233.37 245.44 233.37 245.63 233.36" fill="white"/>
<path d="M149.74 142.14L157.05 148.26L167.59 133.61" stroke="#E6505C" stroke-width="3.9056" stroke-miterlimit="10" stroke-linecap="round" stroke-linejoin="round"/>
<path d="M323.43 142.14L330.75 148.26L341.29 133.61" stroke="#E6505C" stroke-width="3.9056" stroke-miterlimit="10" stroke-linecap="round" stroke-linejoin="round"/>
<path d="M192.93 262.44L200.24 268.55L210.78 253.91" stroke="#E6505C" stroke-width="3.9056" stroke-miterlimit="10" stroke-linecap="round" stroke-linejoin="round"/>
<g opacity="0.25">
<path opacity="0.25" d="M345.799 157.939L329.221 168.189L336.815 180.471L353.393 170.222L345.799 157.939Z" fill="#2A507A"/>
<path opacity="0.25" d="M329.2 168.2C333.06 162.63 339.07 158.92 345.78 157.95L329.2 168.2Z" fill="#2A507A"/>
<path opacity="0.25" d="M470.724 157.937L463.13 170.22L479.708 180.47L487.302 168.187L470.724 157.937Z" fill="#2A507A"/>
<path opacity="0.25" d="M487.27 168.2C483.41 162.63 477.4 158.92 470.69 157.95L487.27 168.2Z" fill="#2A507A"/>
<path opacity="0.25" d="M423.48 147.11H392.98V157.08H423.48V147.11Z" fill="#2A507A"/>
<path opacity="0.25" d="M428.99 126.89V147.11H387.48V126.89C400.84 121.78 415.63 121.78 428.99 126.89Z" fill="#2A507A"/>
<path opacity="0.25" d="M389.83 147.11V126.9" stroke="#2A507A" stroke-width="1.0828" stroke-miterlimit="10"/>
<path opacity="0.25" d="M393.14 147.11V126.9" stroke="#2A507A" stroke-width="1.0828" stroke-miterlimit="10"/>
<path opacity="0.25" d="M396.45 147.11V126.9" stroke="#2A507A" stroke-width="1.0828" stroke-miterlimit="10"/>
<path opacity="0.25" d="M399.77 147.11V126.9" stroke="#2A507A" stroke-width="1.0828" stroke-miterlimit="10"/>
<path opacity="0.25" d="M403.08 147.11V126.9" stroke="#2A507A" stroke-width="1.0828" stroke-miterlimit="10"/>
<path opacity="0.25" d="M406.4 147.11V126.9" stroke="#2A507A" stroke-width="1.0828" stroke-miterlimit="10"/>
<path opacity="0.25" d="M409.71 147.11V126.9" stroke="#2A507A" stroke-width="1.0828" stroke-miterlimit="10"/>
<path opacity="0.25" d="M413.02 147.11V126.9" stroke="#2A507A" stroke-width="1.0828" stroke-miterlimit="10"/>
<path opacity="0.25" d="M416.34 147.11V126.9" stroke="#2A507A" stroke-width="1.0828" stroke-miterlimit="10"/>
<path opacity="0.25" d="M419.65 147.11V126.9" stroke="#2A507A" stroke-width="1.0828" stroke-miterlimit="10"/>
<path opacity="0.25" d="M422.97 147.11V126.9" stroke="#2A507A" stroke-width="1.0828" stroke-miterlimit="10"/>
<path opacity="0.25" d="M426.28 147.11V126.9" stroke="#2A507A" stroke-width="1.0828" stroke-miterlimit="10"/>
<path opacity="0.25" d="M428.99 126.89H387.48C400.84 121.78 415.63 121.78 428.99 126.89Z" fill="#2A507A"/>
<path opacity="0.25" d="M493.214 358.648C540.151 311.712 540.151 235.612 493.214 188.676C446.277 141.739 370.178 141.739 323.241 188.676C276.305 235.612 276.305 311.712 323.241 358.648C370.178 405.585 446.277 405.585 493.214 358.648Z" fill="#2A507A"/>
<path opacity="0.7" d="M484.792 350.227C527.078 307.941 527.078 239.383 484.792 197.097C442.507 154.812 373.948 154.812 331.663 197.097C289.377 239.383 289.377 307.941 331.663 350.227C373.948 392.512 442.507 392.512 484.792 350.227Z" fill="#2A507A"/>
<path opacity="0.25" d="M482.112 347.547C522.918 306.742 522.918 240.583 482.112 199.777C441.307 158.972 375.148 158.972 334.343 199.777C293.537 240.583 293.537 306.741 334.343 347.547C375.148 388.352 441.307 388.352 482.112 347.547Z" fill="#2A507A"/>
<path opacity="0.25" d="M506.22 273.66H495.94" stroke="#2A507A" stroke-width="5.4139" stroke-miterlimit="10" stroke-linecap="round"/>
<path opacity="0.25" d="M408.23 371.65V361.36" stroke="#2A507A" stroke-width="5.4139" stroke-miterlimit="10" stroke-linecap="round"/>
<path opacity="0.25" d="M310.24 273.66H320.53" stroke="#2A507A" stroke-width="5.4139" stroke-miterlimit="10" stroke-linecap="round"/>
<path opacity="0.25" d="M408.23 175.67V185.95" stroke="#2A507A" stroke-width="5.4139" stroke-miterlimit="10" stroke-linecap="round"/>
<path opacity="0.25" d="M493.09 322.66L484.19 317.51" stroke="#2A507A" stroke-width="3.2483" stroke-miterlimit="10" stroke-linecap="round"/>
<path opacity="0.25" d="M359.23 358.52L364.38 349.61" stroke="#2A507A" stroke-width="3.2483" stroke-miterlimit="10" stroke-linecap="round"/>
<path opacity="0.25" d="M323.37 224.66L332.28 229.8" stroke="#2A507A" stroke-width="3.2483" stroke-miterlimit="10" stroke-linecap="round"/>
<path opacity="0.25" d="M457.23 188.8L452.09 197.7" stroke="#2A507A" stroke-width="3.2483" stroke-miterlimit="10" stroke-linecap="round"/>
<path opacity="0.25" d="M457.21 358.53L452.07 349.62" stroke="#2A507A" stroke-width="3.2483" stroke-miterlimit="10" stroke-linecap="round"/>
<path opacity="0.25" d="M323.36 322.64L332.27 317.5" stroke="#2A507A" stroke-width="3.2483" stroke-miterlimit="10" stroke-linecap="round"/>
<path opacity="0.25" d="M359.25 188.78L364.39 197.69" stroke="#2A507A" stroke-width="3.2483" stroke-miterlimit="10" stroke-linecap="round"/>
<path opacity="0.25" d="M493.1 224.68L484.2 229.82" stroke="#2A507A" stroke-width="3.2483" stroke-miterlimit="10" stroke-linecap="round"/>
<path opacity="0.25" d="M433.73 311.89C432.73 311.89 431.74 311.43 431.1 310.55L404.58 274.16L430.68 203.46C431.3 201.78 433.17 200.92 434.85 201.54C436.53 202.16 437.39 204.03 436.77 205.71L411.88 273.15L436.35 306.72C437.41 308.17 437.09 310.2 435.64 311.26C435.07 311.68 434.4 311.89 433.73 311.89Z" fill="#2A507A"/>
<path opacity="0.25" d="M416.35 273.66C416.35 278.15 412.71 281.78 408.23 281.78C403.74 281.78 400.11 278.14 400.11 273.66C400.11 269.18 403.75 265.54 408.23 265.54C412.72 265.54 416.35 269.17 416.35 273.66Z" fill="#2A507A"/>
</g>
<path d="M340.589 152.735L324.01 162.985L331.604 175.267L348.183 165.017L340.589 152.735Z" fill="#C13D4C"/>
<path d="M323.99 162.99C327.85 157.42 333.86 153.71 340.57 152.74L323.99 162.99Z" fill="#C13D4C"/>
<path d="M465.509 152.726L457.915 165.009L474.493 175.259L482.087 162.976L465.509 152.726Z" fill="#C13D4C"/>
<path d="M482.06 162.99C478.2 157.42 472.19 153.71 465.48 152.74L482.06 162.99Z" fill="#C13D4C"/>
<path d="M418.28 141.9H387.78V151.87H418.28V141.9Z" fill="#C13D4C"/>
<path d="M423.78 121.68V141.9H382.27V121.68C395.63 116.57 410.42 116.57 423.78 121.68Z" fill="#E6505C"/>
<path d="M384.62 141.9V121.69" stroke="#101747" stroke-width="1.0828" stroke-miterlimit="10"/>
<path d="M387.93 141.9V121.69" stroke="#101747" stroke-width="1.0828" stroke-miterlimit="10"/>
<path d="M391.25 141.9V121.69" stroke="#101747" stroke-width="1.0828" stroke-miterlimit="10"/>
<path d="M394.56 141.9V121.69" stroke="#101747" stroke-width="1.0828" stroke-miterlimit="10"/>
<path d="M397.87 141.9V121.69" stroke="#101747" stroke-width="1.0828" stroke-miterlimit="10"/>
<path d="M401.19 141.9V121.69" stroke="#101747" stroke-width="1.0828" stroke-miterlimit="10"/>
<path d="M404.5 141.9V121.69" stroke="#101747" stroke-width="1.0828" stroke-miterlimit="10"/>
<path d="M407.82 141.9V121.69" stroke="#101747" stroke-width="1.0828" stroke-miterlimit="10"/>
<path d="M411.13 141.9V121.69" stroke="#101747" stroke-width="1.0828" stroke-miterlimit="10"/>
<path d="M414.44 141.9V121.69" stroke="#101747" stroke-width="1.0828" stroke-miterlimit="10"/>
<path d="M417.76 141.9V121.69" stroke="#101747" stroke-width="1.0828" stroke-miterlimit="10"/>
<path d="M421.07 141.9V121.69" stroke="#101747" stroke-width="1.0828" stroke-miterlimit="10"/>
<path d="M423.78 121.68H382.27C395.63 116.57 410.42 116.57 423.78 121.68Z" fill="#C13D4C"/>
<path d="M488.01 353.434C534.947 306.497 534.947 230.398 488.01 183.461C441.073 136.524 364.974 136.524 318.037 183.461C271.101 230.398 271.101 306.497 318.037 353.434C364.974 400.37 441.073 400.37 488.01 353.434Z" fill="#E6505C"/>
<path opacity="0.7" d="M477.694 344.694C519.98 302.409 519.98 233.85 477.694 191.565C435.409 149.279 366.85 149.279 324.565 191.565C282.279 233.85 282.279 302.409 324.565 344.694C366.85 386.98 435.409 386.98 477.694 344.694Z" fill="#ACE2F9"/>
<path d="M403.03 372.94C460.738 372.94 507.52 326.158 507.52 268.45C507.52 210.741 460.738 163.96 403.03 163.96C345.322 163.96 298.54 210.741 298.54 268.45C298.54 326.158 345.322 372.94 403.03 372.94Z" fill="white"/>
<path d="M501.02 268.45H490.73" stroke="#192469" stroke-width="5.4139" stroke-miterlimit="10" stroke-linecap="round"/>
<path d="M403.03 366.44V356.15" stroke="#192469" stroke-width="5.4139" stroke-miterlimit="10" stroke-linecap="round"/>
<path d="M305.03 268.45H315.32" stroke="#192469" stroke-width="5.4139" stroke-miterlimit="10" stroke-linecap="round"/>
<path d="M403.03 170.46V180.74" stroke="#192469" stroke-width="5.4139" stroke-miterlimit="10" stroke-linecap="round"/>
<g opacity="0.3">
<g opacity="0.3">
<g opacity="0.3">
<path opacity="0.3" d="M487.89 317.45L478.98 312.3" stroke="#101747" stroke-width="3.2483" stroke-miterlimit="10" stroke-linecap="round"/>
</g>
<g opacity="0.3">
<path opacity="0.3" d="M354.03 353.31L359.17 344.4" stroke="#101747" stroke-width="3.2483" stroke-miterlimit="10" stroke-linecap="round"/>
</g>
<g opacity="0.3">
<path opacity="0.3" d="M318.16 219.45L327.07 224.59" stroke="#101747" stroke-width="3.2483" stroke-miterlimit="10" stroke-linecap="round"/>
</g>
<g opacity="0.3">
<path opacity="0.3" d="M452.02 183.59L446.88 192.5" stroke="#101747" stroke-width="3.2483" stroke-miterlimit="10" stroke-linecap="round"/>
</g>
<g opacity="0.3">
<path opacity="0.3" d="M452.01 353.32L446.86 344.41" stroke="#101747" stroke-width="3.2483" stroke-miterlimit="10" stroke-linecap="round"/>
</g>
<g opacity="0.3">
<path opacity="0.3" d="M318.15 317.43L327.06 312.29" stroke="#101747" stroke-width="3.2483" stroke-miterlimit="10" stroke-linecap="round"/>
</g>
<g opacity="0.3">
<path opacity="0.3" d="M354.05 183.58L359.19 192.49" stroke="#101747" stroke-width="3.2483" stroke-miterlimit="10" stroke-linecap="round"/>
</g>
<g opacity="0.3">
<path opacity="0.3" d="M487.9 219.469L478.99 224.609" stroke="#101747" stroke-width="3.2483" stroke-miterlimit="10" stroke-linecap="round"/>
</g>
</g>
</g>
<path d="M428.52 306.68C427.52 306.68 426.53 306.219 425.89 305.339L399.37 268.95L425.47 198.25C426.09 196.57 427.96 195.71 429.64 196.33C431.32 196.95 432.18 198.82 431.56 200.5L406.67 267.939L431.14 301.509C432.2 302.959 431.88 304.99 430.43 306.05C429.86 306.48 429.19 306.68 428.52 306.68Z" fill="#E6505C"/>
<path d="M403.03 276.57C407.514 276.57 411.15 272.934 411.15 268.45C411.15 263.965 407.514 260.33 403.03 260.33C398.545 260.33 394.91 263.965 394.91 268.45C394.91 272.934 398.545 276.57 403.03 276.57Z" fill="#192469"/>
<path d="M500.03 391.08L502.96 396.15L506.69 395.43L504.13 389.49" fill="#FDAEB3"/>
<path d="M506.69 395.06C506.69 395.06 505.81 395.77 504.05 395.76C504.05 395.76 503.1 395.49 502.8 395.56C502.5 395.63 501.99 396.47 501.78 396.71C501.56 396.95 500.48 397.71 499.8 398.03C499.28 398.27 497.3 398.96 496.94 399.73C496.79 400.05 497.04 400.42 497.39 400.42C497.99 400.41 499.63 400.38 500.78 400.36C501.5 400.35 502.21 400.25 502.9 400.05C505.06 399.4 507.74 398.49 507.88 398.34C508.05 398.17 507.81 395.88 506.69 395.06Z" fill="#004BA8"/>
<path d="M473.7 341.82C459.36 332.61 461.13 346.37 461.13 346.37L501.58 394.24C501.58 394.24 504.15 394.18 505.51 391.74C505.51 391.73 489.9 352.31 473.7 341.82Z" fill="#003977"/>
<path d="M478.43 300.76C478.43 300.76 480.11 304.28 479.68 308.79C479.3 312.85 478.37 316.29 478.03 320C477.69 323.7 473.39 345.76 473.39 345.76C473.39 345.76 461.77 349.29 460.93 345.83C459.23 338.84 456.83 301 456.83 301C456.83 301 468.02 303.35 478.43 300.76Z" fill="#003977"/>
<path d="M482.83 299.68C482.83 299.68 486.28 308.96 474.76 319.62C471.77 322.39 469.04 323.44 465.37 326.85C462.64 329.38 445.9 345.96 445.9 345.96C445.9 345.96 435.55 337.74 436.85 334.43C439.48 327.73 458.05 294.19 458.05 294.19C458.05 294.19 472.82 295.82 482.83 299.68Z" fill="#004BA8"/>
<path d="M422.92 391.14L421.5 396.87L425.3 397.05L428.37 391.62" fill="#FDAEB3"/>
<path d="M448.97 338.33C447.97 319.06 436.85 334.42 436.85 334.42L422.19 393.18C422.19 393.18 423.92 394.98 426.78 395.02C426.78 395.02 449.97 357.6 448.97 338.33Z" fill="#004BA8"/>
<path d="M486.72 236C481.95 238.34 473.95 236.32 473.95 236.32L476.63 227.78L477.78 224.13C477.78 224.13 478.6 223.43 479.81 222.46C483.53 219.46 490.95 213.98 489.02 219.33C486.46 226.39 486.72 236 486.72 236Z" fill="#FDAEB3"/>
<path d="M482.3 223.58C482.3 223.58 480.24 226.41 476.64 227.77L477.79 224.12C477.79 224.12 478.61 223.42 479.82 222.45L480.22 222.38L482.3 223.58Z" fill="#E58099"/>
<path d="M472.07 207.65C472.07 207.65 468.97 223.17 471.42 225.77C473.88 228.37 485.35 223.59 485.35 223.59C485.35 223.59 494.32 215.2 493.69 207.63C493.15 201.24 479.73 195.89 473.96 202.5C472.89 203.71 472.52 205.55 472.07 207.65Z" fill="#FDAEB3"/>
<path d="M470.85 197.22C470.85 197.22 468.32 205.2 474.3 208.09C478.27 210 482.8 210.43 482.8 212.39C482.79 214.35 483.64 212.93 484.51 212.57C486.37 211.8 487.29 214.37 486.14 216.78C485.27 218.62 485.37 221.5 488.16 222.2C488.16 222.2 491.3 218.09 492.88 215.27C494.13 213.04 497.36 205.2 492.13 203.49C491.79 201.74 490.17 199.99 488.33 199.15C483.32 196.85 478.62 197.54 475.02 197.69C473.37 197.76 471.58 194.31 470.85 197.22Z" fill="#1D2468"/>
<path d="M460.94 249.75C459.07 249 456.36 247.76 453.51 246.41C451.28 245.35 448.97 244.21 446.92 243.19C443.11 241.31 440.15 239.8 440.15 239.8C440.15 239.8 442.62 232.2 444.21 231.87C445.15 231.68 452.25 232.98 457.84 234.06C459.03 234.29 460.16 234.51 461.14 234.72C463.3 235.13 464.75 235.43 464.75 235.43L460.94 249.75Z" fill="#FDAEB3"/>
<path d="M440.16 239.79C436.59 237.99 435.11 235.66 431.24 228.27C429.85 225.61 426.75 219.41 425.54 216.84L426.86 213.27C427.59 213.72 437.74 223.53 439.07 225.08C441.19 227.55 444.23 231.87 444.23 231.87C445.74 234.53 443.73 241.6 440.16 239.79Z" fill="#FDAEB3"/>
<path d="M474.03 237.13C468.2 235.19 455.07 232.84 455.07 232.84C455.07 232.84 451.48 240.91 451.34 246.8C455.58 249.47 466.21 252.72 466.21 252.72" fill="#FCAE24"/>
<path d="M489.53 272.73C489.37 273.07 489.2 273.42 489.04 273.76C488.19 275.44 487.37 277.13 486.64 278.84C480.76 292.44 482.83 299.7 482.83 299.7C473.17 300.96 457.01 296.12 457.01 296.12C457.01 296.12 457.05 294.74 457.02 293.66C456.92 288.87 456.73 274.76 458.01 262.97C458.13 261.97 458.24 260.99 458.39 260.04C459.03 255.28 459.97 251.11 461.31 248.4C466.8 237.28 473.95 236.32 473.95 236.32C480.6 237.11 486.72 236.01 486.72 236.01C498.25 242.61 495.23 260.75 489.53 272.73Z" fill="#FECB22"/>
<path d="M439.69 257.98C439.69 257.98 439.2 250 440.56 249.12C441.37 248.59 448.45 247.2 454.04 246.17C455.24 245.94 456.37 245.74 457.36 245.57C459.51 245.16 460.97 244.91 460.97 244.91L462.67 259.64C456.16 259.6 439.69 257.98 439.69 257.98Z" fill="#FDAEB3"/>
<path d="M440.56 249.11C440.56 249.11 436.83 245.9 433.95 244.37C432.15 243.42 425.26 240.73 420.44 238.57C417.54 237.27 415.47 235.92 415.47 235.92L413.98 238.23C413.98 238.23 420.88 245.04 427.17 250.51C433.46 255.98 435.7 257.6 439.68 257.98C443.67 258.35 442.95 251.04 440.56 249.11Z" fill="#FDAEB3"/>
<path d="M479.08 259.64C471.82 263.78 460.52 263.16 458.02 262.96C458.14 261.96 458.25 260.98 458.4 260.03L479.08 259.64Z" fill="#FCAE24"/>
<path d="M480.95 258.96C471.92 262.68 457.56 260.7 457.56 260.7C455.55 253.68 456 245.58 456 245.58C459.75 244.33 471.08 242.51 471.08 242.51C471.08 242.51 482.59 241.06 484.28 248.86C486.02 256.9 480.95 258.96 480.95 258.96Z" fill="#FECB22"/>
<path d="M414.77 239C414.77 239 413.8 237.99 412.64 238.01C411.51 238.03 410.13 237.08 410.02 236.52C409.91 235.96 411.59 233.26 411.89 233.08C412.19 232.9 413.7 234.05 414.2 234.22C414.7 234.4 414.61 235.37 416.23 236.39" fill="#FDAEB3"/>
<path d="M414.92 235.38C414.92 235.38 414.98 234.66 414.43 233.54C414.29 233.25 413.93 232.19 413.75 232.19C413.57 232.19 413.33 232.42 413.26 232.69C413.19 232.96 413.29 233.97 413.29 233.97" fill="#FDAEB3"/>
<path d="M473.95 236.32L475.45 234.36C475.45 234.36 481.39 235.69 486.72 234.49V236L481.98 236.99C481.99 236.98 478.13 237.85 473.95 236.32Z" fill="#FCAE24"/>
<path d="M475.45 234.36L475.83 238.86C475.83 238.86 483.38 238.57 487.59 236.54L486.74 233.96C486.73 233.95 482.61 235.07 475.45 234.36Z" fill="#FFD664"/>
<path d="M425.6 396.52C425.6 396.52 423.99 397.1 422.44 396.84C422.44 396.84 422.06 396.01 421.43 396C420.8 395.99 420.03 396.86 419.61 397.06C419.19 397.26 411.12 399.72 413.83 400.27C413.93 400.39 423.4 400.42 425.48 400.42C425.73 400.42 425.94 400.25 425.99 400C426.14 399.28 426.53 397.71 425.6 396.52Z" fill="#004BA8"/>
<path d="M472.03 241.83C472.03 241.83 475.22 240.39 478.82 242.06C482.94 243.96 485.69 247.56 484.28 253.37" stroke="white" stroke-width="0.2469" stroke-miterlimit="10" stroke-linecap="round"/>
<path d="M483.16 238.38C483.16 238.38 483.76 241.61 481.23 243.52" stroke="white" stroke-width="0.2469" stroke-miterlimit="10" stroke-linecap="round"/>
<path d="M420.68 211.23C420.68 211.23 420.59 207.57 421.45 206.59C422.32 205.61 423.97 205.5 424.19 206.81C424.41 208.11 421.07 210.17 421.07 210.17L420.68 211.23Z" fill="#FDAEB3"/>
<path d="M169.93 342.1C168.59 352.12 163.15 390.82 163.15 390.82H159.05C159.05 390.82 155.57 359 156.74 351.42C157.92 343.82 158.72 341.45 158.37 338.1C158.33 337.72 156.58 330.05 155.14 323.73C154.93 322.83 154.73 321.97 154.55 321.16C153.8 317.89 153.23 315.45 153.23 315.45H169.96C169.95 315.44 170.28 339.44 169.93 342.1Z" fill="#FDAEB3"/>
<path d="M168.72 320.56C163.98 322.6 155.53 323.67 155.14 323.72C154.93 322.82 154.73 321.96 154.55 321.15L154.57 320.97L158.63 319.27C158.62 319.27 173.57 318.46 168.72 320.56Z" fill="#E58099"/>
<path d="M163.15 390.82C163.15 390.82 163.03 391.83 163.46 392.58C163.89 393.34 165.17 396.72 167.83 398.89L168.16 399.78L165.76 399.98C165.76 399.98 162.31 397.91 162.08 397.51C161.85 397.12 160.96 395.39 160.7 394.85C160.44 394.32 159.32 393.33 159.32 392.87C159.32 392.41 158.86 390.81 158.86 390.81C158.86 390.81 160.24 389.68 160.47 389.61C160.7 389.54 161.72 389.45 161.72 389.45L163.15 390.82Z" fill="#FDAEB3"/>
<path d="M158.95 389.89C158.95 389.89 157.2 392.33 157.44 394.78C157.59 396.3 158.25 399.24 158.24 401.42H158.8L159.72 396.49C159.72 396.49 163.79 400.97 164.71 401.19C165.63 401.41 169.35 401.41 169.54 401.41C169.74 401.41 172.63 400.76 167.83 398.88C167.83 398.88 167.86 399.83 165.96 398.85C164.05 397.86 162.28 395.89 161.06 394.28C160.42 393.44 159.25 391.62 158.95 389.89Z" fill="#423D73"/>
<path d="M156.11 314.17C156.11 314.17 156.11 315.82 155.96 318.51C155.91 319.28 155.87 320.14 155.79 321.06C155.35 326.67 154.33 334.9 151.93 342.71C148.96 352.38 135.98 390.05 135.98 390.05L131.92 389.48C131.92 389.48 134.9 358.21 137.11 350.85C139.32 343.49 142.84 340.62 142.95 337.26C143.01 335.35 142.15 328.53 141.39 323.03C141.14 321.18 140.91 319.48 140.72 318.16C140.48 316.51 140.33 315.45 140.33 315.45L156.11 314.17Z" fill="#FDAEB3"/>
<path d="M135.99 390.04C135.99 390.04 135.73 391.02 136.05 391.83C136.37 392.64 137.17 396.17 139.51 398.68L139.71 399.6L137.31 399.47C137.31 399.47 134.18 396.94 134 396.52C133.83 396.1 133.18 394.26 133 393.7C132.81 393.14 131.84 392.01 131.9 391.55C131.96 391.09 131.73 389.45 131.73 389.45C131.73 389.45 133.25 388.52 133.49 388.49C133.73 388.46 134.75 388.5 134.75 388.5L135.99 390.04Z" fill="#FDAEB3"/>
<path d="M131.96 388.54C131.96 388.54 129.89 390.71 129.79 393.18C129.73 394.7 129.98 397.71 129.67 399.86L130.23 399.94L131.82 395.19C131.82 395.19 135.23 400.18 136.11 400.53C136.99 400.88 140.67 401.39 140.87 401.42C141.07 401.45 144.02 401.2 139.52 398.68C139.52 398.68 139.42 399.63 137.67 398.39C135.92 397.15 134.43 394.95 133.45 393.19C132.92 392.26 132.01 390.3 131.96 388.54Z" fill="#423D73"/>
<path d="M156.78 320.38C156.47 320.63 156.14 320.85 155.79 321.05C151.38 323.63 143.72 323.21 141.39 323.02C141.14 321.17 140.91 319.47 140.72 318.15C145.58 317.9 152.89 317.71 155.95 318.5C157.4 318.89 157.9 319.47 156.78 320.38Z" fill="#E58099"/>
<path d="M188.82 227.61C188.82 227.61 188.95 232.75 187.32 233.98C186.08 234.91 175.2 234.58 170.1 234.37C168.5 234.3 167.47 234.25 167.47 234.25L168.08 229.21L168.65 224.52L188.82 227.61Z" fill="#FDAEB3"/>
<path d="M186.55 228.17C186.55 228.17 190.27 226.16 193.58 225.61C196.89 225.06 211.67 221.27 211.67 221.27L212.82 224.17C212.82 224.17 199.12 232.83 185.72 234.36L186.55 228.17Z" fill="#FDAEB3"/>
<path d="M211.67 221.26C211.67 221.26 212.48 220.59 212.82 219.87C213.16 219.15 213.77 218.15 214.78 217.8C215.78 217.45 216.56 216.94 216.84 217.06C217.12 217.17 217.03 217.83 216.46 218.08C215.89 218.33 215.08 218.96 215.12 219.16C215.16 219.36 217.52 218.02 217.77 217.94C218.02 217.86 220.69 216.79 221.05 216.85C221.41 216.91 221.15 217.71 219.79 218.25C218.76 218.65 218.19 219.18 218.27 219.43C218.35 219.69 219.3 220.54 218.43 221.99C217.55 223.44 216.67 224.09 215.54 224.22C214.41 224.35 213.28 224.14 212.43 224.4" fill="#FDAEB3"/>
<path d="M173.55 225.02C173.55 225.02 173.55 231.96 172.64 234.78C172.64 234.78 170.05 234.98 166.42 234.7C165.14 234.61 163.73 234.46 162.26 234.22C161.63 234.11 160.99 233.99 160.33 233.86V222.4C160.34 222.4 167.87 223.07 173.55 225.02Z" fill="#FECB22"/>
<path d="M166.42 234.7C165.14 234.61 163.73 234.46 162.26 234.22L161.94 233.74L162.76 230.22C162.76 230.22 164.7 232.66 166.42 234.7Z" fill="#FCAE24"/>
<path d="M166.49 271.34C166.49 271.34 157.41 277.32 139.39 271.86C139.39 271.86 142.32 261.51 141.33 254.73C141.06 252.86 140.03 250 138.68 246.82C137.85 244.88 136.92 242.85 135.95 240.84C134.29 237.38 132.58 234.06 131.32 231.68C130.25 229.63 131.19 227.12 133.34 226.27C138.22 224.32 147.52 221.6 160.33 222.39C161.11 224.18 162.48 230.21 163.26 231.35C167.12 237.02 166.64 237.63 165.83 241.87C164.67 247.83 163.54 262.35 166.49 271.34Z" fill="#FECB22"/>
<path d="M139.99 237.03C139.99 237.03 139.51 242.7 138.68 246.83C137.85 244.89 136.92 242.86 135.95 240.85L139.99 237.03Z" fill="#FCAE24"/>
<path d="M140.51 270.45C140.51 270.45 137.31 273.15 136.21 282.41C135.11 291.67 140.51 320.33 140.51 320.33C140.51 320.33 148.78 324.3 170.38 320.33C170.38 320.33 170.82 285.39 165.97 269.46L140.51 270.45Z" fill="#003977"/>
<path d="M143.21 220.28C143.21 220.28 141.23 223.82 139.88 224.18C139.88 224.18 146.16 226.67 150.2 226.33C154.24 225.99 156.28 222.27 156.28 222.27C156.28 222.27 152.99 221.93 152.54 218.18" fill="#FDAEB3"/>
<path d="M152.98 212.79C152.98 212.79 152.9 213.7 152.82 214.6C152.74 215.38 152.67 216.14 152.66 216.31C152.48 218.21 152.55 219.72 152.28 222.26L143.22 220.28C143.22 220.28 144.83 218.56 143.75 209.86L152.82 212.74L152.98 212.79Z" fill="#FDAEB3"/>
<path d="M152.98 212.79C152.98 212.79 152.9 213.7 152.82 214.6C150.86 214.65 148.6 214.22 148.6 214.22L152.82 212.73L152.98 212.79Z" fill="#E58099"/>
<path d="M145.55 189.89C145.55 189.89 148.3 187.88 150.57 189.61C152.84 191.35 153.12 194.95 152.01 197.4C150.9 199.85 145.2 192.29 145.2 192.29" fill="#332F62"/>
<path d="M157.71 210.85C157.76 211.61 157.28 212.31 156.57 212.58C154.48 213.37 149.9 214.76 145.05 214.05C139.07 213.18 133.28 196.77 145.33 191.21C147.68 190.13 156.9 197.44 157.71 210.85Z" fill="#FDAEB3"/>
<path d="M131.5 201.71C131.5 201.71 129.42 202.2 128.88 203.44C128.88 203.44 131.41 202.32 132.51 203.23" fill="#332F62"/>
<path d="M133.42 202.22C133.42 202.22 128.89 203.34 126.13 200.24C122.32 195.96 129.6 187.03 135.54 195.33" fill="#332F62"/>
<path d="M132.14 203.72C132.14 203.72 131.37 203.45 131.13 202.54C130.79 201.23 130.57 197.2 134.13 193.65C134.13 193.65 135.06 192.81 135.7 193.31" fill="#FAC12A"/>
<path d="M144.06 215.35C144.06 215.35 134.18 212.56 131.82 203.05C129.46 193.54 143.81 184.17 149.85 193.22C149.85 193.22 145.57 194.13 144.4 197.3C143.23 200.47 143.97 205.08 142.72 204.29C141.43 203.48 139.59 204.52 139.87 206.33C140.1 207.81 142.4 209.6 143.57 211.6C144.28 212.81 144.44 214.49 144.06 215.35Z" fill="#332F62"/>
<path d="M149.87 191.53C149.87 191.53 154.5 196.24 144.77 200.91C145.26 199.06 142.62 194.55 142.62 194.55" fill="#332F62"/>
<path d="M107.5 266.18L147.88 256.51C148.27 256.42 148.66 256.66 148.75 257.04L155.32 284.5C155.41 284.89 155.17 285.28 154.79 285.37L114.41 295.04C114.02 295.13 113.63 294.89 113.54 294.51L106.97 267.05C106.88 266.66 107.11 266.27 107.5 266.18Z" fill="#423D73"/>
<path d="M115.48 293.221L152.98 284.241L146.778 258.343L109.278 267.324L115.48 293.221Z" fill="white"/>
<path d="M149.799 266.976L147.884 267.439L150.287 277.383L152.202 276.92L149.799 266.976Z" fill="#9E9DBA"/>
<path d="M131.33 261.68C131.33 261.68 126.25 260.89 125.33 259.07C124.63 257.69 126.89 247.04 128 242.05C128.35 240.49 128.59 239.48 128.59 239.48L133.44 240.97L137.95 242.36L131.33 261.68Z" fill="#FDAEB3"/>
<path d="M131.18 259.35C131.18 259.35 132.5 263.37 132.45 266.73C132.41 270.09 133.51 285.31 133.51 285.31L130.46 285.93C130.46 285.93 124.37 270.91 125.25 257.45L131.18 259.35Z" fill="#FDAEB3"/>
<path d="M130.46 285.92C130.46 285.92 130.73 289.14 131.26 290.32C132.62 293.33 136.46 290.46 136.89 289.65C136.89 289.65 135.78 289.78 134.99 287.64C134.73 286.92 133.95 286.4 133.79 286.21C133.63 286.03 133.51 285.3 133.51 285.3" fill="#FDAEB3"/>
<path d="M131.14 228.54C131.14 228.54 128.48 237.67 127.68 243.47C127.68 243.47 131.83 245.36 137.34 245.52C137.34 245.52 139.43 240.39 140.24 235.74" fill="#FECB22"/>
<path d="M318.98 71.7399H270.4C270.4 71.7399 270.42 71.0699 270.88 70.0399C273.65 65.9699 275.12 63.9699 277.73 61.3199C282.77 59.7799 285.35 59.4399 292.92 58.2099L301.47 57.6599C301.47 57.6599 312.33 60.1799 315.98 62.7899C317.86 64.9199 319.09 67.8099 318.98 71.7399Z" fill="#FECB22"/>
<path d="M302.88 71.7398H270.4C270.4 71.7398 270.43 71.0698 270.88 70.0398C272.07 69.6598 273.57 69.7098 274.73 70.0098C275.92 70.3298 276.71 70.5298 276.71 70.5298C276.71 70.5298 293.73 70.5298 297.83 70.5298C301.96 70.5398 302.88 71.7398 302.88 71.7398Z" fill="#F29127"/>
<path d="M299.27 49.7299C299.27 49.7299 299.68 47.3999 299.41 45.9899C299.14 44.5799 297.84 42.6999 297.71 42.6799C297.58 42.6599 295.88 43.0599 295.91 43.1299C295.94 43.1999 295.91 45.6599 295.91 45.6599C295.91 45.6599 296.52 49.1999 296.7 49.5599C296.88 49.9199 297.61 51.3499 297.7 51.3699C297.79 51.3899 298.53 51.0999 298.53 51.0999L299.27 49.7299Z" fill="#FDAEB3"/>
<path d="M294.86 62.5C293.56 62.58 292.37 61.69 292.07 60.42C291.97 59.99 291.71 59.38 291.39 58.7C291.03 57.89 290.6 57.01 290.32 56.28L293.17 54.2L299.25 49.73C299.25 49.73 300.01 55.43 301.46 57.67C301.47 57.67 301.96 62.1 294.86 62.5Z" fill="#FDAEB3"/>
<path d="M296.25 53.1699C296.08 53.4399 293.57 57.2299 291.39 58.6999C291.03 57.8899 290.6 57.0099 290.32 56.2799L293.17 54.1999L296.25 53.1699Z" fill="#E58099"/>
<path d="M298.16 47.0999C298.29 48.4199 298.33 49.6099 298.24 50.4699C298.23 50.5799 298.21 50.7099 298.18 50.8299C298.16 50.9399 298.14 51.0699 298.1 51.1999C297.14 55.0099 285.35 59.3899 284.99 59.1599C278.41 54.9299 276.12 39.2499 276.81 38.2099C277.56 37.0699 286.9 35.9799 287.09 35.9699C287.28 35.9499 296.26 36.5999 296.26 36.5999C296.26 36.5999 297.71 42.6199 298.16 47.0999Z" fill="#FDAEB3"/>
<path d="M272.51 34.5299C272.51 34.5299 272.8 41.3699 284.04 38.6399C287.13 37.8899 289.85 37.1899 291.38 38.0099C293.68 45.2399 293.75 48.7099 294.57 48.4299C295.59 48.0699 292.83 42.0699 296.35 42.7199C299.04 43.2199 299.27 49.7399 299.27 49.7399C299.27 49.7399 299.5 50.2699 299.59 48.7499C299.65 47.8399 300.27 33.1699 298.04 30.0999C295.81 27.0199 292.63 28.8799 292.63 28.8799C292.63 28.8799 292.82 21.4599 282.18 26.9299C276.04 30.0899 273.07 27.9399 273.08 28.1299C273.11 28.3099 272.04 30.2299 272.51 34.5299Z" fill="#1D2468"/>
<path d="M287.7 120.92C287.7 120.92 286.97 121.78 286.33 122.28C285.69 122.78 285.42 122.78 284.52 123.01C283.61 123.24 282.84 124.18 282.57 124.5C282.31 124.82 282.57 124.97 283.13 124.85C283.69 124.73 284.4 124.29 284.64 124.29C284.87 124.29 284.87 124.57 284.64 125.09C284.41 125.61 283.76 126.45 283.38 126.75C283 127.04 281.95 127.63 281.83 127.98C281.71 128.33 281.8 128.51 282.36 128.33C282.92 128.15 283.56 127.69 284.23 127.33C284.59 127.14 284.76 126.93 284.94 126.78C285.16 126.84 285.94 127.02 286.49 126.94C286.77 126.9 287.02 126.76 287.22 126.62C287.3 126.6 287.38 126.59 287.45 126.57C287.95 126.37 288.21 124.64 288.47 124.17C288.73 123.7 290.95 122 290.95 122L287.7 120.92Z" fill="#FDAEB3"/>
<path d="M274.41 75.0898C274.12 75.0598 273.73 74.7598 273.24 74.2298C273.08 74.0698 272.86 73.7998 272.62 73.5198C272.4 73.3598 272.19 73.2198 272.02 73.1098C271.64 72.8398 271.24 72.8098 271.1 72.8098C271.07 72.8098 271.05 72.8098 271.05 72.8098V72.7898C268.75 72.7398 267.72 71.7398 264.9 71.7398C264.9 71.7398 271.49 68.5698 275.47 70.8198C275.88 70.8798 276.66 70.9898 277.15 70.9898C278.31 71.0098 277.97 71.5898 277.61 71.7798C277.48 71.8298 277.17 71.8798 276.83 71.9198C276.85 71.9398 276.86 71.9498 276.89 71.9798C277.06 72.1698 277.22 72.3598 277.37 72.5298C277.88 73.1498 278.56 73.9598 278.69 74.0798C278.86 74.2898 278.75 74.4098 278.75 74.4098C279 74.8198 276.46 76.0998 274.41 75.0898Z" fill="#FDAEB3"/>
<path opacity="0.47" d="M277.62 71.7898C277.49 71.8398 277.18 71.8898 276.84 71.9298C276.84 71.9298 275.87 71.0298 275.48 70.8198C275.89 70.8798 276.67 70.9898 277.16 70.9898C278.31 71.0098 277.98 71.5998 277.62 71.7898Z" fill="url(#paint1_linear)"/>
<path d="M311.14 104.34C311.14 104.34 303.94 103.27 303.4 101.89C303.08 101.07 303.18 94.4999 303.31 89.3199C303.33 88.2099 303.37 87.1599 303.4 86.2499C303.44 84.2599 303.49 82.8999 303.49 82.8999L316.95 84.1599C315.69 89.9599 311.14 104.34 311.14 104.34Z" fill="#FDAEB3"/>
<path d="M303.4 101.88C303.4 101.88 299.83 104.6 297.93 106.88C296.74 108.31 293.04 113.94 290.2 117.83C288.5 120.17 286.9 121.76 286.9 121.76L288.68 123.52C288.68 123.52 296.05 118.66 302.12 114.08C308.19 109.5 310.05 107.81 311.14 104.33C312.22 100.86 305.56 100.12 303.4 101.88Z" fill="#FDAEB3"/>
<path d="M302.88 71.74L303.33 84.06C303.33 84.06 310.59 86.6 317.12 85.05C317.12 85.05 321.24 75.3 317.97 65.97" fill="#FECB22"/>
<path d="M290.48 95.2699V69.3699" stroke="#192469" stroke-width="5.4139" stroke-miterlimit="10" stroke-linecap="round"/>
<defs>
<linearGradient id="paint0_linear" x1="257.352" y1="367.81" x2="259.114" y2="412.268" gradientUnits="userSpaceOnUse">
<stop offset="0.3656" stop-color="#86CF94"/>
<stop offset="0.9892" stop-color="#008166"/>
</linearGradient>
<linearGradient id="paint1_linear" x1="275.476" y1="71.3794" x2="277.957" y2="71.3794" gradientUnits="userSpaceOnUse">
<stop stop-color="#F7941E"/>
<stop offset="1" stop-color="#F7941E" stop-opacity="0"/>
</linearGradient>
</defs>
</svg>
